<?xml version="1.0" standalone="no"?>
<!DOCTYPE svg PUBLIC "-//W3C//DTD SVG 20010904//EN"
 "http://www.w3.org/TR/2001/REC-SVG-20010904/DTD/svg10.dtd">
<svg version="1.0" xmlns="http://www.w3.org/2000/svg"
 width="139.000000pt" height="139.000000pt" viewBox="0 0 139.000000 139.000000"
 preserveAspectRatio="xMidYMid meet">
<metadata>
Created by potrace 1.14, written by Peter Selinger 2001-2017
</metadata>
<g transform="translate(0.000000,139.000000) scale(0.100000,-0.100000)"
fill="#000000" stroke="none">
<path d="M686 694 c-71 -168 -131 -314 -134 -326 -4 -16 -1 -19 18 -16 19 3
41 47 155 320 73 174 130 320 127 323 -26 25 -43 -5 -166 -301z"/>
<path d="M165 841 c-142 -100 -171 -131 -155 -161 11 -20 283 -210 312 -218
17 -4 19 -1 16 23 -2 24 -24 43 -135 119 -73 50 -132 94 -133 97 0 3 61 47
135 98 111 76 135 96 135 117 0 16 -5 24 -17 24 -10 -1 -81 -45 -158 -99z"/>
<path d="M1056 925 c-9 -25 2 -38 69 -84 36 -23 97 -65 135 -93 l71 -49 -123
-86 c-68 -47 -130 -92 -140 -100 -19 -17 -17 -47 3 -51 14 -2 237 146 293 195
29 26 33 54 11 77 -24 24 -292 206 -303 206 -5 0 -12 -7 -16 -15z"/>
<path d="M330 707 c0 -123 2 -146 16 -151 9 -3 18 -6 20 -6 2 0 4 48 4 108 l1
107 34 -66 c50 -98 60 -98 115 2 l30 54 0 -96 c0 -81 3 -98 16 -103 9 -4 19
-4 22 -2 2 3 4 58 4 123 0 176 0 173 -20 173 -12 0 -32 -26 -62 -85 -27 -50
-49 -80 -54 -75 -5 5 -26 42 -46 82 -27 51 -44 74 -59 76 -21 3 -21 0 -21
-141z"/>
<path d="M829 848 c-1 -2 -2 -67 -3 -145 -1 -109 2 -143 11 -143 7 0 16 -1 21
-2 4 -2 7 41 7 94 0 53 2 99 5 101 3 3 34 -39 70 -93 58 -87 93 -122 103 -102
2 4 3 70 3 147 -1 133 -2 140 -21 140 -19 0 -20 -7 -20 -97 1 -54 -2 -98 -6
-98 -3 0 -36 45 -73 100 -36 55 -73 100 -81 100 -8 0 -16 -1 -16 -2z"/>
</g>
</svg>
