<svg width="25" height="25" viewBox="0 0 25 25" fill="none" xmlns="http://www.w3.org/2000/svg">
<path d="M22.6562 3.125H2.34375C1.04932 3.125 0 4.17432 0 5.46875V19.5312C0 20.8257 1.04932 21.875 2.34375 21.875H22.6562C23.9507 21.875 25 20.8257 25 19.5312V5.46875C25 4.17432 23.9507 3.125 22.6562 3.125ZM22.6562 5.46875V7.46118C21.5614 8.35273 19.816 9.73906 16.0846 12.6609C15.2623 13.3077 13.6334 14.8617 12.5 14.8436C11.3668 14.8619 9.73735 13.3075 8.91538 12.6609C5.18457 9.7395 3.43872 8.35288 2.34375 7.46118V5.46875H22.6562ZM2.34375 19.5312V10.4687C3.4626 11.3598 5.04927 12.6104 7.46768 14.5041C8.53491 15.3442 10.4039 17.1987 12.5 17.1875C14.5858 17.1987 16.4311 15.3711 17.5319 14.5045C19.9502 12.6108 21.5374 11.3599 22.6562 10.4687V19.5312H2.34375Z" fill="white"/>
</svg>
