<svg width="260" height="150" viewBox="0 0 260 150" fill="none" xmlns="http://www.w3.org/2000/svg">
<g clip-path="url(#clip0)">
<path d="M152.303 2.88667V148.125C152.303 150.622 156.194 150.63 156.194 148.125V2.88667C156.194 0.389001 152.303 0.38122 152.303 2.88667Z" fill="#1D1D1B"/>
<path d="M152.887 0.560119L123.701 28.7814L94.5146 57.0105L78.0424 72.9458C76.2373 74.6887 78.9917 77.4353 80.7891 75.6924L109.975 47.4711L139.161 19.242L155.641 3.30677C157.446 1.56385 154.692 -1.1828 152.887 0.560119V0.560119Z" fill="#1D1D1B"/>
<path d="M0.622388 6.06138L30.8045 33.2089L60.9943 60.3642L78.0422 75.6926C79.8941 77.3655 82.6563 74.6266 80.7889 72.9459L50.599 45.7906L20.417 18.6353L3.36904 3.30694C1.51719 1.63405 -1.24503 4.38071 0.622388 6.06138Z" fill="#1D1D1B"/>
<path d="M163.282 2.88667V148.125C163.282 150.622 167.172 150.63 167.172 148.125V2.88667C167.172 0.389001 163.282 0.38122 163.282 2.88667Z" fill="#1D1D1B"/>
<path d="M258.792 146.701L222.907 89.7681L187.021 32.8431L166.908 0.941453C165.577 -1.16717 162.239 0.778057 163.547 2.90224L199.432 59.835L235.31 116.768L255.431 148.669C256.762 150.778 260.1 148.833 258.792 146.701Z" fill="#1D1D1B"/>
</g>
<defs>
<clipPath id="clip0">
<rect width="259.096" height="150" fill="white"/>
</clipPath>
</defs>
</svg>
