<svg width="405" height="300" viewBox="0 0 405 300" fill="none" xmlns="http://www.w3.org/2000/svg">
<rect width="405" height="300" fill="white"/>
<g clip-path="url(#clip0)">
<path d="M72.9715 197.67C72.6155 197.67 72.2617 197.619 71.9228 197.518C71.4939 197.394 71.0961 197.192 70.7526 196.925C70.409 196.658 70.1264 196.331 69.9212 195.962L66.6126 190.058C66.1974 189.315 66.1195 188.451 66.3959 187.655C66.6723 186.859 67.2805 186.197 68.087 185.813L121.574 160.44C122.381 160.058 123.32 159.986 124.185 160.241C125.05 160.495 125.77 161.055 126.186 161.797L129.495 167.701C129.91 168.444 129.988 169.308 129.712 170.104C129.435 170.9 128.827 171.562 128.021 171.945L74.5341 197.319C74.0512 197.549 73.5154 197.67 72.9715 197.67Z" fill="#FFB7B7"/>
<path d="M92.3734 174.665C92.5167 174.847 92.6386 175.042 92.737 175.248L98.3889 186.604C98.5711 186.983 98.6704 187.391 98.6811 187.805C98.6918 188.218 98.6138 188.63 98.4515 189.016C98.2891 189.403 98.0457 189.755 97.735 190.055C97.4243 190.354 97.0526 190.595 96.6409 190.762L77.6315 196.875C75.6545 197.51 73.4929 197.456 71.5565 196.722C69.6201 195.989 68.0435 194.627 67.1255 192.895L67.3453 192.797L67.1257 192.895C66.1647 191.083 65.9971 189 66.6575 187.078C67.3179 185.155 68.7557 183.539 70.6739 182.564L88.2021 173.647C88.919 173.351 89.7243 173.291 90.4836 173.477C91.2428 173.662 91.91 174.081 92.3734 174.665V174.665Z" fill="#2F2E41"/>
<path d="M316.212 144.936H224.641C222.556 144.93 220.545 144.231 218.977 142.968L181.259 112.359C179.964 111.307 178.296 110.727 176.568 110.728H144.017V7.42686C144.02 5.45781 144.871 3.57006 146.384 2.17773C147.897 0.785409 149.949 0.00222542 152.089 0H308.141C310.28 0.00222423 312.332 0.785409 313.845 2.17773C315.359 3.57006 316.21 5.45781 316.212 7.42686L316.212 144.936Z" fill="#E6E6E6"/>
<path d="M181.44 47.9371C190.896 47.9371 198.562 40.8838 198.562 32.1831C198.562 23.4825 190.896 16.4292 181.44 16.4292C171.984 16.4292 164.319 23.4825 164.319 32.1831C164.319 40.8838 171.984 47.9371 181.44 47.9371Z" fill="white"/>
<path d="M247.97 23.7437H216.173C215.589 23.7437 215.029 23.9571 214.616 24.3369C214.203 24.7168 213.971 25.232 213.971 25.7692C213.971 26.3064 214.203 26.8215 214.616 27.2014C215.029 27.5813 215.589 27.7947 216.173 27.7947H247.97C248.554 27.7947 249.114 27.5813 249.527 27.2014C249.94 26.8215 250.171 26.3064 250.171 25.7692C250.171 25.232 249.94 24.7168 249.527 24.3369C249.114 23.9571 248.554 23.7437 247.97 23.7437Z" fill="white"/>
<path d="M294.13 36.5718H215.752C214.769 36.5718 213.971 37.481 213.971 38.5973C213.971 39.7136 214.769 40.6228 215.752 40.6228H294.13C295.113 40.6228 295.911 39.7136 295.911 38.5973C295.911 37.481 295.113 36.5718 294.13 36.5718Z" fill="white"/>
<path d="M287.971 63.6909H172.258C171.319 63.6909 170.556 64.6001 170.556 65.7164C170.556 66.8327 171.319 67.7419 172.258 67.7419H287.971C288.91 67.7419 289.674 66.8327 289.674 65.7164C289.674 64.6001 288.91 63.6909 287.971 63.6909Z" fill="white"/>
<path d="M287.971 76.2939H172.258C171.319 76.2939 170.556 77.2032 170.556 78.3195C170.556 79.4357 171.319 80.345 172.258 80.345H287.971C288.91 80.345 289.674 79.4357 289.674 78.3195C289.674 77.2032 288.91 76.2939 287.971 76.2939Z" fill="white"/>
<path d="M287.971 88.8975H172.258C171.319 88.8975 170.556 89.8067 170.556 90.923C170.556 92.0392 171.319 92.9485 172.258 92.9485H287.971C288.91 92.9485 289.674 92.0392 289.674 90.923C289.674 89.8067 288.91 88.8975 287.971 88.8975Z" fill="white"/>
<path d="M287.971 101.5H172.258C171.319 101.5 170.556 102.41 170.556 103.526C170.556 104.642 171.319 105.551 172.258 105.551H287.971C288.91 105.551 289.674 104.642 289.674 103.526C289.674 102.41 288.91 101.5 287.971 101.5Z" fill="white"/>
<path d="M392.036 144.936H224.641C222.974 144.939 221.344 144.491 219.952 143.648L219.842 143.581V38.4845C219.844 36.5154 220.695 34.6277 222.208 33.2353C223.722 31.843 225.773 31.0598 227.913 31.0576H383.965C386.105 31.0598 388.156 31.843 389.67 33.2353C391.183 34.6277 392.034 36.5154 392.036 38.4845L392.036 144.936Z" fill="#636569"/>
<path d="M257.265 78.9947C266.721 78.9947 274.386 71.9414 274.386 63.2408C274.386 54.5401 266.721 47.4868 257.265 47.4868C247.809 47.4868 240.143 54.5401 240.143 63.2408C240.143 71.9414 247.809 78.9947 257.265 78.9947Z" fill="white"/>
<path d="M323.795 54.8013H291.997C291.413 54.8013 290.853 55.0147 290.441 55.3945C290.028 55.7744 289.796 56.2896 289.796 56.8268C289.796 57.364 290.028 57.8792 290.441 58.259C290.853 58.6389 291.413 58.8523 291.997 58.8523H323.795C324.378 58.8523 324.938 58.6389 325.351 58.259C325.764 57.8792 325.996 57.364 325.996 56.8268C325.996 56.2896 325.764 55.7744 325.351 55.3945C324.938 55.0147 324.378 54.8013 323.795 54.8013Z" fill="white"/>
<path d="M369.954 67.6294H291.577C290.593 67.6294 289.796 68.5386 289.796 69.6549C289.796 70.7712 290.593 71.6804 291.577 71.6804H369.954C370.938 71.6804 371.735 70.7712 371.735 69.6549C371.735 68.5386 370.938 67.6294 369.954 67.6294Z" fill="white"/>
<path d="M363.796 94.7485H248.083C247.143 94.7485 246.38 95.6578 246.38 96.774C246.38 97.8903 247.143 98.7995 248.083 98.7995H363.796C364.735 98.7995 365.498 97.8903 365.498 96.774C365.498 95.6578 364.735 94.7485 363.796 94.7485Z" fill="white"/>
<path d="M363.796 107.352H248.083C247.143 107.352 246.38 108.261 246.38 109.378C246.38 110.494 247.143 111.403 248.083 111.403H363.796C364.735 111.403 365.498 110.494 365.498 109.378C365.498 108.261 364.735 107.352 363.796 107.352Z" fill="white"/>
<path d="M363.796 119.955H248.083C247.143 119.955 246.38 120.864 246.38 121.981C246.38 123.097 247.143 124.006 248.083 124.006H363.796C364.735 124.006 365.498 123.097 365.498 121.981C365.498 120.864 364.735 119.955 363.796 119.955Z" fill="white"/>
<path d="M363.796 132.558H248.083C247.143 132.558 246.38 133.467 246.38 134.584C246.38 135.7 247.143 136.609 248.083 136.609H363.796C364.735 136.609 365.498 135.7 365.498 134.584C365.498 133.467 364.735 132.558 363.796 132.558Z" fill="white"/>
<path d="M396.684 143.811H224.641C222.987 143.813 221.382 143.299 220.086 142.353C219.984 142.281 219.886 142.204 219.788 142.123L205.225 130.308L182.067 111.516C180.549 110.282 178.593 109.602 176.568 109.603H134.478C132.274 109.605 130.16 110.413 128.601 111.847C127.042 113.281 126.165 115.226 126.162 117.254V292.348C126.165 294.377 127.042 296.321 128.601 297.756C130.16 299.19 132.274 299.997 134.478 300H396.684C398.888 299.997 401.002 299.19 402.561 297.756C404.12 296.321 404.997 294.377 405 292.348V151.463C404.997 149.434 404.12 147.49 402.561 146.055C401.002 144.621 398.888 143.814 396.684 143.811ZM404.022 292.348C404.019 294.138 403.245 295.854 401.87 297.12C400.494 298.386 398.629 299.098 396.684 299.1H134.478C132.533 299.098 130.668 298.386 129.292 297.12C127.917 295.854 127.143 294.138 127.14 292.348V117.254C127.143 115.464 127.917 113.748 129.292 112.483C130.668 111.217 132.533 110.505 134.478 110.503H176.568C178.355 110.501 180.081 111.102 181.421 112.191L203.747 130.308L219.137 142.798C220.661 144.026 222.615 144.706 224.641 144.711H396.684C398.629 144.713 400.494 145.426 401.87 146.691C403.245 147.957 404.019 149.673 404.022 151.463V292.348Z" fill="#3F3D56"/>
<path d="M50.5107 170.859C64.97 170.859 76.6917 160.074 76.6917 146.769C76.6917 133.465 64.97 122.68 50.5107 122.68C36.0513 122.68 24.3297 133.465 24.3297 146.769C24.3297 160.074 36.0513 170.859 50.5107 170.859Z" fill="#FFB7B7"/>
<path d="M50.299 299.738H43.0789C42.171 299.737 41.3006 299.405 40.6586 298.814C40.0167 298.223 39.6556 297.423 39.6545 296.587V241.217C39.6556 240.382 40.0167 239.581 40.6586 238.99C41.3006 238.4 42.171 238.067 43.0789 238.066H50.299C51.2068 238.067 52.0772 238.4 52.7192 238.99C53.3612 239.581 53.7223 240.382 53.7233 241.217V296.587C53.7223 297.423 53.3612 298.223 52.7192 298.814C52.0772 299.405 51.2068 299.737 50.299 299.738Z" fill="#FFB7B7"/>
<path d="M65.953 299.738H58.7329C57.825 299.737 56.9546 299.405 56.3127 298.814C55.6707 298.223 55.3096 297.423 55.3086 296.587V241.217C55.3096 240.382 55.6707 239.581 56.3127 238.99C56.9546 238.4 57.825 238.067 58.7329 238.066H65.953C66.8609 238.067 67.7313 238.4 68.3733 238.99C69.0152 239.581 69.3763 240.382 69.3773 241.217V296.587C69.3763 297.423 69.0152 298.223 68.3733 298.814C67.7313 299.405 66.8609 299.737 65.953 299.738Z" fill="#FFB7B7"/>
<path d="M92.1717 228.958C92.1717 248.597 72.0947 254.931 50.7512 254.931C29.4076 254.931 14.8798 248.597 14.8798 228.958C14.8798 209.319 29.247 175.845 50.5906 175.845C71.9342 175.845 92.1717 209.319 92.1717 228.958Z" fill="#2F2E41"/>
<path d="M49.9606 155.697L49.9333 154.797C51.7535 154.751 53.3582 154.646 54.5639 153.835C54.9058 153.592 55.1868 153.284 55.3878 152.933C55.5888 152.581 55.7051 152.194 55.7289 151.797C55.75 151.554 55.7102 151.311 55.6124 151.085C55.5146 150.859 55.3614 150.657 55.1649 150.494C54.3645 149.872 53.0766 150.073 52.1378 150.469L51.3283 150.811L52.8807 140.373L53.85 140.495L52.5295 149.374C53.8051 149.029 54.9869 149.177 55.7964 149.806C56.1073 150.056 56.3511 150.369 56.509 150.719C56.6669 151.07 56.7345 151.45 56.7065 151.828C56.678 152.362 56.523 152.883 56.2526 153.355C55.9822 153.827 55.6028 154.239 55.141 154.562C53.5918 155.604 51.5784 155.656 49.9606 155.697Z" fill="#2F2E41"/>
<path d="M63.913 141.261H58.6437V142.161H63.913V141.261Z" fill="#2F2E41"/>
<path d="M47.2806 141.261H42.0113V142.161H47.2806V141.261Z" fill="#2F2E41"/>
<path d="M341.405 268.942H197.584C195.638 268.94 193.773 268.228 192.397 266.962C191.022 265.697 190.248 263.98 190.246 262.19V189.272C190.248 187.482 191.022 185.766 192.397 184.5C193.773 183.235 195.638 182.523 197.584 182.521H341.405C343.351 182.523 345.216 183.235 346.592 184.5C347.967 185.766 348.741 187.482 348.743 189.272V262.19C348.741 263.98 347.967 265.697 346.592 266.962C345.216 268.228 343.351 268.94 341.405 268.942ZM197.584 183.421C195.898 183.423 194.281 184.04 193.089 185.137C191.897 186.234 191.226 187.721 191.224 189.272V262.19C191.226 263.742 191.897 265.229 193.089 266.326C194.281 267.423 195.898 268.04 197.584 268.042H341.405C343.091 268.04 344.708 267.423 345.9 266.326C347.092 265.229 347.763 263.742 347.765 262.19V189.272C347.763 187.721 347.092 186.234 345.9 185.137C344.708 184.04 343.091 183.423 341.405 183.421H197.584Z" fill="#E6E6E6"/>
<path d="M220.82 225.281C230.276 225.281 237.942 218.228 237.942 209.527C237.942 200.827 230.276 193.773 220.82 193.773C211.364 193.773 203.698 200.827 203.698 209.527C203.698 218.228 211.364 225.281 220.82 225.281Z" fill="#E6E6E6"/>
<path d="M287.35 201.088H255.553C254.969 201.088 254.409 201.301 253.996 201.681C253.583 202.061 253.351 202.576 253.351 203.113C253.351 203.651 253.583 204.166 253.996 204.546C254.409 204.926 254.969 205.139 255.553 205.139H287.35C287.934 205.139 288.494 204.926 288.907 204.546C289.319 204.166 289.551 203.651 289.551 203.113C289.551 202.576 289.319 202.061 288.907 201.681C288.494 201.301 287.934 201.088 287.35 201.088Z" fill="#E6E6E6"/>
<path d="M333.51 213.916H255.132C254.149 213.916 253.351 214.825 253.351 215.942C253.351 217.058 254.149 217.967 255.132 217.967H333.51C334.493 217.967 335.291 217.058 335.291 215.942C335.291 214.825 334.493 213.916 333.51 213.916Z" fill="#E6E6E6"/>
<path d="M327.351 241.035H211.638C210.699 241.035 209.936 241.944 209.936 243.061C209.936 244.177 210.699 245.086 211.638 245.086H327.351C328.29 245.086 329.053 244.177 329.053 243.061C329.053 241.944 328.29 241.035 327.351 241.035Z" fill="#E6E6E6"/>
<path d="M327.351 253.639H211.638C210.699 253.639 209.936 254.548 209.936 255.664C209.936 256.78 210.699 257.69 211.638 257.69H327.351C328.29 257.69 329.053 256.78 329.053 255.664C329.053 254.548 328.29 253.639 327.351 253.639Z" fill="#E6E6E6"/>
<path d="M29.616 140.151C31.6522 137.33 35.235 136.135 38.768 135.844C42.7447 135.517 46.5872 136.222 50.4698 136.908C54.7428 137.662 59.2652 138.368 63.5707 137.414C65.4754 137.009 67.2552 136.211 68.776 135.081C70.2967 133.95 71.5187 132.517 72.3499 130.889C73.9263 127.712 74.2659 124.133 73.3117 120.753C72.3028 117.158 69.7984 113.995 66.7625 111.606C60.566 106.73 52.1807 104.539 44.1154 104.745C36.0807 104.936 28.315 107.448 21.9187 111.927C15.5116 116.566 11.003 123.067 9.12883 130.368C7.169 137.61 7.80744 145.24 10.9488 152.12C12.7137 155.887 15.2662 159.283 17.2359 162.955C19.0697 166.374 20.482 170.35 19.341 174.163C18.3398 177.51 15.4002 180.483 11.7098 181.392C8.19496 182.257 4.7244 180.838 2.79847 178.044C0.953681 175.368 0.909542 171.862 3.67939 169.701C4.37776 169.147 5.19126 168.729 6.07044 168.474C6.94962 168.218 7.87611 168.13 8.79356 168.214C9.71101 168.298 10.6003 168.553 11.4072 168.964C12.2142 169.374 12.922 169.931 13.4876 170.601C14.6114 171.944 15.1144 173.641 14.8875 175.323C14.7511 176.173 16.165 176.539 16.3027 175.682C16.6332 173.903 16.2667 172.074 15.2684 170.52C14.2702 168.967 12.7049 167.79 10.8517 167.2C8.99843 166.609 6.9775 166.643 5.14898 167.296C3.32045 167.948 1.8031 169.177 0.867261 170.763C-0.803101 173.653 0.0981541 177.138 2.21853 179.608C3.31253 180.924 4.79533 181.922 6.48953 182.482C8.18373 183.043 10.0176 183.142 11.7717 182.769C15.6313 181.949 18.7887 179.126 20.2736 175.809C21.9266 172.117 21.1692 167.996 19.5578 164.413C17.8158 160.54 15.229 157.066 13.1833 153.333C11.3311 149.96 10.1524 146.308 9.70342 142.552C8.80489 135.008 10.6656 127.404 14.9913 120.943C19.4002 114.582 26.1298 109.876 33.9711 107.67C41.7029 105.437 50.2303 105.506 57.8008 108.25C65.2578 110.954 72.4585 116.845 72.3721 124.758C72.3351 128.138 70.9714 131.585 68.1576 133.84C64.7948 136.534 60.1126 136.765 55.8853 136.344C51.6313 135.921 47.5002 134.778 43.2278 134.486C39.5117 134.232 35.5026 134.496 32.1845 136.195C30.6393 136.988 29.3238 138.111 28.3488 139.469C27.8247 140.195 29.0952 140.872 29.616 140.151L29.616 140.151Z" fill="#2F2E41"/>
<path d="M22.0738 253.056C21.9006 253.056 21.7277 253.044 21.5566 253.02L14.4187 252.02C13.5213 251.894 12.7152 251.445 12.1771 250.772C11.6391 250.099 11.4131 249.257 11.5487 248.431L20.6038 193.692C20.7414 192.866 21.2294 192.124 21.9606 191.629C22.6919 191.134 23.6067 190.926 24.5044 191.051L31.6423 192.051C32.5397 192.177 33.3458 192.626 33.8839 193.299C34.422 193.972 34.648 194.814 34.5123 195.64L25.4571 250.379C25.3329 251.123 24.9236 251.802 24.3032 252.293C23.6828 252.784 22.892 253.055 22.0738 253.056Z" fill="#FFB7B7"/>
<path d="M30.6037 215.751C30.3596 215.751 30.1163 215.727 29.8777 215.679L16.5693 213.215C16.1293 213.128 15.7123 212.963 15.342 212.728C14.9716 212.492 14.6553 212.192 14.4111 211.845C14.1669 211.497 13.9996 211.108 13.9187 210.701C13.8378 210.294 13.845 209.876 13.9397 209.471L19.7315 191.725C20.3346 189.88 21.6524 188.303 23.4352 187.292C25.218 186.281 27.3419 185.907 29.4043 186.241L29.3618 186.463L29.4043 186.241C31.5626 186.591 33.4926 187.689 34.7955 189.311C36.0985 190.932 36.6747 192.952 36.4052 194.953L33.9499 213.243C33.7885 213.95 33.3682 214.585 32.7591 215.042C32.1501 215.498 31.3892 215.749 30.6037 215.751H30.6037Z" fill="#2F2E41"/>
<path d="M93.8542 300H17.0514C16.9217 300 16.7973 299.952 16.7055 299.868C16.6138 299.784 16.5623 299.669 16.5623 299.55C16.5623 299.43 16.6138 299.316 16.7055 299.231C16.7973 299.147 16.9217 299.1 17.0514 299.1H93.8542C93.9839 299.1 94.1084 299.147 94.2001 299.231C94.2919 299.316 94.3434 299.43 94.3434 299.55C94.3434 299.669 94.2919 299.784 94.2001 299.868C94.1084 299.952 93.9839 300 93.8542 300Z" fill="#3F3D56"/>
</g>
<defs>
<clipPath id="clip0">
<rect width="405" height="300" fill="white"/>
</clipPath>
</defs>
</svg>
