<svg width="402" height="298" viewBox="0 0 402 298" fill="none" xmlns="http://www.w3.org/2000/svg">
<rect x="312" y="208" width="90" height="90" fill="#100E0E"/>
<path d="M329.642 272L327.256 263.273H328.33L330.153 270.381H330.239L332.097 263.273H333.29L335.148 270.381H335.233L337.057 263.273H338.131L335.744 272H334.653L332.727 265.045H332.659L330.733 272H329.642ZM341.181 272.136C340.59 272.136 340.071 271.996 339.625 271.714C339.182 271.433 338.836 271.04 338.586 270.534C338.338 270.028 338.215 269.437 338.215 268.761C338.215 268.08 338.338 267.484 338.586 266.976C338.836 266.467 339.182 266.072 339.625 265.791C340.071 265.51 340.59 265.369 341.181 265.369C341.772 265.369 342.289 265.51 342.732 265.791C343.178 266.072 343.525 266.467 343.772 266.976C344.022 267.484 344.147 268.08 344.147 268.761C344.147 269.437 344.022 270.028 343.772 270.534C343.525 271.04 343.178 271.433 342.732 271.714C342.289 271.996 341.772 272.136 341.181 272.136ZM341.181 271.233C341.63 271.233 341.999 271.118 342.289 270.888C342.579 270.658 342.793 270.355 342.932 269.98C343.071 269.605 343.141 269.199 343.141 268.761C343.141 268.324 343.071 267.916 342.932 267.538C342.793 267.161 342.579 266.855 342.289 266.622C341.999 266.389 341.63 266.273 341.181 266.273C340.732 266.273 340.363 266.389 340.073 266.622C339.783 266.855 339.569 267.161 339.429 267.538C339.29 267.916 339.221 268.324 339.221 268.761C339.221 269.199 339.29 269.605 339.429 269.98C339.569 270.355 339.783 270.658 340.073 270.888C340.363 271.118 340.732 271.233 341.181 271.233ZM345.502 272V265.455H346.473V266.443H346.542C346.661 266.119 346.877 265.857 347.189 265.655C347.502 265.453 347.854 265.352 348.246 265.352C348.32 265.352 348.412 265.354 348.523 265.357C348.634 265.359 348.718 265.364 348.775 265.369V266.392C348.74 266.384 348.662 266.371 348.54 266.354C348.421 266.334 348.294 266.324 348.161 266.324C347.843 266.324 347.559 266.391 347.309 266.524C347.062 266.655 346.865 266.837 346.721 267.07C346.579 267.3 346.508 267.562 346.508 267.858V272H345.502ZM352.059 272.136C351.514 272.136 351.032 271.999 350.614 271.723C350.197 271.445 349.87 271.053 349.634 270.547C349.399 270.038 349.281 269.438 349.281 268.744C349.281 268.057 349.399 267.46 349.634 266.955C349.87 266.449 350.198 266.058 350.619 265.783C351.039 265.507 351.525 265.369 352.076 265.369C352.502 265.369 352.839 265.44 353.086 265.582C353.336 265.722 353.526 265.881 353.657 266.06C353.791 266.236 353.894 266.381 353.968 266.494H354.053V263.273H355.059V272H354.087V270.994H353.968C353.894 271.114 353.789 271.264 353.653 271.446C353.516 271.625 353.322 271.786 353.069 271.928C352.816 272.067 352.48 272.136 352.059 272.136ZM352.195 271.233C352.599 271.233 352.94 271.128 353.218 270.918C353.497 270.705 353.708 270.411 353.853 270.036C353.998 269.658 354.07 269.222 354.07 268.727C354.07 268.239 353.999 267.811 353.857 267.445C353.715 267.075 353.505 266.788 353.227 266.584C352.948 266.376 352.605 266.273 352.195 266.273C351.769 266.273 351.414 266.382 351.13 266.601C350.849 266.817 350.637 267.111 350.495 267.483C350.356 267.852 350.286 268.267 350.286 268.727C350.286 269.193 350.357 269.616 350.499 269.997C350.644 270.375 350.857 270.676 351.139 270.901C351.423 271.122 351.775 271.233 352.195 271.233ZM356.997 272V263.273H359.946C360.63 263.273 361.19 263.396 361.625 263.643C362.062 263.888 362.386 264.219 362.596 264.636C362.807 265.054 362.912 265.52 362.912 266.034C362.912 266.548 362.807 267.016 362.596 267.436C362.389 267.857 362.068 268.192 361.633 268.442C361.199 268.689 360.642 268.812 359.963 268.812H357.849V267.875H359.929C360.398 267.875 360.774 267.794 361.058 267.632C361.342 267.47 361.548 267.251 361.676 266.976C361.807 266.697 361.872 266.384 361.872 266.034C361.872 265.685 361.807 265.372 361.676 265.097C361.548 264.821 361.341 264.605 361.054 264.449C360.767 264.29 360.386 264.21 359.912 264.21H358.054V272H356.997ZM364.298 272V265.455H365.269V266.443H365.338C365.457 266.119 365.673 265.857 365.985 265.655C366.298 265.453 366.65 265.352 367.042 265.352C367.116 265.352 367.208 265.354 367.319 265.357C367.43 265.359 367.514 265.364 367.571 265.369V266.392C367.536 266.384 367.458 266.371 367.336 266.354C367.217 266.334 367.09 266.324 366.957 266.324C366.639 266.324 366.355 266.391 366.105 266.524C365.857 266.655 365.661 266.837 365.517 267.07C365.375 267.3 365.303 267.562 365.303 267.858V272H364.298ZM371.128 272.136C370.497 272.136 369.953 271.997 369.496 271.719C369.041 271.438 368.69 271.045 368.443 270.543C368.199 270.037 368.077 269.449 368.077 268.778C368.077 268.108 368.199 267.517 368.443 267.006C368.69 266.491 369.034 266.091 369.474 265.804C369.918 265.514 370.435 265.369 371.025 265.369C371.366 265.369 371.703 265.426 372.035 265.54C372.368 265.653 372.67 265.838 372.943 266.094C373.216 266.347 373.433 266.682 373.595 267.099C373.757 267.517 373.838 268.031 373.838 268.642V269.068H368.793V268.199H372.815C372.815 267.83 372.741 267.5 372.594 267.21C372.449 266.92 372.241 266.692 371.971 266.524C371.704 266.357 371.389 266.273 371.025 266.273C370.625 266.273 370.278 266.372 369.986 266.571C369.696 266.767 369.473 267.023 369.317 267.338C369.16 267.653 369.082 267.991 369.082 268.352V268.932C369.082 269.426 369.168 269.845 369.338 270.189C369.511 270.53 369.751 270.79 370.058 270.969C370.365 271.145 370.721 271.233 371.128 271.233C371.392 271.233 371.631 271.196 371.844 271.122C372.06 271.045 372.246 270.932 372.402 270.781C372.558 270.628 372.679 270.437 372.764 270.21L373.736 270.483C373.633 270.812 373.462 271.102 373.22 271.352C372.979 271.599 372.68 271.793 372.325 271.932C371.97 272.068 371.571 272.136 371.128 272.136ZM379.824 266.92L378.921 267.176C378.864 267.026 378.78 266.879 378.669 266.737C378.561 266.592 378.414 266.473 378.226 266.379C378.039 266.286 377.799 266.239 377.506 266.239C377.105 266.239 376.772 266.331 376.505 266.516C376.24 266.697 376.108 266.929 376.108 267.21C376.108 267.46 376.199 267.658 376.381 267.803C376.563 267.947 376.847 268.068 377.233 268.165L378.205 268.403C378.79 268.545 379.226 268.763 379.513 269.055C379.8 269.345 379.943 269.719 379.943 270.176C379.943 270.551 379.836 270.886 379.62 271.182C379.407 271.477 379.108 271.71 378.725 271.881C378.341 272.051 377.895 272.136 377.387 272.136C376.719 272.136 376.166 271.991 375.729 271.702C375.291 271.412 375.015 270.989 374.898 270.432L375.853 270.193C375.943 270.545 376.115 270.81 376.368 270.986C376.624 271.162 376.958 271.25 377.37 271.25C377.838 271.25 378.211 271.151 378.486 270.952C378.765 270.75 378.904 270.509 378.904 270.227C378.904 270 378.824 269.81 378.665 269.656C378.506 269.5 378.262 269.384 377.932 269.307L376.841 269.051C376.242 268.909 375.801 268.689 375.52 268.391C375.242 268.089 375.103 267.713 375.103 267.261C375.103 266.892 375.206 266.565 375.414 266.281C375.624 265.997 375.909 265.774 376.27 265.612C376.634 265.45 377.046 265.369 377.506 265.369C378.154 265.369 378.662 265.511 379.032 265.795C379.404 266.08 379.668 266.455 379.824 266.92ZM385.914 266.92L385.01 267.176C384.953 267.026 384.87 266.879 384.759 266.737C384.651 266.592 384.503 266.473 384.316 266.379C384.128 266.286 383.888 266.239 383.596 266.239C383.195 266.239 382.861 266.331 382.594 266.516C382.33 266.697 382.198 266.929 382.198 267.21C382.198 267.46 382.289 267.658 382.471 267.803C382.652 267.947 382.936 268.068 383.323 268.165L384.294 268.403C384.88 268.545 385.316 268.763 385.603 269.055C385.89 269.345 386.033 269.719 386.033 270.176C386.033 270.551 385.925 270.886 385.709 271.182C385.496 271.477 385.198 271.71 384.814 271.881C384.431 272.051 383.985 272.136 383.476 272.136C382.809 272.136 382.256 271.991 381.819 271.702C381.381 271.412 381.104 270.989 380.988 270.432L381.942 270.193C382.033 270.545 382.205 270.81 382.458 270.986C382.713 271.162 383.047 271.25 383.459 271.25C383.928 271.25 384.3 271.151 384.576 270.952C384.854 270.75 384.993 270.509 384.993 270.227C384.993 270 384.914 269.81 384.755 269.656C384.596 269.5 384.351 269.384 384.022 269.307L382.931 269.051C382.331 268.909 381.891 268.689 381.61 268.391C381.331 268.089 381.192 267.713 381.192 267.261C381.192 266.892 381.296 266.565 381.503 266.281C381.713 265.997 381.999 265.774 382.36 265.612C382.723 265.45 383.135 265.369 383.596 265.369C384.243 265.369 384.752 265.511 385.121 265.795C385.493 266.08 385.757 266.455 385.914 266.92Z" fill="white"/>
<g clip-path="url(#clip0_6_171)">
<path d="M340.478 240.432C340.478 246.351 343.918 251.466 348.906 253.89L341.773 234.346C340.943 236.206 340.478 238.264 340.478 240.432ZM365.528 239.677C365.528 237.829 364.864 236.549 364.294 235.553C363.536 234.321 362.826 233.278 362.826 232.046C362.826 230.671 363.868 229.392 365.337 229.392C365.403 229.392 365.466 229.4 365.531 229.404C362.87 226.966 359.326 225.478 355.432 225.478C350.208 225.478 345.612 228.158 342.938 232.218C343.288 232.229 343.619 232.236 343.9 232.236C345.464 232.236 347.885 232.047 347.885 232.047C348.692 231.999 348.787 233.183 347.981 233.278C347.981 233.278 347.171 233.374 346.27 233.421L351.715 249.619L354.988 239.804L352.658 233.42C351.853 233.373 351.09 233.278 351.09 233.278C350.284 233.231 350.379 231.998 351.184 232.046C351.184 232.046 353.654 232.236 355.124 232.236C356.687 232.236 359.109 232.046 359.109 232.046C359.916 231.998 360.01 233.182 359.205 233.278C359.205 233.278 358.393 233.373 357.493 233.42L362.898 249.496L364.389 244.511C365.036 242.443 365.528 240.957 365.528 239.677ZM355.695 241.74L351.208 254.778C352.547 255.172 353.964 255.387 355.432 255.387C357.174 255.387 358.844 255.086 360.398 254.539C360.358 254.475 360.322 254.407 360.292 254.333L355.695 241.74ZM368.554 233.257C368.618 233.733 368.655 234.245 368.655 234.795C368.655 236.312 368.371 238.018 367.518 240.151L362.95 253.358C367.396 250.766 370.386 245.949 370.386 240.432C370.386 237.832 369.722 235.387 368.554 233.257ZM355.432 223C345.82 223 338 230.82 338 240.432C338 250.045 345.82 257.864 355.432 257.864C365.044 257.864 372.865 250.045 372.865 240.432C372.865 230.82 365.044 223 355.432 223ZM355.432 257.065C346.261 257.065 338.799 249.603 338.799 240.432C338.799 231.261 346.261 223.799 355.432 223.799C364.603 223.799 372.064 231.261 372.064 240.432C372.064 249.603 364.603 257.065 355.432 257.065Z" fill="#FF6663"/>
</g>
<rect x="208" y="208" width="90" height="90" fill="#100E0E"/>
<path d="M228.057 272H231.21C233.273 272 234.125 270.994 234.125 269.682C234.125 268.301 233.17 267.551 232.369 267.5V267.415C233.119 267.21 233.784 266.716 233.784 265.591C233.784 264.312 232.932 263.273 231.108 263.273H228.057V272ZM229.114 271.062V268.028H231.261C232.403 268.028 233.119 268.795 233.119 269.682C233.119 270.449 232.591 271.062 231.21 271.062H229.114ZM229.114 267.108V264.21H231.108C232.267 264.21 232.778 264.824 232.778 265.591C232.778 266.511 232.028 267.108 231.074 267.108H229.114ZM238.204 272.136C239.977 272.136 241.17 270.79 241.17 268.761C241.17 266.716 239.977 265.369 238.204 265.369C236.432 265.369 235.238 266.716 235.238 268.761C235.238 270.79 236.432 272.136 238.204 272.136ZM238.204 271.233C236.858 271.233 236.244 270.074 236.244 268.761C236.244 267.449 236.858 266.273 238.204 266.273C239.551 266.273 240.164 267.449 240.164 268.761C240.164 270.074 239.551 271.233 238.204 271.233ZM245.184 272.136C246.957 272.136 248.15 270.79 248.15 268.761C248.15 266.716 246.957 265.369 245.184 265.369C243.412 265.369 242.218 266.716 242.218 268.761C242.218 270.79 243.412 272.136 245.184 272.136ZM245.184 271.233C243.838 271.233 243.224 270.074 243.224 268.761C243.224 267.449 243.838 266.273 245.184 266.273C246.531 266.273 247.145 267.449 247.145 268.761C247.145 270.074 246.531 271.233 245.184 271.233ZM252.352 265.455H250.954V263.886H249.949V265.455H248.96V266.307H249.949V270.398C249.949 271.54 250.869 272.085 251.721 272.085C252.096 272.085 252.335 272.017 252.471 271.966L252.267 271.062C252.182 271.08 252.045 271.114 251.824 271.114C251.38 271.114 250.954 270.977 250.954 270.125V266.307H252.352V265.455ZM258.204 266.92C257.889 265.991 257.181 265.369 255.886 265.369C254.505 265.369 253.482 266.153 253.482 267.261C253.482 268.165 254.019 268.77 255.221 269.051L256.312 269.307C256.972 269.46 257.284 269.776 257.284 270.227C257.284 270.79 256.687 271.25 255.749 271.25C254.927 271.25 254.411 270.896 254.232 270.193L253.278 270.432C253.512 271.544 254.428 272.136 255.767 272.136C257.288 272.136 258.323 271.305 258.323 270.176C258.323 269.264 257.752 268.689 256.585 268.403L255.613 268.165C254.838 267.973 254.488 267.713 254.488 267.21C254.488 266.648 255.085 266.239 255.886 266.239C256.764 266.239 257.126 266.724 257.301 267.176L258.204 266.92ZM262.504 265.455H261.106V263.886H260.1V265.455H259.112V266.307H260.1V270.398C260.1 271.54 261.021 272.085 261.873 272.085C262.248 272.085 262.487 272.017 262.623 271.966L262.419 271.062C262.333 271.08 262.197 271.114 261.975 271.114C261.532 271.114 261.106 270.977 261.106 270.125V266.307H262.504V265.455ZM263.837 272H264.842V267.858C264.842 266.972 265.541 266.324 266.496 266.324C266.764 266.324 267.041 266.375 267.109 266.392V265.369C266.994 265.361 266.73 265.352 266.581 265.352C265.797 265.352 265.115 265.795 264.876 266.443H264.808V265.455H263.837V272ZM270.048 272.153C271.19 272.153 271.786 271.54 271.991 271.114H272.042V272H273.048V267.688C273.048 265.608 271.462 265.369 270.627 265.369C269.638 265.369 268.513 265.71 268.002 266.903L268.957 267.244C269.178 266.767 269.702 266.256 270.661 266.256C271.586 266.256 272.042 266.746 272.042 267.585V267.619C272.042 268.105 271.548 268.062 270.354 268.216C269.14 268.374 267.815 268.642 267.815 270.142C267.815 271.42 268.803 272.153 270.048 272.153ZM270.201 271.25C269.4 271.25 268.82 270.892 268.82 270.193C268.82 269.426 269.519 269.188 270.303 269.085C270.729 269.034 271.871 268.915 272.042 268.71V269.631C272.042 270.449 271.394 271.25 270.201 271.25ZM274.703 274.455H275.709V270.994H275.794C276.016 271.352 276.442 272.136 277.703 272.136C279.339 272.136 280.482 270.824 280.482 268.744C280.482 266.682 279.339 265.369 277.686 265.369C276.408 265.369 276.016 266.153 275.794 266.494H275.675V265.455H274.703V274.455ZM275.692 268.727C275.692 267.261 276.339 266.273 277.567 266.273C278.845 266.273 279.476 267.347 279.476 268.727C279.476 270.125 278.828 271.233 277.567 271.233C276.357 271.233 275.692 270.21 275.692 268.727Z" fill="white"/>
<g clip-path="url(#clip1_6_171)">
<path d="M262.168 224.964H241.887C239.215 224.964 237.048 227.127 237.048 229.796V250.168C237.048 252.837 239.215 255 241.887 255H262.168C264.841 255 267.008 252.837 267.008 250.168V229.796C267.008 227.127 264.841 224.964 262.168 224.964Z" fill="#FF6663"/>
<path d="M252.254 237.895C253.019 237.895 253.599 237.731 253.994 237.396C254.39 237.061 254.587 236.574 254.587 235.926C254.587 235.286 254.39 234.8 253.994 234.468C253.596 234.127 253.019 233.957 252.254 233.957H249.567V237.895H252.254V237.895ZM252.418 246.032C253.393 246.032 254.124 245.829 254.612 245.422C255.108 245.015 255.356 244.4 255.356 243.578C255.356 242.771 255.112 242.169 254.625 241.771C254.137 241.364 253.401 241.16 252.418 241.16H249.567V246.033H252.418L252.418 246.032ZM256.933 239.341C257.976 239.64 258.783 240.193 259.355 240.998C259.926 241.804 260.212 242.793 260.212 243.964C260.212 245.759 259.598 247.097 258.371 247.977C257.143 248.858 255.277 249.298 252.771 249.298H244.712V230.692H252.002C254.617 230.692 256.509 231.082 257.677 231.863C258.855 232.644 259.443 233.895 259.443 235.614C259.443 236.52 259.229 237.293 258.8 237.932C258.371 238.564 257.747 239.031 256.933 239.341" fill="#100E0E"/>
</g>
<rect x="104" y="208" width="90" height="90" fill="#100E0E"/>
<path d="M145.08 266C144.756 264.21 143.324 263.153 141.568 263.153C139.335 263.153 137.716 264.875 137.716 267.636C137.716 270.398 139.335 272.119 141.568 272.119C143.324 272.119 144.756 271.062 145.08 269.273H144.023C143.767 270.483 142.727 271.131 141.568 271.131C139.983 271.131 138.739 269.903 138.739 267.636C138.739 265.369 139.983 264.142 141.568 264.142C142.727 264.142 143.767 264.79 144.023 266H145.08ZM151.38 265.455H152.403C152.356 264.138 151.141 263.153 149.454 263.153C147.783 263.153 146.471 264.125 146.471 265.591C146.471 266.767 147.323 267.466 148.687 267.858L149.761 268.165C150.681 268.42 151.499 268.744 151.499 269.614C151.499 270.568 150.579 271.199 149.369 271.199C148.329 271.199 147.408 270.739 147.323 269.75H146.232C146.335 271.182 147.494 272.153 149.369 272.153C151.38 272.153 152.522 271.045 152.522 269.631C152.522 267.994 150.971 267.466 150.068 267.227L149.181 266.989C148.533 266.818 147.494 266.477 147.494 265.54C147.494 264.705 148.261 264.091 149.42 264.091C150.477 264.091 151.278 264.594 151.38 265.455ZM158.852 265.455H159.875C159.828 264.138 158.614 263.153 156.926 263.153C155.256 263.153 153.943 264.125 153.943 265.591C153.943 266.767 154.796 267.466 156.159 267.858L157.233 268.165C158.153 268.42 158.972 268.744 158.972 269.614C158.972 270.568 158.051 271.199 156.841 271.199C155.801 271.199 154.881 270.739 154.796 269.75H153.705C153.807 271.182 154.966 272.153 156.841 272.153C158.852 272.153 159.994 271.045 159.994 269.631C159.994 267.994 158.443 267.466 157.54 267.227L156.653 266.989C156.006 266.818 154.966 266.477 154.966 265.54C154.966 264.705 155.733 264.091 156.892 264.091C157.949 264.091 158.75 264.594 158.852 265.455Z" fill="white"/>
<path d="M134 231.875L136.727 255.066L149 258.125L161.273 255.066L164 231.875H134ZM158.461 236.562L158.086 239.334L149.078 242.223L149.055 242.229H157.766L156.766 250.818L149.094 252.5L141.375 250.789L140.875 246.459H144.695L144.945 248.703L149.055 249.482L153.328 248.58L153.617 244.971L140.625 244.941V244.936L140.609 244.941L140.328 242.229L149.086 239.492L149.594 239.334H139.992L139.539 236.562H158.461Z" fill="#FF6663"/>
<rect y="208" width="90" height="90" fill="#100E0E"/>
<path d="M27.0568 272H28.1136V268.097H32.767V272H33.8239V263.273H32.767V267.159H28.1136V263.273H27.0568V272ZM35.2824 264.21H38.0267V272H39.0835V264.21H41.8278V263.273H35.2824V264.21ZM43.2788 263.273V272H44.2675V265.369H44.3527L47.08 272H48.0345L50.7618 265.369H50.847V272H51.8357V263.273H50.5743L47.6084 270.517H47.5061L44.5402 263.273H43.2788ZM53.7746 272H58.8883V271.062H54.8314V263.273H53.7746V272Z" fill="white"/>
<g clip-path="url(#clip2_6_171)">
<path d="M29 227.188L31.3857 254.244L42.0908 257.812L52.8643 254.244L55.25 227.188H29ZM50.0684 235.931H37.5039L37.7842 239.308H49.7881L48.8584 249.452L42.166 251.298V251.318H42.0908L35.3438 249.452L34.9336 244.271H38.1943L38.4336 246.875L42.0908 247.866L45.7617 246.875L46.1719 242.623H34.7627L33.8877 232.67H50.3691L50.0684 235.931Z" fill="#FF6663"/>
</g>
<rect x="312" y="104" width="90" height="90" fill="#100E0E"/>
<path d="M344.415 170L345.293 167.528H348.821L349.699 170H350.807L347.602 161.273H346.511L343.307 170H344.415ZM345.625 166.591L347.023 162.653H347.091L348.489 166.591H345.625ZM352.892 170H353.983L355.909 163.045H355.977L357.903 170H358.994L361.38 161.273H360.307L358.483 168.381H358.397L356.539 161.273H355.346L353.488 168.381H353.403L351.579 161.273H350.505L352.892 170ZM367.29 163.455H368.313C368.266 162.138 367.051 161.153 365.364 161.153C363.693 161.153 362.381 162.125 362.381 163.591C362.381 164.767 363.233 165.466 364.597 165.858L365.671 166.165C366.591 166.42 367.409 166.744 367.409 167.614C367.409 168.568 366.489 169.199 365.278 169.199C364.239 169.199 363.318 168.739 363.233 167.75H362.142C362.244 169.182 363.403 170.153 365.278 170.153C367.29 170.153 368.432 169.045 368.432 167.631C368.432 165.994 366.881 165.466 365.977 165.227L365.091 164.989C364.443 164.818 363.403 164.477 363.403 163.54C363.403 162.705 364.171 162.091 365.33 162.091C366.386 162.091 367.188 162.594 367.29 163.455Z" fill="white"/>
<rect x="342" y="129" width="30" height="24" fill="#FF6663"/>
<g clip-path="url(#clip3_6_171)">
<path d="M350.457 139.516C350.423 140.578 350.954 141.048 350.967 141.347C350.96 141.407 350.94 141.466 350.906 141.517C350.873 141.568 350.828 141.61 350.775 141.64L350.175 142.06C350.097 142.115 350.005 142.146 349.911 142.15C349.89 142.15 349.527 142.236 348.951 140.95C348.599 141.389 348.152 141.741 347.643 141.981C347.135 142.22 346.578 142.339 346.016 142.33C345.253 142.372 343.185 141.897 343.291 139.696C343.216 137.901 344.887 136.787 346.616 136.881C346.949 136.882 347.628 136.898 348.818 137.175V136.443C348.945 135.202 348.129 134.24 346.718 134.384C346.605 134.385 345.809 134.361 344.569 134.858C344.224 135.017 344.18 134.99 344.065 134.99C343.718 134.99 343.861 133.983 343.927 133.856C344.172 133.556 345.608 132.996 347.018 133.004C347.961 132.92 348.899 133.211 349.629 133.814C349.926 134.146 350.152 134.534 350.294 134.956C350.437 135.378 350.492 135.824 350.457 136.268L350.457 139.516ZM346.406 141.034C347.926 141.012 348.57 140.098 348.716 139.606C348.832 139.135 348.812 138.837 348.812 138.322C348.359 138.213 347.707 138.094 346.958 138.093C346.248 138.04 344.951 138.357 345.001 139.606C344.943 140.393 345.523 141.078 346.406 141.034ZM354.418 142.115C354.049 142.149 353.878 141.887 353.823 141.629L351.489 133.911C351.443 133.78 351.413 133.646 351.399 133.509C351.39 133.452 351.404 133.394 351.438 133.348C351.472 133.302 351.523 133.271 351.58 133.263C351.591 133.261 351.48 133.263 352.623 133.263C353.034 133.221 353.168 133.545 353.211 133.749L354.885 140.35L356.44 133.749C356.465 133.598 356.578 133.23 357.04 133.269H357.844C357.946 133.26 358.365 133.245 358.439 133.755L360.005 140.44L361.733 133.755C361.756 133.653 361.861 133.222 362.328 133.269H363.252C363.292 133.263 363.54 133.231 363.498 133.671C363.478 133.758 363.658 133.171 361.026 141.635C360.972 141.893 360.8 142.155 360.431 142.121H359.555C359.042 142.175 358.969 141.668 358.961 141.617L357.406 135.189L355.87 141.61C355.862 141.662 355.789 142.168 355.275 142.114H354.418V142.115ZM367.237 142.379C366.961 142.379 365.647 142.365 364.548 141.803C364.439 141.756 364.346 141.679 364.28 141.579C364.215 141.48 364.181 141.363 364.182 141.244V140.74C364.182 140.344 364.473 140.417 364.596 140.464C365.067 140.655 365.369 140.799 365.947 140.914C367.665 141.267 368.42 140.807 368.605 140.704C369.222 140.338 369.27 139.501 368.851 139.066C368.36 138.654 368.126 138.639 366.361 138.082C366.143 138.021 364.312 137.444 364.308 135.627C364.28 134.304 365.482 132.994 367.567 133.005C368.161 133.004 369.743 133.198 370.172 133.737C370.235 133.835 370.267 133.95 370.262 134.067V134.541C370.262 134.749 370.186 134.853 370.034 134.853C369.672 134.813 369.031 134.329 367.729 134.349C367.406 134.332 365.859 134.392 365.929 135.52C365.909 136.408 367.176 136.742 367.321 136.78C369.03 137.294 369.601 137.38 370.28 138.167C371.083 139.21 370.65 140.431 370.484 140.765C369.589 142.523 367.276 142.38 367.237 142.379ZM369.121 147.294C365.839 149.718 361.073 151.009 357.005 151.009C351.515 151.045 346.21 149.026 342.133 145.35C341.827 145.074 342.097 144.695 342.469 144.906C346.991 147.493 352.112 148.852 357.322 148.849C361.213 148.828 365.062 148.039 368.647 146.526C369.199 146.292 369.667 146.892 369.121 147.294ZM370.49 145.734C370.07 145.194 367.711 145.481 366.655 145.608C366.337 145.644 366.283 145.368 366.571 145.164C368.449 143.843 371.534 144.221 371.888 144.665C372.242 145.109 371.792 148.2 370.034 149.677C369.764 149.905 369.506 149.785 369.626 149.485C370.021 148.488 370.91 146.274 370.49 145.734Z" fill="#100E0E"/>
</g>
<rect x="208" y="104" width="90" height="90" fill="#100E0E"/>
<path d="M251.023 164H252.114C251.79 162.312 250.375 161.153 248.534 161.153C246.297 161.153 244.716 162.875 244.716 165.636C244.716 168.398 246.284 170.119 248.602 170.119C250.682 170.119 252.165 168.734 252.165 166.574V165.636H248.841V166.574H251.142C251.112 168.142 250.081 169.131 248.602 169.131C246.983 169.131 245.739 167.903 245.739 165.636C245.739 163.369 246.983 162.142 248.534 162.142C249.795 162.142 250.652 162.854 251.023 164ZM254.069 170H255.074V163.455H254.069V170ZM254.58 162.364C254.972 162.364 255.296 162.057 255.296 161.682C255.296 161.307 254.972 161 254.58 161C254.188 161 253.864 161.307 253.864 161.682C253.864 162.057 254.188 162.364 254.58 162.364ZM259.583 163.455H258.185V161.886H257.179V163.455H256.191V164.307H257.179V168.398C257.179 169.54 258.1 170.085 258.952 170.085C259.327 170.085 259.566 170.017 259.702 169.966L259.498 169.062C259.412 169.08 259.276 169.114 259.054 169.114C258.611 169.114 258.185 168.977 258.185 168.125V164.307H259.583V163.455Z" fill="white"/>
<g clip-path="url(#clip4_6_171)">
<path d="M265.755 139.831L254.297 128.37C253.98 128.053 253.55 127.875 253.101 127.875C252.653 127.875 252.223 128.053 251.906 128.37L249.523 130.751L252.542 133.769C254.128 133.234 255.629 134.752 255.084 136.329L257.994 139.238C260 138.547 261.579 141.055 260.072 142.56C258.52 144.112 255.959 142.392 256.791 140.372L254.075 137.66V144.8C255.558 145.534 255.38 147.252 254.607 148.022C254.23 148.399 253.718 148.611 253.185 148.611C252.652 148.611 252.14 148.399 251.763 148.022C250.733 146.991 251.114 145.274 252.422 144.741V137.534C251.203 137.035 250.98 135.733 251.33 134.897L248.354 131.918L240.495 139.778C240.178 140.095 240 140.525 240 140.973C240 141.422 240.178 141.852 240.495 142.169L251.957 153.63C252.274 153.947 252.704 154.125 253.152 154.125C253.6 154.125 254.03 153.947 254.347 153.63L265.755 142.222C266.072 141.905 266.25 141.475 266.25 141.026C266.25 140.578 266.072 140.148 265.755 139.831Z" fill="#FF6663"/>
</g>
<rect x="104" y="104" width="90" height="90" fill="#100E0E"/>
<path d="M129.92 131.362H132.937V145.327C131.39 145.621 130.253 145.739 129.019 145.739C125.335 145.739 123.415 144.074 123.415 140.88C123.415 137.804 125.453 135.806 128.607 135.806C129.097 135.806 129.469 135.845 129.919 135.963L129.92 131.362ZM129.92 138.392C129.568 138.275 129.274 138.236 128.902 138.236C127.374 138.236 126.492 139.176 126.492 140.822C126.492 142.428 127.334 143.31 128.882 143.31C129.229 143.309 129.576 143.283 129.92 143.232V138.392ZM137.737 136.022V143.016C137.737 145.426 137.561 146.581 137.037 147.581C136.547 148.541 135.901 149.149 134.569 149.815L131.767 148.482C133.1 147.855 133.746 147.307 134.157 146.464C134.588 145.602 134.726 144.603 134.726 141.978V136.028L137.737 136.022ZM134.72 131.38H137.737V134.48H134.72V131.38ZM139.559 136.708C140.892 136.081 142.159 135.807 143.556 135.807C145.104 135.807 146.123 136.218 146.573 137.022C146.823 137.472 146.906 138.06 146.906 139.314V145.45C145.554 145.646 143.85 145.783 142.596 145.783C140.069 145.783 138.933 144.901 138.933 142.942C138.933 140.826 140.441 139.842 144.144 139.533V138.867C144.144 138.318 143.869 138.117 143.106 138.117C141.989 138.117 140.736 138.43 139.56 139.038V136.706L139.559 136.708ZM144.281 141.508C142.282 141.704 141.631 142.018 141.631 142.801C141.631 143.388 142.003 143.663 142.831 143.663C143.281 143.663 143.693 143.624 144.281 143.526V141.508ZM148.381 136.493C150.163 136.023 151.633 135.808 153.122 135.808C154.669 135.808 155.787 136.16 156.453 136.846C157.08 137.493 157.275 138.198 157.275 139.706V145.623H154.258V139.823C154.258 138.667 153.866 138.236 152.788 138.236C152.377 138.236 152.005 138.275 151.397 138.451V145.621H148.375L148.381 136.493ZM158.443 147.268C159.501 147.816 160.559 148.071 161.676 148.071C163.654 148.071 164.497 147.268 164.497 145.348V145.289C163.909 145.582 163.322 145.7 162.538 145.7C159.888 145.7 158.208 143.957 158.208 141.194C158.208 137.765 160.696 135.826 165.104 135.826C166.397 135.826 167.592 135.963 169.042 136.257L168.009 138.434C167.205 138.277 167.944 138.413 167.337 138.354V138.667L167.376 139.94L167.396 141.586C167.416 141.998 167.416 142.409 167.436 142.82V143.643C167.436 146.229 167.221 147.443 166.574 148.443C165.634 149.913 164.008 150.643 161.696 150.643C160.521 150.643 159.502 150.467 158.444 150.055V147.273L158.443 147.268ZM164.443 138.256H164.13C163.542 138.236 162.857 138.393 162.386 138.687C161.661 139.098 161.289 139.843 161.289 140.901C161.289 142.409 162.039 143.271 163.366 143.271C163.778 143.271 164.116 143.192 164.502 143.075V142.036C164.502 141.684 164.482 141.286 164.482 140.88L164.462 139.489L164.442 138.49V138.255L164.443 138.256ZM173.725 135.768C176.742 135.768 178.584 137.668 178.584 140.744C178.584 143.894 176.664 145.877 173.607 145.877C170.59 145.877 168.729 143.977 168.729 140.921C168.729 137.747 170.649 135.768 173.725 135.768L173.725 135.768ZM173.666 143.448C174.822 143.448 175.508 142.488 175.508 140.823C175.508 139.173 174.842 138.198 173.686 138.198C172.486 138.198 171.805 139.158 171.805 140.823C171.805 142.488 172.491 143.448 173.666 143.448Z" fill="#FF6663"/>
<path d="M132.75 168C135.409 168 136.909 166.347 136.909 163.619C136.909 160.909 135.409 159.273 132.869 159.273H130.057V168H132.75ZM131.114 167.062V160.21H132.801C134.847 160.21 135.886 161.506 135.886 163.619C135.886 165.75 134.847 167.062 132.682 167.062H131.114ZM138.365 161.455V168.477C138.365 169.142 138.093 169.517 137.479 169.517H137.292V170.455H137.496C138.757 170.455 139.371 169.688 139.371 168.477V161.455H138.365ZM138.86 160.364C139.252 160.364 139.576 160.057 139.576 159.682C139.576 159.307 139.252 159 138.86 159C138.468 159 138.144 159.307 138.144 159.682C138.144 160.057 138.468 160.364 138.86 160.364ZM142.959 168.153C144.101 168.153 144.698 167.54 144.902 167.114H144.954V168H145.959V163.688C145.959 161.608 144.374 161.369 143.539 161.369C142.55 161.369 141.425 161.71 140.914 162.903L141.868 163.244C142.09 162.767 142.614 162.256 143.573 162.256C144.498 162.256 144.954 162.746 144.954 163.585V163.619C144.954 164.105 144.459 164.062 143.266 164.216C142.052 164.374 140.726 164.642 140.726 166.142C140.726 167.42 141.715 168.153 142.959 168.153ZM143.113 167.25C142.312 167.25 141.732 166.892 141.732 166.193C141.732 165.426 142.431 165.188 143.215 165.085C143.641 165.034 144.783 164.915 144.954 164.71V165.631C144.954 166.449 144.306 167.25 143.113 167.25ZM148.621 164.062C148.621 162.92 149.328 162.273 150.291 162.273C151.224 162.273 151.791 162.882 151.791 163.909V168H152.797V163.841C152.797 162.17 151.906 161.369 150.581 161.369C149.592 161.369 148.978 161.812 148.672 162.477H148.586V161.455H147.615V168H148.621V164.062ZM157.096 170.591C158.665 170.591 159.926 169.875 159.926 168.188V161.455H158.954V162.494H158.852C158.63 162.153 158.221 161.369 156.943 161.369C155.29 161.369 154.148 162.682 154.148 164.693C154.148 166.739 155.341 167.898 156.926 167.898C158.204 167.898 158.613 167.148 158.835 166.79H158.92V168.119C158.92 169.21 158.153 169.705 157.096 169.705C155.907 169.705 155.49 169.078 155.221 168.716L154.42 169.278C154.829 169.964 155.635 170.591 157.096 170.591ZM157.062 166.994C155.801 166.994 155.153 166.04 155.153 164.676C155.153 163.347 155.784 162.273 157.062 162.273C158.29 162.273 158.937 163.261 158.937 164.676C158.937 166.125 158.273 166.994 157.062 166.994ZM164.246 168.136C166.019 168.136 167.212 166.79 167.212 164.761C167.212 162.716 166.019 161.369 164.246 161.369C162.473 161.369 161.28 162.716 161.28 164.761C161.28 166.79 162.473 168.136 164.246 168.136ZM164.246 167.233C162.899 167.233 162.286 166.074 162.286 164.761C162.286 163.449 162.899 162.273 164.246 162.273C165.593 162.273 166.206 163.449 166.206 164.761C166.206 166.074 165.593 167.233 164.246 167.233Z" fill="white"/>
<rect y="104" width="90" height="90" fill="#100E0E"/>
<path d="M37.7632 127.139C37.7632 125.12 38.317 124.022 41.3745 123.499C43.4503 123.143 46.1118 123.099 48.5945 123.499C50.5553 123.815 52.2057 125.243 52.2057 127.139V133.801C52.2057 135.754 50.6034 137.355 48.5945 137.355H41.3745C38.9241 137.355 36.859 139.397 36.859 141.707V144.903H34.3765C32.2766 144.903 31.054 143.422 30.5404 141.351C29.8476 138.568 29.877 136.91 30.5404 134.245C31.1155 131.92 32.9533 130.693 35.0534 130.693H44.9858V129.804H37.7631V127.139L37.7632 127.139Z" fill="#FF6663"/>
<path d="M52.2059 148.457C52.2059 150.476 50.4136 151.499 48.5946 152.009C45.8581 152.777 43.6618 152.66 41.3747 152.009C39.4646 151.465 37.7634 150.353 37.7634 148.457V141.796C37.7634 139.879 39.3979 138.242 41.3747 138.242H48.5946C50.9995 138.242 53.1101 136.21 53.1101 133.801V130.694H55.8173C57.9199 130.694 58.9098 132.221 59.4286 134.246C60.1508 137.057 60.1829 139.16 59.4286 141.351C58.6983 143.48 57.9172 144.903 55.8173 144.903H44.9859V145.792H52.2059V148.457V148.457Z" fill="#FF6663"/>
<path d="M39.5689 126.698C39.5689 125.96 40.1734 125.364 40.9226 125.364C41.6689 125.364 42.2763 125.96 42.2763 126.698C42.2763 127.433 41.6691 128.029 40.9226 128.029C40.1737 128.029 39.5689 127.433 39.5689 126.698ZM47.6928 148.899C47.6928 148.164 48.3001 147.568 49.0465 147.568C49.7954 147.568 50.4003 148.164 50.4003 148.899C50.4003 149.636 49.7957 150.233 49.0465 150.233C48.3002 150.233 47.6928 149.637 47.6928 148.899Z" fill="white"/>
<path d="M26.0568 168H27.1136V164.812H29.0227C31.0554 164.812 31.9716 163.577 31.9716 162.034C31.9716 160.491 31.0554 159.273 29.0057 159.273H26.0568V168ZM27.1136 163.875V160.21H28.9716C30.3906 160.21 30.9318 160.986 30.9318 162.034C30.9318 163.082 30.3906 163.875 28.9886 163.875H27.1136ZM34.0054 170.455C34.913 170.455 35.5522 169.973 35.9315 168.955L38.7184 161.472L37.619 161.455L35.8122 166.67H35.744L33.9372 161.455H32.8463L35.2667 168.034L35.0792 168.545C34.7128 169.543 34.2611 169.636 33.5281 169.449L33.2724 170.335C33.3747 170.386 33.6645 170.455 34.0054 170.455ZM42.7156 161.455H41.3179V159.886H40.3122V161.455H39.3236V162.307H40.3122V166.398C40.3122 167.54 41.2327 168.085 42.085 168.085C42.46 168.085 42.6986 168.017 42.835 167.966L42.6304 167.062C42.5452 167.08 42.4088 167.114 42.1872 167.114C41.744 167.114 41.3179 166.977 41.3179 166.125V162.307H42.7156V161.455ZM45.1947 164.062C45.1947 162.92 45.9234 162.273 46.9163 162.273C47.8623 162.273 48.4334 162.869 48.4334 163.909V168H49.439V163.841C49.439 162.158 48.5442 161.369 47.2061 161.369C46.1748 161.369 45.5868 161.8 45.28 162.477H45.1947V159.273H44.189V168H45.1947V164.062ZM53.758 168.136C55.5307 168.136 56.7239 166.79 56.7239 164.761C56.7239 162.716 55.5307 161.369 53.758 161.369C51.9853 161.369 50.7921 162.716 50.7921 164.761C50.7921 166.79 51.9853 168.136 53.758 168.136ZM53.758 167.233C52.4114 167.233 51.7978 166.074 51.7978 164.761C51.7978 163.449 52.4114 162.273 53.758 162.273C55.1046 162.273 55.7182 163.449 55.7182 164.761C55.7182 166.074 55.1046 167.233 53.758 167.233ZM59.0847 164.062C59.0847 162.92 59.7921 162.273 60.7552 162.273C61.6884 162.273 62.2552 162.882 62.2552 163.909V168H63.2609V163.841C63.2609 162.17 62.3702 161.369 61.045 161.369C60.0563 161.369 59.4427 161.812 59.1359 162.477H59.0506V161.455H58.079V168H59.0847V164.062Z" fill="white"/>
<rect x="312" width="90" height="90" fill="#100E0E"/>
<path d="M328.057 66H329.114V62.8125H331.023C333.055 62.8125 333.972 61.5767 333.972 60.0341C333.972 58.4915 333.055 57.2727 331.006 57.2727H328.057V66ZM329.114 61.875V58.2102H330.972C332.391 58.2102 332.932 58.9858 332.932 60.0341C332.932 61.0824 332.391 61.875 330.989 61.875H329.114ZM337.946 66.1364C339.719 66.1364 340.912 64.7898 340.912 62.7614C340.912 60.7159 339.719 59.3693 337.946 59.3693C336.174 59.3693 334.981 60.7159 334.981 62.7614C334.981 64.7898 336.174 66.1364 337.946 66.1364ZM337.946 65.233C336.6 65.233 335.986 64.0739 335.986 62.7614C335.986 61.4489 336.6 60.2727 337.946 60.2727C339.293 60.2727 339.907 61.4489 339.907 62.7614C339.907 64.0739 339.293 65.233 337.946 65.233ZM346.904 60.9205C346.589 59.9915 345.881 59.3693 344.586 59.3693C343.205 59.3693 342.182 60.1534 342.182 61.2614C342.182 62.1648 342.719 62.7699 343.921 63.0511L345.012 63.3068C345.672 63.4602 345.983 63.7756 345.983 64.2273C345.983 64.7898 345.387 65.25 344.449 65.25C343.627 65.25 343.111 64.8963 342.932 64.1932L341.978 64.4318C342.212 65.544 343.128 66.1364 344.466 66.1364C345.988 66.1364 347.023 65.3054 347.023 64.1761C347.023 63.2642 346.452 62.6889 345.285 62.4034L344.313 62.1648C343.537 61.973 343.188 61.7131 343.188 61.2102C343.188 60.6477 343.785 60.2386 344.586 60.2386C345.464 60.2386 345.826 60.7244 346 61.1761L346.904 60.9205ZM351.204 59.4545H349.806V57.8864H348.8V59.4545H347.812V60.3068H348.8V64.3977C348.8 65.5398 349.721 66.0852 350.573 66.0852C350.948 66.0852 351.187 66.017 351.323 65.9659L351.118 65.0625C351.033 65.0795 350.897 65.1136 350.675 65.1136C350.232 65.1136 349.806 64.9773 349.806 64.125V60.3068H351.204V59.4545ZM355.108 68.5909C356.676 68.5909 357.938 67.875 357.938 66.1875V59.4545H356.966V60.4943H356.864C356.642 60.1534 356.233 59.3693 354.955 59.3693C353.301 59.3693 352.159 60.6818 352.159 62.6932C352.159 64.7386 353.352 65.8977 354.938 65.8977C356.216 65.8977 356.625 65.1477 356.847 64.7898H356.932V66.1193C356.932 67.2102 356.165 67.7045 355.108 67.7045C353.919 67.7045 353.502 67.0781 353.233 66.7159L352.432 67.2784C352.841 67.9645 353.646 68.5909 355.108 68.5909ZM355.074 64.9943C353.813 64.9943 353.165 64.0398 353.165 62.6761C353.165 61.3466 353.796 60.2727 355.074 60.2727C356.301 60.2727 356.949 61.2614 356.949 62.6761C356.949 64.125 356.284 64.9943 355.074 64.9943ZM359.599 66H360.604V61.858C360.604 60.9716 361.303 60.3239 362.258 60.3239C362.526 60.3239 362.803 60.375 362.871 60.392V59.3693C362.756 59.3608 362.492 59.3523 362.343 59.3523C361.559 59.3523 360.877 59.7955 360.638 60.4432H360.57V59.4545H359.599V66ZM366.429 66.1364C367.758 66.1364 368.73 65.4716 369.036 64.483L368.065 64.2102C367.809 64.892 367.217 65.233 366.429 65.233C365.248 65.233 364.434 64.4702 364.387 63.0682H369.139V62.642C369.139 60.2045 367.69 59.3693 366.326 59.3693C364.554 59.3693 363.377 60.767 363.377 62.7784C363.377 64.7898 364.536 66.1364 366.429 66.1364ZM364.387 62.1989C364.456 61.1804 365.176 60.2727 366.326 60.2727C367.417 60.2727 368.116 61.0909 368.116 62.1989H364.387ZM375.398 59.4545H376.42C376.374 58.1378 375.159 57.1534 373.472 57.1534C371.801 57.1534 370.489 58.125 370.489 59.5909C370.489 60.767 371.341 61.4659 372.704 61.858L373.778 62.1648C374.699 62.4205 375.517 62.7443 375.517 63.6136C375.517 64.5682 374.597 65.1989 373.386 65.1989C372.347 65.1989 371.426 64.7386 371.341 63.75H370.25C370.352 65.1818 371.511 66.1534 373.386 66.1534C375.398 66.1534 376.54 65.0455 376.54 63.6307C376.54 61.9943 374.989 61.4659 374.085 61.2273L373.199 60.9886C372.551 60.8182 371.511 60.4773 371.511 59.5398C371.511 58.7045 372.278 58.0909 373.437 58.0909C374.494 58.0909 375.295 58.5938 375.398 59.4545ZM385.461 61.6364C385.461 58.875 383.842 57.1534 381.609 57.1534C379.376 57.1534 377.756 58.875 377.756 61.6364C377.756 64.3977 379.376 66.1193 381.609 66.1193C382.18 66.1193 382.708 66.0085 383.181 65.7955L383.944 66.8182H385.103L383.965 65.3054C384.894 64.5426 385.461 63.2727 385.461 61.6364ZM381.268 63.2727L382.563 64.9688C382.265 65.0753 381.945 65.1307 381.609 65.1307C380.023 65.1307 378.779 63.9034 378.779 61.6364C378.779 59.3693 380.023 58.142 381.609 58.142C383.194 58.142 384.438 59.3693 384.438 61.6364C384.438 62.9531 384.021 63.9162 383.356 64.4957L382.427 63.2727H381.268ZM387.058 66H392.172V65.0625H388.115V57.2727H387.058V66Z" fill="white"/>
<path d="M367.501 44.9765C367.692 43.4359 367.635 43.2111 368.818 43.4598L369.119 43.4859C370.03 43.5256 371.22 43.344 371.932 43.0295C373.438 42.3529 374.331 41.2222 372.846 41.5196C369.459 42.1962 369.213 41.0848 369.213 41.0848C372.791 35.9421 374.287 29.4144 372.995 27.8171C369.474 23.4577 363.379 25.5193 363.278 25.5738L363.245 25.5795C362.577 25.4433 361.838 25.3638 360.983 25.3525C359.45 25.3298 358.288 25.7418 357.404 26.3901C357.404 26.3901 346.533 22.0511 347.038 31.8472C347.145 33.9316 350.12 47.6273 353.67 43.4836C354.97 41.9692 356.224 40.6897 356.224 40.6897C356.845 41.0905 357.592 41.2948 358.373 41.221L358.434 41.1711C358.416 41.3673 358.424 41.565 358.459 41.7591C357.545 42.7491 357.814 42.9228 355.986 43.2872C354.137 43.6562 355.224 44.3135 355.932 44.486C356.792 44.6949 358.782 44.9901 360.128 43.1669L360.074 43.3746C360.432 43.6527 360.408 45.3727 360.46 46.601C360.513 47.8293 360.596 48.9771 360.855 49.6526C361.114 50.328 361.418 52.0707 363.82 51.5825C365.828 51.1659 367.363 50.5653 367.503 44.9867" fill="black"/>
<path d="M367.501 44.9765C367.692 43.4359 367.635 43.2111 368.818 43.4598L369.119 43.4859C370.03 43.5256 371.22 43.344 371.932 43.0295C373.438 42.3529 374.331 41.2222 372.846 41.5196C369.459 42.1962 369.213 41.0848 369.213 41.0848C372.791 35.9421 374.287 29.4144 372.995 27.8171C369.474 23.4577 363.379 25.5193 363.278 25.5738L363.245 25.5795C362.577 25.4433 361.838 25.3638 360.983 25.3525C359.45 25.3298 358.288 25.7418 357.404 26.3901C357.404 26.3901 346.533 22.0511 347.038 31.8472C347.145 33.9316 350.12 47.6273 353.67 43.4836C354.97 41.9692 356.224 40.6897 356.224 40.6897C356.845 41.0905 357.592 41.2948 358.373 41.221L358.434 41.1711C358.416 41.3673 358.424 41.565 358.459 41.7591C357.545 42.7491 357.814 42.9228 355.986 43.2872C354.137 43.6562 355.224 44.3135 355.932 44.486C356.792 44.6949 358.782 44.9901 360.128 43.1669L360.074 43.3746C360.432 43.6527 360.408 45.3727 360.46 46.601C360.513 47.8293 360.596 48.9771 360.855 49.6526C361.114 50.328 361.418 52.0707 363.82 51.5825C365.828 51.1659 367.363 50.5653 367.503 44.9867" stroke="black" stroke-width="5.3725"/>
<path d="M372.836 41.5299C369.449 42.2065 369.203 41.0951 369.203 41.0951C372.781 35.9524 374.277 29.4247 372.986 27.8274C369.465 23.468 363.37 25.5308 363.268 25.5841L363.236 25.5898C362.491 25.4451 361.734 25.3687 360.975 25.3616C359.442 25.3389 358.28 25.751 357.396 26.3993C357.396 26.3993 346.524 22.0603 347.03 31.8564C347.138 33.9407 350.112 47.6364 353.663 43.4928C354.97 41.9693 356.224 40.6898 356.224 40.6898C356.845 41.0906 357.592 41.2949 358.374 41.2211L358.434 41.1712C358.417 41.3674 358.425 41.5651 358.459 41.7592C357.545 42.7492 357.815 42.9229 355.986 43.2873C354.137 43.6562 355.225 44.3136 355.933 44.4861C356.793 44.695 358.783 44.9902 360.128 43.167L360.074 43.3747C360.433 43.6528 360.683 45.1832 360.641 46.5704C360.599 47.9577 360.571 48.9091 360.852 49.6538C361.133 50.3985 361.415 52.0719 363.817 51.5837C365.824 51.1671 366.864 50.0852 367.01 48.2847C367.113 47.0041 367.345 47.1926 367.362 46.0482L367.549 45.5056C367.764 43.7686 367.584 43.209 368.821 43.4701L369.122 43.4962C370.033 43.5359 371.224 43.3543 371.923 43.0398C373.429 42.3632 374.322 41.2325 372.837 41.5299H372.836Z" fill="#FF6663"/>
<path d="M363.266 25.5307C362.891 25.6443 369.318 23.2546 372.972 27.7763C374.261 29.3736 372.767 35.9013 369.189 41.044M360.271 42.5141C360.177 45.7451 360.294 48.9987 360.62 49.7798C360.946 50.5608 361.646 52.107 364.049 51.6098C366.057 51.1932 366.788 50.386 367.104 48.6048L367.846 42.9092L360.271 42.5141ZM357.391 26.3175C357.391 26.3175 346.511 22.0081 347.017 31.8042C347.125 33.8885 350.099 47.5842 353.65 43.4405C354.946 41.9272 356.118 40.7431 356.118 40.7431L357.391 26.3175Z" stroke="white" stroke-width="1.79" stroke-linecap="round" stroke-linejoin="round"/>
<path d="M369.19 41.0419C369.19 41.0419 369.425 42.1545 372.823 41.4756C374.308 41.1781 373.414 42.3089 371.909 42.9855C370.674 43.5417 367.903 43.6837 367.858 42.9174C367.741 40.9363 369.316 41.538 369.202 41.0419C369.099 40.5946 368.393 40.1564 367.929 39.062C367.523 38.1084 362.351 30.786 369.364 31.8725C369.621 31.8214 367.535 25.4015 360.973 25.3084C354.41 25.2153 354.618 33.1247 354.618 33.1247" stroke="white" stroke-width="1.79" stroke-linecap="round" stroke-linejoin="bevel"/>
<path d="M358.435 41.7205C357.521 42.7105 357.79 42.8842 355.962 43.2486C354.113 43.6175 355.2 44.2749 355.908 44.4474C356.768 44.6563 358.758 44.9515 360.103 43.1271C360.514 42.5708 360.101 41.6853 359.539 41.4606C359.267 41.3516 358.903 41.2154 358.437 41.7217L358.435 41.7205Z" stroke="white" stroke-width="1.79" stroke-linejoin="round"/>
<path d="M358.375 41.7035C358.281 41.1211 358.572 40.4298 358.882 39.6192C359.349 38.4045 360.425 37.1898 359.564 33.3333C358.923 30.4611 354.619 32.735 354.619 33.1244C354.619 33.5138 354.814 35.0998 354.549 36.9445C354.201 39.3536 356.131 41.3902 358.353 41.1825" stroke="white" stroke-width="1.79" stroke-linecap="round" stroke-linejoin="round"/>
<path d="M357.351 33.0663C357.331 33.1991 357.603 33.5545 357.955 33.6022C358.308 33.6498 358.609 33.3728 358.629 33.2389C358.649 33.1049 358.377 32.9596 358.025 32.9119C357.672 32.8642 357.368 32.9346 357.351 33.0663Z" fill="white" stroke="white" stroke-width="0.5975"/>
<path d="M368.09 32.7953C368.109 32.9281 367.838 33.2835 367.485 33.3312C367.132 33.3788 366.829 33.1018 366.811 32.9679C366.794 32.8339 367.063 32.6886 367.416 32.6409C367.769 32.5932 368.072 32.6636 368.09 32.7953Z" fill="white" stroke="white" stroke-width="0.2975"/>
<path d="M369.351 31.8745C369.409 32.9189 369.119 33.6285 369.081 34.7399C369.027 36.3542 369.876 38.2024 368.597 40.0529" stroke="white" stroke-width="1.79" stroke-linecap="round" stroke-linejoin="round"/>
<rect x="208" width="90" height="90" fill="#100E0E"/>
<path d="M231.057 64H236.392V63.0625H232.114V60.0966H236.051V59.1591H232.114V56.2102H236.324V55.2727H231.057V64ZM238.662 57.4545H237.503L239.583 60.7273L237.503 64H238.662L240.231 61.4602L241.799 64H242.958L240.844 60.7273L242.958 57.4545H241.799L240.231 60.1307L238.662 57.4545ZM244.213 66.4545H245.218V62.9943H245.304C245.525 63.3523 245.951 64.1364 247.213 64.1364C248.849 64.1364 249.991 62.8239 249.991 60.7443C249.991 58.6818 248.849 57.3693 247.196 57.3693C245.917 57.3693 245.525 58.1534 245.304 58.4943H245.184V57.4545H244.213V66.4545ZM245.201 60.7273C245.201 59.2614 245.849 58.2727 247.076 58.2727C248.355 58.2727 248.986 59.3466 248.986 60.7273C248.986 62.125 248.338 63.233 247.076 63.233C245.866 63.233 245.201 62.2102 245.201 60.7273ZM251.345 64H252.351V59.858C252.351 58.9716 253.05 58.3239 254.004 58.3239C254.273 58.3239 254.55 58.375 254.618 58.392V57.3693C254.503 57.3608 254.239 57.3523 254.09 57.3523C253.306 57.3523 252.624 57.7955 252.385 58.4432H252.317V57.4545H251.345V64ZM258.175 64.1364C259.505 64.1364 260.476 63.4716 260.783 62.483L259.812 62.2102C259.556 62.892 258.964 63.233 258.175 63.233C256.995 63.233 256.181 62.4702 256.134 61.0682H260.885V60.642C260.885 58.2045 259.437 57.3693 258.073 57.3693C256.3 57.3693 255.124 58.767 255.124 60.7784C255.124 62.7898 256.283 64.1364 258.175 64.1364ZM256.134 60.1989C256.202 59.1804 256.922 58.2727 258.073 58.2727C259.164 58.2727 259.863 59.0909 259.863 60.1989H256.134ZM266.872 58.9205C266.556 57.9915 265.849 57.3693 264.553 57.3693C263.173 57.3693 262.15 58.1534 262.15 59.2614C262.15 60.1648 262.687 60.7699 263.889 61.0511L264.98 61.3068C265.64 61.4602 265.951 61.7756 265.951 62.2273C265.951 62.7898 265.355 63.25 264.417 63.25C263.595 63.25 263.079 62.8963 262.9 62.1932L261.946 62.4318C262.18 63.544 263.096 64.1364 264.434 64.1364C265.955 64.1364 266.991 63.3054 266.991 62.1761C266.991 61.2642 266.42 60.6889 265.252 60.4034L264.281 60.1648C263.505 59.973 263.156 59.7131 263.156 59.2102C263.156 58.6477 263.752 58.2386 264.553 58.2386C265.431 58.2386 265.794 58.7244 265.968 59.1761L266.872 58.9205ZM272.961 58.9205C272.646 57.9915 271.938 57.3693 270.643 57.3693C269.262 57.3693 268.24 58.1534 268.24 59.2614C268.24 60.1648 268.777 60.7699 269.978 61.0511L271.069 61.3068C271.73 61.4602 272.041 61.7756 272.041 62.2273C272.041 62.7898 271.444 63.25 270.507 63.25C269.684 63.25 269.169 62.8963 268.99 62.1932L268.035 62.4318C268.269 63.544 269.186 64.1364 270.524 64.1364C272.045 64.1364 273.081 63.3054 273.081 62.1761C273.081 61.2642 272.509 60.6889 271.342 60.4034L270.37 60.1648C269.595 59.973 269.245 59.7131 269.245 59.2102C269.245 58.6477 269.842 58.2386 270.643 58.2386C271.521 58.2386 271.883 58.7244 272.058 59.1761L272.961 58.9205ZM274.414 57.4545V64.4773C274.414 65.142 274.142 65.517 273.528 65.517H273.34V66.4545H273.545C274.806 66.4545 275.42 65.6875 275.42 64.4773V57.4545H274.414ZM274.909 56.3636C275.301 56.3636 275.625 56.0568 275.625 55.6818C275.625 55.3068 275.301 55 274.909 55C274.517 55 274.193 55.3068 274.193 55.6818C274.193 56.0568 274.517 56.3636 274.909 56.3636ZM281.718 58.9205C281.403 57.9915 280.696 57.3693 279.4 57.3693C278.02 57.3693 276.997 58.1534 276.997 59.2614C276.997 60.1648 277.534 60.7699 278.735 61.0511L279.826 61.3068C280.487 61.4602 280.798 61.7756 280.798 62.2273C280.798 62.7898 280.201 63.25 279.264 63.25C278.441 63.25 277.926 62.8963 277.747 62.1932L276.792 62.4318C277.027 63.544 277.943 64.1364 279.281 64.1364C280.802 64.1364 281.838 63.3054 281.838 62.1761C281.838 61.2642 281.267 60.6889 280.099 60.4034L279.127 60.1648C278.352 59.973 278.002 59.7131 278.002 59.2102C278.002 58.6477 278.599 58.2386 279.4 58.2386C280.278 58.2386 280.64 58.7244 280.815 59.1761L281.718 58.9205Z" fill="white"/>
<path d="M270 47.2455C268.909 47.523 268.234 47.2577 267.628 46.3483L263.321 40.3895L262.699 39.5645L257.669 46.368C257.094 47.1864 256.492 47.5427 255.419 47.253L261.86 38.6073L255.863 30.798C256.895 30.5973 257.607 30.6995 258.24 31.623L262.707 37.6558L267.207 31.6558C267.784 30.8373 268.403 30.5261 269.438 30.828L267.113 33.9105L263.963 38.012C263.588 38.4808 263.64 38.8014 263.985 39.2542L270 47.2455ZM240.008 38.463L240.534 35.8717C241.969 30.7436 247.847 28.6127 251.901 31.7814C254.27 33.6452 254.858 36.2814 254.741 39.2345H241.388C241.187 44.5502 245.013 47.7583 249.891 46.1214C251.602 45.5467 252.609 44.207 253.114 42.5308C253.37 41.6908 253.793 41.5595 254.583 41.7995C254.18 43.8958 253.27 45.647 251.348 46.743C248.477 48.3836 244.378 47.853 242.222 45.573C240.937 44.2502 240.407 42.5739 240.169 40.7814C240.131 40.4852 240.056 40.203 240 39.9189C240.005 39.4339 240.008 38.9489 240.008 38.4639V38.463ZM241.412 38.1067H253.479C253.401 34.263 251.007 31.533 247.736 31.5095C244.146 31.4814 241.567 34.1467 241.412 38.1067Z" fill="#FF6663"/>
<rect x="104" width="90" height="90" fill="#100E0E"/>
<path d="M121.58 56.2102H124.324V64H125.381V56.2102H128.125V55.2727H121.58V56.2102ZM129.337 66.4545C130.245 66.4545 130.884 65.973 131.264 64.9545L134.05 57.4716L132.951 57.4545L131.144 62.6705H131.076L129.269 57.4545H128.178L130.599 64.0341L130.411 64.5455C130.045 65.5426 129.593 65.6364 128.86 65.4489L128.604 66.3352C128.707 66.3864 128.996 66.4545 129.337 66.4545ZM135.201 66.4545H136.207V62.9943H136.292C136.514 63.3523 136.94 64.1364 138.201 64.1364C139.837 64.1364 140.979 62.8239 140.979 60.7443C140.979 58.6818 139.837 57.3693 138.184 57.3693C136.906 57.3693 136.514 58.1534 136.292 58.4943H136.173V57.4545H135.201V66.4545ZM136.19 60.7273C136.19 59.2614 136.837 58.2727 138.065 58.2727C139.343 58.2727 139.974 59.3466 139.974 60.7273C139.974 62.125 139.326 63.233 138.065 63.233C136.854 63.233 136.19 62.2102 136.19 60.7273ZM145.078 64.1364C146.407 64.1364 147.379 63.4716 147.686 62.483L146.714 62.2102C146.459 62.892 145.866 63.233 145.078 63.233C143.897 63.233 143.084 62.4702 143.037 61.0682H147.788V60.642C147.788 58.2045 146.339 57.3693 144.976 57.3693C143.203 57.3693 142.027 58.767 142.027 60.7784C142.027 62.7898 143.186 64.1364 145.078 64.1364ZM143.037 60.1989C143.105 59.1804 143.825 58.2727 144.976 58.2727C146.067 58.2727 146.765 59.0909 146.765 60.1989H143.037ZM154.047 57.4545H155.07C155.023 56.1378 153.808 55.1534 152.121 55.1534C150.45 55.1534 149.138 56.125 149.138 57.5909C149.138 58.767 149.99 59.4659 151.354 59.858L152.428 60.1648C153.348 60.4205 154.166 60.7443 154.166 61.6136C154.166 62.5682 153.246 63.1989 152.036 63.1989C150.996 63.1989 150.075 62.7386 149.99 61.75H148.899C149.002 63.1818 150.161 64.1534 152.036 64.1534C154.047 64.1534 155.189 63.0455 155.189 61.6307C155.189 59.9943 153.638 59.4659 152.735 59.2273L151.848 58.9886C151.2 58.8182 150.161 58.4773 150.161 57.5398C150.161 56.7045 150.928 56.0909 152.087 56.0909C153.144 56.0909 153.945 56.5938 154.047 57.4545ZM159.269 64.1364C160.718 64.1364 161.673 63.25 161.843 62.0909H160.838C160.65 62.8068 160.053 63.233 159.269 63.233C158.076 63.233 157.309 62.2443 157.309 60.7273C157.309 59.2443 158.093 58.2727 159.269 58.2727C160.156 58.2727 160.684 58.8182 160.838 59.4148H161.843C161.673 58.1875 160.633 57.3693 159.252 57.3693C157.48 57.3693 156.303 58.767 156.303 60.7614C156.303 62.7216 157.428 64.1364 159.269 64.1364ZM163.133 64H164.139V59.858C164.139 58.9716 164.838 58.3239 165.793 58.3239C166.061 58.3239 166.338 58.375 166.406 58.392V57.3693C166.291 57.3608 166.027 57.3523 165.878 57.3523C165.094 57.3523 164.412 57.7955 164.173 58.4432H164.105V57.4545H163.133V64ZM167.418 64H168.424V57.4545H167.418V64ZM167.93 56.3636C168.322 56.3636 168.646 56.0568 168.646 55.6818C168.646 55.3068 168.322 55 167.93 55C167.538 55 167.214 55.3068 167.214 55.6818C167.214 56.0568 167.538 56.3636 167.93 56.3636ZM170.086 66.4545H171.092V62.9943H171.177C171.398 63.3523 171.825 64.1364 173.086 64.1364C174.722 64.1364 175.864 62.8239 175.864 60.7443C175.864 58.6818 174.722 57.3693 173.069 57.3693C171.79 57.3693 171.398 58.1534 171.177 58.4943H171.058V57.4545H170.086V66.4545ZM171.075 60.7273C171.075 59.2614 171.722 58.2727 172.95 58.2727C174.228 58.2727 174.859 59.3466 174.859 60.7273C174.859 62.125 174.211 63.233 172.95 63.233C171.739 63.233 171.075 62.2102 171.075 60.7273ZM180.065 57.4545H178.667V55.8864H177.662V57.4545H176.673V58.3068H177.662V62.3977C177.662 63.5398 178.582 64.0852 179.434 64.0852C179.809 64.0852 180.048 64.017 180.184 63.9659L179.98 63.0625C179.895 63.0795 179.758 63.1136 179.537 63.1136C179.093 63.1136 178.667 62.9773 178.667 62.125V58.3068H180.065V57.4545Z" fill="white"/>
<path d="M134 34.0005V49H164V19H134V34.0005ZM158.176 32.8052C158.938 32.9955 159.519 33.3339 160.052 33.8861C160.329 34.1814 160.738 34.7195 160.771 34.8479C160.781 34.8854 159.476 35.762 158.685 36.2527C158.657 36.2715 158.543 36.1482 158.414 35.9574C158.028 35.395 157.623 35.1526 157.004 35.11C156.095 35.0481 155.504 35.5243 155.514 36.3193C155.514 36.5527 155.546 36.6905 155.642 36.8818C155.842 37.2961 156.214 37.5436 157.38 38.0489C159.528 38.9723 160.447 39.5817 161.017 40.4489C161.655 41.4154 161.798 42.9585 161.365 44.1059C160.889 45.3537 159.708 46.2012 158.047 46.4824C157.532 46.5729 156.313 46.5588 155.761 46.459C154.556 46.2448 153.414 45.6495 152.709 44.8686C152.432 44.5639 151.894 43.7684 151.928 43.7108C151.942 43.692 152.066 43.6156 152.204 43.5345L153.318 42.8924L154.181 42.3922L154.362 42.6594C154.614 43.0452 155.167 43.5735 155.5 43.7497C156.457 44.2545 157.771 44.1828 158.419 43.602C158.695 43.3499 158.809 43.0878 158.809 42.7021C158.809 42.3543 158.767 42.2019 158.586 41.9404C158.352 41.6076 157.876 41.3263 156.523 40.7404C154.975 40.0739 154.309 39.6595 153.7 39.0023C153.347 38.6213 153.014 38.0119 152.876 37.5024C152.761 37.0787 152.733 36.0165 152.823 35.5881C153.142 34.0881 154.27 33.0499 155.899 32.7405C156.428 32.6407 157.657 32.6786 158.175 32.8071L158.176 32.8052ZM151.133 34.0567L151.143 35.2848H147.238V46.3798H144.476V35.2848H140.572V34.0802L140.604 32.8427C140.619 32.8239 142.995 32.8146 145.876 32.8193L151.119 32.8333L151.133 34.0567Z" fill="#FF6663"/>
<rect width="90" height="90" fill="#100E0E"/>
<g clip-path="url(#clip5_6_171)">
<path d="M54.1116 20.875H32.0134C30.3497 20.875 29 22.1348 29 23.6875V44.3125C29 45.8652 30.3497 47.125 32.0134 47.125H54.1116C55.7753 47.125 57.125 45.8652 57.125 44.3125V23.6875C57.125 22.1348 55.7753 20.875 54.1116 20.875ZM44.3055 41.3477C44.3055 43.9023 42.6984 45.0684 40.3567 45.0684C38.2411 45.0684 37.0169 44.0488 36.3891 42.8125L38.5424 41.5996C38.9568 42.2852 39.3334 42.8652 40.2437 42.8652C41.1101 42.8652 41.6625 42.5488 41.6625 41.3125V32.9277H44.3055V41.3477ZM50.5583 45.0684C48.1037 45.0684 46.5153 43.9785 45.7432 42.5488L47.8965 41.3887C48.4615 42.25 49.2023 42.8887 50.5018 42.8887C51.5942 42.8887 52.2973 42.3789 52.2973 41.6699C52.2973 40.8262 51.5816 40.5273 50.37 40.0293L49.7108 39.7656C47.8023 39.0098 46.5405 38.0547 46.5405 36.0449C46.5405 34.1934 48.0534 32.7871 50.4076 32.7871C52.0901 32.7871 53.2955 33.332 54.1618 34.7617L52.1027 35.9922C51.6507 35.2363 51.161 34.9375 50.4014 34.9375C49.6292 34.9375 49.1395 35.3945 49.1395 35.9922C49.1395 36.7305 49.6292 37.0293 50.7655 37.4922L51.4247 37.7559C53.6722 38.6523 54.934 39.5723 54.934 41.6348C54.934 43.8496 53.0632 45.0684 50.5583 45.0684Z" fill="#FF6663"/>
</g>
<path d="M19.3977 55.2727V61.5114C19.3977 62.598 18.8778 63.1818 17.9659 63.1818C17.1349 63.1818 16.5341 62.696 16.5341 61.9545H15.4943C15.4943 63.2969 16.5341 64.1193 17.9659 64.1193C19.483 64.1193 20.4545 63.1861 20.4545 61.5114V55.2727H19.3977ZM24.1822 64.1534C25.3243 64.1534 25.9209 63.5398 26.1254 63.1136H26.1765V64H27.1822V59.6875C27.1822 57.608 25.597 57.3693 24.7618 57.3693C23.7731 57.3693 22.6481 57.7102 22.1368 58.9034L23.0913 59.2443C23.3129 58.767 23.837 58.2557 24.7959 58.2557C25.7206 58.2557 26.1765 58.7457 26.1765 59.5852V59.6193C26.1765 60.1051 25.6822 60.0625 24.489 60.2159C23.2745 60.3736 21.9493 60.642 21.9493 62.142C21.9493 63.4205 22.9379 64.1534 24.1822 64.1534ZM24.3356 63.25C23.5345 63.25 22.9549 62.892 22.9549 62.1932C22.9549 61.4261 23.6538 61.1875 24.4379 61.0852C24.864 61.0341 26.0061 60.9148 26.1765 60.7102V61.6307C26.1765 62.4489 25.5288 63.25 24.3356 63.25ZM33.9557 57.4545H32.8648L31.058 62.6705H30.9898L29.183 57.4545H28.0921L30.5125 64H31.5352L33.9557 57.4545ZM36.83 64.1534C37.9721 64.1534 38.5687 63.5398 38.7732 63.1136H38.8243V64H39.83V59.6875C39.83 57.608 38.2448 57.3693 37.4096 57.3693C36.4209 57.3693 35.2959 57.7102 34.7846 58.9034L35.7391 59.2443C35.9607 58.767 36.4849 58.2557 37.4437 58.2557C38.3684 58.2557 38.8243 58.7457 38.8243 59.5852V59.6193C38.8243 60.1051 38.33 60.0625 37.1368 60.2159C35.9224 60.3736 34.5971 60.642 34.5971 62.142C34.5971 63.4205 35.5857 64.1534 36.83 64.1534ZM36.9834 63.25C36.1823 63.25 35.6028 62.892 35.6028 62.1932C35.6028 61.4261 36.3016 61.1875 37.0857 61.0852C37.5118 61.0341 38.6539 60.9148 38.8243 60.7102V61.6307C38.8243 62.4489 38.1766 63.25 36.9834 63.25ZM46.3947 57.4545H47.4174C47.3706 56.1378 46.1561 55.1534 44.4686 55.1534C42.7981 55.1534 41.4856 56.125 41.4856 57.5909C41.4856 58.767 42.3379 59.4659 43.7015 59.858L44.7754 60.1648C45.6958 60.4205 46.514 60.7443 46.514 61.6136C46.514 62.5682 45.5936 63.1989 44.3833 63.1989C43.3436 63.1989 42.4231 62.7386 42.3379 61.75H41.247C41.3492 63.1818 42.5083 64.1534 44.3833 64.1534C46.3947 64.1534 47.5367 63.0455 47.5367 61.6307C47.5367 59.9943 45.9856 59.4659 45.0822 59.2273L44.1958 58.9886C43.5481 58.8182 42.5083 58.4773 42.5083 57.5398C42.5083 56.7045 43.2754 56.0909 44.4345 56.0909C45.4913 56.0909 46.2924 56.5938 46.3947 57.4545ZM51.617 64.1364C53.0659 64.1364 54.0205 63.25 54.1909 62.0909H53.1852C52.9977 62.8068 52.4011 63.233 51.617 63.233C50.4239 63.233 49.6568 62.2443 49.6568 60.7273C49.6568 59.2443 50.4409 58.2727 51.617 58.2727C52.5034 58.2727 53.0318 58.8182 53.1852 59.4148H54.1909C54.0205 58.1875 52.9807 57.3693 51.6 57.3693C49.8273 57.3693 48.6511 58.767 48.6511 60.7614C48.6511 62.7216 49.7761 64.1364 51.617 64.1364ZM55.4811 64H56.4868V59.858C56.4868 58.9716 57.1856 58.3239 58.1402 58.3239C58.4086 58.3239 58.6856 58.375 58.7538 58.392V57.3693C58.6387 57.3608 58.3745 57.3523 58.2254 57.3523C57.4413 57.3523 56.7595 57.7955 56.5209 58.4432H56.4527V57.4545H55.4811V64ZM59.7659 64H60.7716V57.4545H59.7659V64ZM60.2773 56.3636C60.6693 56.3636 60.9932 56.0568 60.9932 55.6818C60.9932 55.3068 60.6693 55 60.2773 55C59.8852 55 59.5614 55.3068 59.5614 55.6818C59.5614 56.0568 59.8852 56.3636 60.2773 56.3636ZM62.4336 66.4545H63.4393V62.9943H63.5245C63.7461 63.3523 64.1722 64.1364 65.4336 64.1364C67.0699 64.1364 68.212 62.8239 68.212 60.7443C68.212 58.6818 67.0699 57.3693 65.4165 57.3693C64.1381 57.3693 63.7461 58.1534 63.5245 58.4943H63.4052V57.4545H62.4336V66.4545ZM63.4222 60.7273C63.4222 59.2614 64.0699 58.2727 65.2972 58.2727C66.5756 58.2727 67.2063 59.3466 67.2063 60.7273C67.2063 62.125 66.5586 63.233 65.2972 63.233C64.087 63.233 63.4222 62.2102 63.4222 60.7273ZM72.4127 57.4545H71.0149V55.8864H70.0093V57.4545H69.0206V58.3068H70.0093V62.3977C70.0093 63.5398 70.9297 64.0852 71.782 64.0852C72.157 64.0852 72.3956 64.017 72.532 63.9659L72.3274 63.0625C72.2422 63.0795 72.1059 63.1136 71.8843 63.1136C71.4411 63.1136 71.0149 62.9773 71.0149 62.125V58.3068H72.4127V57.4545Z" fill="white"/>
<defs>
<clipPath id="clip0_6_171">
<rect width="35" height="34.8633" fill="white" transform="translate(338 223)"/>
</clipPath>
<clipPath id="clip1_6_171">
<rect width="30" height="30" fill="white" transform="translate(237 225)"/>
</clipPath>
<clipPath id="clip2_6_171">
<rect width="26.25" height="35" fill="white" transform="translate(29 225)"/>
</clipPath>
<clipPath id="clip3_6_171">
<rect width="30" height="24" fill="white" transform="translate(342 130)"/>
</clipPath>
<clipPath id="clip4_6_171">
<rect width="26.25" height="30" fill="white" transform="translate(240 126)"/>
</clipPath>
<clipPath id="clip5_6_171">
<rect width="28.125" height="30" fill="white" transform="translate(29 19)"/>
</clipPath>
</defs>
</svg>
