<?xml version="1.0" encoding="utf-8"?>
<!-- Generator: Adobe Illustrator 24.1.0, SVG Export Plug-In . SVG Version: 6.00 Build 0)  -->
<svg version="1.1" xmlns="http://www.w3.org/2000/svg" xmlns:xlink="http://www.w3.org/1999/xlink" x="0px" y="0px"
	 viewBox="0 0 500 500" style="enable-background:new 0 0 500 500;" xml:space="preserve">
<style type="text/css">
	.st0{fill:#F5F5F5;}
	.st1{fill:#E0E0E0;}
	.st2{fill:#EBEBEB;}
	.st3{fill:#FAFAFA;}
	.st4{display:none;}
	.st5{display:inline;}
	.st6{fill:#455A64;}
	.st7{fill:#FFBE9D;}
	.st8{fill:#263238;}
	.st9{fill:#EB996E;}
	.st10{fill:#E8505B;}
	.st11{fill:#27DEBF;}
	.st12{opacity:0.3;}
	.st13{fill:#FFFFFF;}
	.st14{font-family:'MyriadPro-Regular';}
	.st15{font-size:12px;}
	.st16{fill:#137A66;}
	.st17{font-size:11.3996px;}
	.st18{opacity:0.4;}
</style>
<g id="Background_Complete">
	<g>
		<g>
			<g>
				<g>
					<g>
						<g>
							<path class="st0" d="M380.57,408.9c-15.55-10.87-19.08-31.03-18.46-49.16c0.1-3.03-0.23-6.22,1.21-8.87
								c1.44-2.65,4.8-4.47,7.51-3.19c2.25,1.06,3.23,3.67,4.48,5.83c1.67,2.88,4.16,5.26,7.1,6.78c1.93,1,4.31,1.61,6.21,0.56
								c2.61-1.44,2.92-5.05,2.9-8.06c-0.04-5.61-0.07-11.22-0.11-16.83c-0.02-3.01-0.03-6.08,0.91-8.94c0.94-2.86,3-5.51,5.87-6.31
								c2.86-0.8,6.4,0.85,7.01,3.79c0.25,1.23,0,2.5,0.09,3.75c0.08,1.25,0.67,2.63,1.85,2.98c1.2,0.35,2.41-0.5,3.31-1.38
								c3.11-3.04,5.21-6.95,7.18-10.85c1.97-3.89,3.88-7.88,6.7-11.19c2.82-3.31,6.72-5.94,11.03-6.19
								c4.31-0.24,8.9,2.42,9.99,6.65c1.09,4.24-1.38,8.55-4.08,11.98c-4,5.1-8.72,9.6-13.99,13.33c-0.95,0.67-1.98,1.4-2.34,2.52
								c-0.65,2.01,1.25,4,3.23,4.66c2.24,0.75,4.68,0.51,7.02,0.79c2.35,0.28,4.89,1.31,5.78,3.53c1.23,3.08-1.34,6.3-3.87,8.41
								c-5.07,4.23-10.86,7.57-17.03,9.83c-2.21,0.81-4.54,1.52-6.33,3.08c-1.79,1.56-2.86,4.26-1.78,6.38
								c1.08,2.12,3.85,2.8,6.17,2.37c2.32-0.43,4.39-1.69,6.6-2.52c4.14-1.56,9.48-1.28,12.13,2.3c1.74,2.35,1.89,5.62,1.01,8.42
								c-0.88,2.8-2.67,5.21-4.56,7.44c-6.63,7.78-15.12,14.04-24.71,17.37C398.99,411.49,390.1,412.39,380.57,408.9"/>
						</g>
					</g>
				</g>
			</g>
			<g>
				<g>
					<g>
						<g>
							<g>
								<path class="st1" d="M380.33,422.34c0.66-7.18,2.23-15.66,4.92-24.81c2.67-9.15,6.42-18.93,10.71-29.04
									c1.08-2.52,2.15-5.01,3.2-7.47c1.05-2.45,2.1-4.88,3.27-7.19c2.32-4.63,4.9-8.91,7.48-12.9c2.58-3.99,5.17-7.68,7.62-11.11
									c2.46-3.43,4.81-6.58,7.07-9.36c4.51-5.58,8.68-9.65,11.65-12.32c1.48-1.34,2.67-2.34,3.48-3.01
									c0.39-0.32,0.7-0.57,0.93-0.76c0.21-0.17,0.32-0.25,0.33-0.24c0.01,0.01-0.09,0.1-0.29,0.29c-0.22,0.2-0.52,0.46-0.89,0.8
									c-0.79,0.7-1.95,1.72-3.41,3.09c-2.92,2.72-7.03,6.81-11.5,12.41c-2.24,2.79-4.57,5.95-7,9.38
									c-2.43,3.44-5.01,7.14-7.57,11.12c-2.56,3.98-5.13,8.25-7.43,12.86c-1.16,2.3-2.19,4.71-3.25,7.16
									c-1.05,2.45-2.11,4.94-3.19,7.46c-4.28,10.09-8.04,19.85-10.73,28.96c-2.7,9.11-4.31,17.54-5.02,24.7"/>
							</g>
						</g>
					</g>
				</g>
			</g>
			<g>
				<g>
					<g>
						<g>
							<g>
								<path class="st1" d="M402.58,353.82c-0.04,0.01-0.14-0.45-0.29-1.28c-0.16-0.83-0.35-2.04-0.56-3.54
									c-0.43-3-0.87-7.16-1.35-11.74c-0.47-4.59-0.98-8.73-1.45-11.71c-0.23-1.49-0.43-2.7-0.58-3.53
									c-0.14-0.83-0.21-1.3-0.17-1.31c0.04-0.01,0.17,0.44,0.38,1.26c0.21,0.82,0.47,2.02,0.75,3.51
									c0.57,2.98,1.14,7.13,1.61,11.72c0.46,4.53,0.87,8.62,1.19,11.75c0.15,1.41,0.28,2.6,0.38,3.56
									C402.58,353.35,402.61,353.82,402.58,353.82z"/>
							</g>
						</g>
					</g>
				</g>
			</g>
			<g>
				<g>
					<g>
						<g>
							<g>
								<path class="st1" d="M441.27,346.59c0,0.04-0.55,0.1-1.54,0.18c-0.99,0.09-2.43,0.21-4.2,0.41
									c-3.54,0.38-8.42,1.08-13.77,2.09c-5.35,1.02-10.15,2.14-13.59,3.06c-1.73,0.45-3.12,0.84-4.08,1.11
									c-0.96,0.27-1.5,0.41-1.51,0.37c-0.01-0.04,0.5-0.24,1.45-0.58c0.94-0.33,2.32-0.79,4.04-1.29
									c3.43-1.02,8.23-2.21,13.6-3.23c5.36-1.01,10.27-1.65,13.83-1.93c1.78-0.16,3.23-0.22,4.23-0.24
									C440.72,346.54,441.27,346.55,441.27,346.59z"/>
							</g>
						</g>
					</g>
				</g>
			</g>
			<g>
				<g>
					<g>
						<g>
							<g>
								<path class="st1" d="M385.72,396.82c-0.02,0.01-0.11-0.15-0.27-0.47c-0.18-0.38-0.4-0.84-0.66-1.4
									c-0.57-1.22-1.35-3-2.28-5.22c-1.87-4.43-4.25-10.64-6.79-17.52c-2.54-6.88-4.87-13.1-6.64-17.57
									c-0.87-2.17-1.58-3.96-2.11-5.28c-0.23-0.58-0.41-1.05-0.57-1.44c-0.12-0.33-0.18-0.51-0.16-0.52
									c0.02-0.01,0.11,0.16,0.27,0.47c0.18,0.38,0.4,0.84,0.66,1.4c0.57,1.22,1.35,3,2.28,5.22c1.87,4.43,4.25,10.64,6.79,17.52
									c2.54,6.88,4.87,13.1,6.64,17.57c0.87,2.17,1.58,3.96,2.11,5.28c0.23,0.58,0.41,1.05,0.57,1.44
									C385.68,396.64,385.74,396.82,385.72,396.82z"/>
							</g>
						</g>
					</g>
				</g>
			</g>
			<g>
				<g>
					<g>
						<g>
							<g>
								<path class="st1" d="M437.14,380.25c0,0.02-0.17,0.09-0.51,0.21c-0.4,0.13-0.9,0.3-1.49,0.5c-1.38,0.45-3.24,1.05-5.51,1.78
									c-4.65,1.51-11.05,3.66-18.11,6.06c-7.07,2.39-13.49,4.49-18.17,5.9c-2.34,0.71-4.24,1.26-5.56,1.61
									c-0.61,0.16-1.11,0.29-1.52,0.4c-0.35,0.09-0.54,0.12-0.54,0.1c0-0.02,0.17-0.09,0.51-0.21c0.4-0.13,0.89-0.3,1.49-0.5
									c1.38-0.45,3.24-1.05,5.51-1.78c4.65-1.51,11.05-3.66,18.12-6.06c7.07-2.39,13.49-4.49,18.17-5.9
									c2.34-0.71,4.24-1.26,5.56-1.61c0.61-0.16,1.11-0.29,1.52-0.4C436.95,380.27,437.13,380.23,437.14,380.25z"/>
							</g>
						</g>
					</g>
				</g>
			</g>
		</g>
		<g>
			<g>
				<path class="st1" d="M462.4,332.46c-0.02-0.01-0.16-0.21-0.4-0.59c-0.27-0.44-0.6-0.97-1-1.61c-0.84-1.38-2.02-3.32-3.4-5.65
					l0.31,0.08c-2.33,1.36-5.05,2.94-7.95,4.63c-0.02,0.08,0.18-0.67,0.1-0.35l0,0l0,0l0,0.01l0.01,0.02l0.02,0.03l0.04,0.07
					l0.08,0.14l0.16,0.27l0.31,0.54c0.21,0.36,0.41,0.71,0.61,1.07c0.4,0.7,0.8,1.39,1.18,2.06c0.76,1.34,1.48,2.6,2.15,3.77
					l-0.31-0.08c2.36-1.34,4.35-2.43,5.77-3.2c0.66-0.35,1.21-0.65,1.67-0.9C462.15,332.56,462.37,332.45,462.4,332.46
					c0.02,0.01-0.15,0.13-0.51,0.35c-0.43,0.27-0.95,0.59-1.57,0.97c-1.37,0.84-3.36,2.05-5.78,3.47l-0.19,0.11l-0.11-0.2
					c-0.68-1.16-1.41-2.42-2.19-3.74c-0.39-0.67-0.79-1.35-1.19-2.06c-0.2-0.35-0.41-0.71-0.62-1.06l-0.31-0.54l-0.16-0.27
					l-0.08-0.14l-0.04-0.07l-0.02-0.03l-0.01-0.02l-0.01-0.01l0,0l0,0c-0.09,0.32,0.11-0.43,0.1-0.36c2.91-1.67,5.64-3.23,7.98-4.57
					l0.2-0.11l0.11,0.2c1.38,2.44,2.51,4.48,3.27,5.89c0.34,0.64,0.63,1.18,0.87,1.63C462.33,332.27,462.42,332.46,462.4,332.46z"/>
			</g>
		</g>
		<g>
			<g>
				<g>
					
						<rect x="151.31" y="64.53" transform="matrix(1 -5.355922e-03 5.355922e-03 1 -0.4722 0.8376)" class="st1" width="9.67" height="48.12"/>
				</g>
			</g>
			<g>
				<g>
					<g>
						
							<rect x="67.47" y="64.69" transform="matrix(1 -5.354263e-03 5.354263e-03 1 -0.4164 0.4294)" class="st2" width="25.05" height="26.57"/>
					</g>
				</g>
				<g>
					<g>
						
							<rect x="92.39" y="64.56" transform="matrix(1 -5.354286e-03 5.354286e-03 1 -0.4153 0.5629)" class="st0" width="25.05" height="26.57"/>
					</g>
				</g>
				<g>
					<g>
						<g>
							<path class="st1" d="M67.44,72.1c16.64,0.14,33.33,0.04,49.97-0.23c0.34-0.01,0.34-0.53,0-0.53
								c-16.64-0.09-33.33-0.01-49.97,0.31C67.14,71.65,67.14,72.1,67.44,72.1L67.44,72.1z"/>
						</g>
					</g>
				</g>
			</g>
			<g>
				<g>
					<g>
						
							<rect x="51.84" y="90.87" transform="matrix(1 -5.357835e-03 5.357835e-03 1 -0.5438 0.4011)" class="st2" width="45.5" height="21.65"/>
					</g>
				</g>
				<g>
					<g>
						
							<rect x="97.13" y="90.63" transform="matrix(1 -5.355626e-03 5.355626e-03 1 -0.5416 0.6435)" class="st0" width="45.5" height="21.65"/>
					</g>
				</g>
				<g>
					<g>
						<g>
							<path class="st1" d="M51.81,97.02c30.23,0.34,60.56,0.04,90.79-0.45c0.34-0.01,0.34-0.53,0-0.53
								c-30.23-0.16-60.57-0.14-90.79,0.52C51.52,96.57,51.52,97.01,51.81,97.02L51.81,97.02z"/>
						</g>
					</g>
				</g>
			</g>
			<g>
				<g>
					<rect x="34.8" y="112.65" class="st1" width="176.29" height="7.76"/>
				</g>
				<g>
					<rect x="63.66" y="116.38" class="st1" width="7.16" height="26.47"/>
				</g>
				<g>
					<rect x="170.49" y="116.38" class="st1" width="7.16" height="26.47"/>
				</g>
			</g>
			<g>
				<g>
					
						<rect x="160.8" y="46.58" transform="matrix(1 -5.355922e-03 5.355922e-03 1 -0.4244 0.8883)" class="st2" width="9.67" height="66.19"/>
				</g>
			</g>
			<g>
				<g>
					<g>
						
							<rect x="170.52" y="58.92" transform="matrix(1 -5.363388e-03 5.363388e-03 1 -0.4573 0.9561)" class="st0" width="15.03" height="53.64"/>
					</g>
				</g>
				<g>
					<g>
						<path class="st1" d="M185.3,69.21c0,0.14-3.36,0.26-7.51,0.26c-4.15,0-7.51-0.12-7.51-0.26c0-0.14,3.36-0.26,7.51-0.26
							C181.94,68.95,185.3,69.07,185.3,69.21z"/>
					</g>
				</g>
				<g>
					<g>
						<path class="st1" d="M185.3,66.96c0,0.14-3.36,0.26-7.51,0.26c-4.15,0-7.51-0.12-7.51-0.26c0-0.14,3.36-0.26,7.51-0.26
							C181.94,66.7,185.3,66.81,185.3,66.96z"/>
					</g>
				</g>
				<g>
					<g>
						<path class="st1" d="M185.3,104.44c0,0.14-3.36,0.26-7.51,0.26c-4.15,0-7.51-0.12-7.51-0.26s3.36-0.26,7.51-0.26
							C181.94,104.18,185.3,104.3,185.3,104.44z"/>
					</g>
				</g>
				<g>
					<g>
						<path class="st1" d="M185.3,102.19c0,0.14-3.36,0.26-7.51,0.26c-4.15,0-7.51-0.12-7.51-0.26c0-0.14,3.36-0.26,7.51-0.26
							C181.94,101.93,185.3,102.05,185.3,102.19z"/>
					</g>
				</g>
				<g>
					<g>
						<path class="st1" d="M178.03,97.28c-0.14,0-0.26-5.41-0.26-12.09c0-6.68,0.12-12.09,0.26-12.09s0.26,5.41,0.26,12.09
							C178.29,91.86,178.17,97.28,178.03,97.28z"/>
					</g>
				</g>
			</g>
			<g>
				<g>
					<rect x="185.46" y="72.05" class="st2" width="16.36" height="40.49"/>
				</g>
				<g>
					<path class="st3" d="M194.11,102.04c-2.15,0-3.66-1.53-3.66-3.64c0-1.14,0.44-2.14,1.32-2.73l0.37,0.51
						c-0.73,0.52-1.08,1.32-1.08,2.22c0,1.7,1.21,2.94,3.03,2.94s3.03-1.24,3.03-2.94c0-0.9-0.35-1.7-1.08-2.22l0.37-0.51
						c0.87,0.59,1.32,1.59,1.32,2.73C197.76,100.5,196.24,102.04,194.11,102.04z"/>
					<path class="st3" d="M196.84,94.66l-0.55-0.32c0.47-0.55,0.87-1.53,0.87-2.59c0-1.52-0.54-2.12-1.35-2.12
						c-2.1,0-0.55,4.77-3.38,4.77c-1.09,0-1.97-0.91-1.97-2.73c0-0.91,0.28-1.9,0.7-2.47l0.55,0.32c-0.44,0.61-0.65,1.39-0.65,2.17
						c0,1.41,0.58,2.03,1.35,2.03c2.17,0,0.63-4.77,3.38-4.77c1.17,0,1.97,1.01,1.97,2.84C197.76,92.96,197.36,94.09,196.84,94.66z"
						/>
					<path class="st3" d="M196.84,88.07l-0.55-0.32c0.47-0.55,0.87-1.53,0.87-2.59c0-1.52-0.54-2.12-1.35-2.12
						c-2.1,0-0.55,4.77-3.38,4.77c-1.09,0-1.97-0.91-1.97-2.73c0-0.91,0.28-1.9,0.7-2.47l0.55,0.32c-0.44,0.61-0.65,1.39-0.65,2.17
						c0,1.41,0.58,2.03,1.35,2.03c2.17,0,0.63-4.77,3.38-4.77c1.17,0,1.97,1.01,1.97,2.84C197.76,86.37,197.36,87.5,196.84,88.07z"
						/>
				</g>
			</g>
			<g>
				<circle class="st1" cx="165.31" cy="57.86" r="2.78"/>
			</g>
			<g>
				<rect x="164.45" y="65.5" class="st1" width="1.72" height="39.37"/>
			</g>
		</g>
		<g>
			<g>
				<g>
					<path class="st1" d="M383.48,297.23c-0.1-0.1,3.15-3.52,7.26-7.63c4.11-4.11,7.53-7.36,7.63-7.26c0.1,0.1-3.15,3.52-7.26,7.63
						C386.99,294.08,383.58,297.33,383.48,297.23z"/>
				</g>
			</g>
			<g>
				<g>
					<path class="st1" d="M398.37,297.23c-0.1,0.1-3.52-3.15-7.63-7.26c-4.11-4.11-7.36-7.53-7.26-7.63c0.1-0.1,3.52,3.15,7.63,7.26
						C395.22,293.71,398.47,297.13,398.37,297.23z"/>
				</g>
			</g>
		</g>
		<g>
			<g>
				<g>
					<path class="st1" d="M247.28,216.47c-0.1-0.1,3.15-3.52,7.26-7.63c4.11-4.11,7.53-7.36,7.63-7.26c0.1,0.1-3.15,3.52-7.26,7.63
						C250.79,213.32,247.38,216.57,247.28,216.47z"/>
				</g>
			</g>
			<g>
				<g>
					<path class="st1" d="M262.17,216.47c-0.1,0.1-3.52-3.15-7.63-7.26c-4.11-4.11-7.36-7.53-7.26-7.63c0.1-0.1,3.52,3.15,7.63,7.26
						C259.02,212.95,262.27,216.37,262.17,216.47z"/>
				</g>
			</g>
		</g>
		<g>
			<g>
				<g>
					<path class="st1" d="M226.86,86.14c-0.14,0.01-0.61-4.02-1.04-9c-0.43-4.99-0.67-9.04-0.53-9.05c0.14-0.01,0.61,4.02,1.04,9
						C226.77,82.07,227.01,86.12,226.86,86.14z"/>
				</g>
			</g>
			<g>
				<g>
					<path class="st1" d="M235.1,76.33c0.01,0.14-4.02,0.61-9,1.04c-4.99,0.43-9.04,0.67-9.05,0.53c-0.01-0.14,4.02-0.61,9-1.04
						C231.04,76.42,235.09,76.18,235.1,76.33z"/>
				</g>
			</g>
		</g>
		<g>
			<g>
				<path class="st1" d="M143.37,185.04c-0.01,0-0.08-0.1-0.19-0.28c-0.13-0.22-0.3-0.48-0.49-0.8c-0.45-0.74-1.05-1.75-1.8-3
					c-1.54-2.62-3.7-6.27-6.27-10.63l0.31,0.08c-4.32,2.5-9.39,5.45-14.81,8.59c-0.02,0.08,0.18-0.67,0.1-0.35l0,0l0,0.01l0.01,0.02
					l0.02,0.03l0.04,0.06l0.07,0.13l0.15,0.25l0.29,0.51l0.58,1.01c0.38,0.67,0.77,1.33,1.14,1.98c0.75,1.31,1.49,2.59,2.21,3.84
					c1.43,2.49,2.78,4.84,4.01,7.01l-0.31-0.08c4.41-2.49,8.1-4.57,10.74-6.07c1.28-0.71,2.31-1.28,3.06-1.7
					c0.33-0.18,0.6-0.33,0.83-0.45C143.25,185.09,143.36,185.04,143.37,185.04c0.02,0.01-0.32,0.23-1,0.64
					c-0.73,0.44-1.72,1.03-2.96,1.78c-2.65,1.56-6.34,3.74-10.75,6.34l-0.19,0.11l-0.11-0.2c-1.25-2.15-2.62-4.5-4.06-6.98
					c-0.72-1.24-1.46-2.52-2.22-3.83c-0.38-0.65-0.76-1.31-1.15-1.98l-0.58-1l-0.29-0.51l-0.15-0.25l-0.07-0.13l-0.04-0.06
					l-0.02-0.03l-0.01-0.02l0-0.01l0,0c-0.09,0.32,0.11-0.44,0.1-0.36c5.43-3.12,10.51-6.04,14.84-8.53l0.2-0.11l0.11,0.2
					c2.52,4.46,4.63,8.19,6.14,10.87c0.7,1.26,1.26,2.27,1.68,3.02C143.2,184.68,143.39,185.05,143.37,185.04z"/>
			</g>
		</g>
		<g>
			<g>
				<path class="st1" d="M470.9,281.33c-0.05,0.01-0.14-0.33-0.46-0.87c-0.32-0.53-0.93-1.25-1.96-1.65c-1-0.41-2.44-0.41-3.62,0.43
					c-1.18,0.79-1.93,2.46-1.5,4.06c0.4,1.61,1.88,2.7,3.29,2.81c1.43,0.15,2.7-0.55,3.37-1.4c0.7-0.85,0.88-1.79,0.9-2.4
					C470.95,281.68,470.86,281.34,470.9,281.33c0.02-0.01,0.18,0.32,0.23,0.98c0.04,0.64-0.09,1.66-0.81,2.63
					c-0.69,0.96-2.08,1.79-3.7,1.65c-1.6-0.1-3.29-1.32-3.75-3.16c-0.49-1.83,0.39-3.72,1.73-4.59c1.34-0.92,2.96-0.87,4.03-0.37
					c1.1,0.49,1.72,1.31,1.99,1.9C470.91,280.95,470.93,281.32,470.9,281.33z"/>
			</g>
		</g>
		<g>
			<g>
				<path class="st1" d="M283.98,43.32c-0.05,0.01-0.14-0.33-0.46-0.87c-0.32-0.53-0.93-1.25-1.96-1.65c-1-0.41-2.44-0.41-3.62,0.43
					c-1.18,0.79-1.93,2.46-1.5,4.06c0.4,1.61,1.88,2.7,3.29,2.81c1.43,0.15,2.7-0.55,3.37-1.4c0.7-0.85,0.88-1.79,0.9-2.4
					C284.02,43.67,283.93,43.33,283.98,43.32c0.02-0.01,0.18,0.32,0.23,0.98c0.04,0.64-0.09,1.66-0.81,2.63
					c-0.69,0.96-2.08,1.79-3.7,1.65c-1.6-0.1-3.29-1.32-3.75-3.16c-0.49-1.83,0.39-3.72,1.73-4.59c1.34-0.92,2.96-0.87,4.03-0.37
					c1.1,0.49,1.72,1.31,1.99,1.9C283.98,42.94,284,43.31,283.98,43.32z"/>
			</g>
		</g>
		<g>
			<g>
				<path class="st1" d="M98.02,157.77c-0.05,0.01-0.14-0.33-0.46-0.87c-0.32-0.53-0.93-1.25-1.96-1.65c-1-0.41-2.44-0.41-3.62,0.43
					c-1.18,0.79-1.93,2.46-1.5,4.06c0.4,1.61,1.88,2.7,3.29,2.81c1.43,0.15,2.7-0.55,3.37-1.4c0.7-0.85,0.88-1.79,0.9-2.4
					C98.07,158.13,97.97,157.78,98.02,157.77c0.02-0.01,0.18,0.32,0.23,0.98c0.04,0.64-0.09,1.66-0.81,2.63
					c-0.69,0.96-2.08,1.79-3.7,1.65c-1.6-0.1-3.29-1.32-3.75-3.16c-0.49-1.83,0.39-3.72,1.73-4.59c1.34-0.92,2.96-0.87,4.03-0.37
					c1.1,0.49,1.72,1.31,1.99,1.9C98.02,157.4,98.04,157.76,98.02,157.77z"/>
			</g>
		</g>
		<g>
			<g>
				<path class="st1" d="M453.72,141.78c-0.06,0.02-0.21-0.73-0.88-1.91c-0.65-1.15-1.96-2.74-4.18-3.65
					c-1.1-0.44-2.41-0.72-3.8-0.6c-1.38,0.12-2.86,0.56-4.14,1.47c-0.65,0.44-1.24,0.99-1.75,1.63c-0.52,0.63-0.95,1.36-1.25,2.15
					c-0.64,1.57-0.76,3.41-0.32,5.15c0.47,1.74,1.47,3.28,2.8,4.34c0.65,0.54,1.38,0.97,2.14,1.27c0.76,0.31,1.54,0.51,2.32,0.57
					c1.56,0.17,3.06-0.17,4.33-0.73c1.27-0.58,2.28-1.46,3.02-2.38c1.5-1.88,1.86-3.91,1.87-5.23
					C453.89,142.52,453.65,141.79,453.72,141.78c0.02,0,0.07,0.18,0.16,0.52c0.1,0.35,0.19,0.88,0.21,1.56
					c0.06,1.35-0.25,3.47-1.78,5.46c-0.76,0.98-1.8,1.92-3.13,2.54c-1.32,0.61-2.91,0.99-4.56,0.82c-0.82-0.06-1.66-0.26-2.46-0.59
					c-0.81-0.31-1.58-0.76-2.28-1.33c-1.42-1.12-2.48-2.76-2.98-4.61c-0.47-1.85-0.34-3.81,0.35-5.47c0.33-0.84,0.78-1.61,1.34-2.28
					c0.54-0.67,1.17-1.26,1.86-1.71c1.36-0.95,2.92-1.4,4.38-1.51c1.47-0.11,2.83,0.21,3.97,0.69c2.3,1,3.61,2.69,4.22,3.9
					c0.32,0.61,0.5,1.12,0.58,1.47C453.69,141.59,453.73,141.78,453.72,141.78z"/>
			</g>
		</g>
		<g>
			<g>
				<path class="st1" d="M426.78,268.37c0,0.03-0.18-0.3-0.52-0.93c-0.38-0.71-0.88-1.63-1.48-2.75c-1.28-2.37-3.11-5.78-5.19-9.79
					l-0.2-0.39l0.43,0.03c2.3,0.14,4.81,0.3,7.42,0.46c2.71,0.18,5.31,0.35,7.69,0.51l0.42,0.03l-0.23,0.35
					c-2.42,3.73-4.54,6.89-6.01,9.08c-0.7,1.04-1.27,1.89-1.71,2.54C426.99,268.1,426.78,268.4,426.78,268.37
					c0-0.03,0.21-0.38,0.6-1.01c0.42-0.69,0.97-1.58,1.65-2.67c1.4-2.27,3.35-5.41,5.68-9.05l0.19,0.38
					c-2.38-0.15-4.98-0.31-7.69-0.48c-2.61-0.17-5.11-0.34-7.42-0.49l0.23-0.36c1.99,3.91,3.65,7.29,4.84,9.73
					c0.57,1.17,1.04,2.13,1.41,2.88C426.6,267.96,426.78,268.35,426.78,268.37z"/>
			</g>
		</g>
		<g>
			<g>
				<path class="st1" d="M357.05,79.54c0,0.03-0.18-0.3-0.52-0.93c-0.38-0.71-0.88-1.63-1.48-2.75c-1.28-2.37-3.11-5.78-5.19-9.79
					l-0.2-0.39l0.43,0.03c2.3,0.14,4.81,0.3,7.42,0.46c2.71,0.18,5.31,0.35,7.69,0.51l0.42,0.03l-0.23,0.35
					c-2.42,3.73-4.54,6.89-6.01,9.08c-0.7,1.04-1.27,1.89-1.71,2.54C357.26,79.27,357.05,79.57,357.05,79.54
					c0-0.03,0.21-0.38,0.6-1.01c0.42-0.69,0.98-1.58,1.65-2.67c1.4-2.27,3.35-5.41,5.68-9.05l0.19,0.38
					c-2.38-0.15-4.98-0.31-7.69-0.48c-2.61-0.17-5.11-0.34-7.42-0.49l0.23-0.36c1.99,3.91,3.65,7.29,4.84,9.73
					c0.57,1.17,1.04,2.13,1.41,2.88C356.87,79.13,357.05,79.51,357.05,79.54z"/>
			</g>
		</g>
		<g>
			<g>
				<path class="st1" d="M236.1,302.58c-0.02,0.01,0.18-0.3,0.57-0.9c0.44-0.67,1.01-1.54,1.71-2.6c1.48-2.24,3.61-5.48,6.16-9.23
					l0.2-0.3l0.2,0.3c1.47,2.18,3.08,4.56,4.77,7.05c1.3,1.94,2.55,3.8,3.71,5.54l0.26,0.39l-0.47,0
					c-5.02-0.01-9.36-0.09-12.39-0.14c-1.44-0.03-2.62-0.05-3.52-0.07C236.5,302.61,236.07,302.59,236.1,302.58
					c0.03-0.01,0.5-0.03,1.35-0.04c0.92-0.02,2.13-0.04,3.6-0.07c3.05-0.05,7.27-0.13,12.16-0.14l-0.21,0.39
					c-1.17-1.73-2.43-3.59-3.73-5.53c-1.67-2.5-3.27-4.89-4.74-7.07l0.4,0c-2.51,3.62-4.69,6.68-6.27,8.89
					c-0.76,1.06-1.38,1.93-1.86,2.6C236.37,302.23,236.12,302.57,236.1,302.58z"/>
			</g>
		</g>
	</g>
</g>
<g id="Background_Simple" class="st4">
	<g class="st5">
		<path class="st2" d="M452.33,152.76l-1.36-4.04c-11.48-34.04-40.48-59.63-75.93-65.48c-4.56-0.75-9.17-1.18-13.79-1.26
			c-33.31-0.58-66.4,16.79-84.84,44.53c-10.84,16.32-17.45,36.46-33.5,47.7c-20.88,14.63-49.27,8.72-73.94,2.25
			c-24.67-6.47-53.09-12.32-73.91,2.41c-13.04,9.22-20.13,24.97-22.86,40.7c-7.24,41.66,13.34,85.12,46.07,111.9
			c32.73,26.77,75.83,38.4,118.09,39.64c59.21,1.74,120.16-16.84,163.51-57.2C443.21,273.54,466.36,210.3,452.33,152.76z"/>
	</g>
</g>
<g id="Character">
	<g>
		<g>
			<path class="st6" d="M392.33,432.62H267.11v-72.6c0-34.58,28.03-62.61,62.61-62.61h0c34.58,0,62.61,28.03,62.61,62.61V432.62z"/>
		</g>
		<g>
			<g>
				<g>
					<path class="st7" d="M171.18,397.4l-6.3,4.45l-7.01,16.82c0,0,1.9,1.27,3.37-0.08c1.47-1.35,7.09-11.14,7.09-11.14l0.04,5.78
						c0.02,2.35,1.78,4.31,4.11,4.59l10.38,3.24l12.74-3.63l1.09-15.16L171.18,397.4z"/>
				</g>
			</g>
			<g>
				<g>
					<path class="st8" d="M284.37,285.63c-3.12-0.9-4.65-4.47-4.93-7.71c-0.28-3.23,0.25-6.56-0.63-9.69
						c-0.63-2.22-1.95-4.26-2.12-6.56c-0.18-2.48,1.01-4.87,1.08-7.36c0.09-3.47-1.99-6.69-2.05-10.16
						c-0.07-4.8,0.79-12.73,5.58-12.46c4.79,0.27,12.49,8.68,11.89,13.44"/>
				</g>
				<g>
					<g>
						<g>
							<g>
								<g>
									<path class="st7" d="M329.72,245.89l-0.09,4.79l-0.96,71.76c-0.11,8.33-7.36,14.87-16.28,14.68h0
										c-9.01-0.19-16.32-7.16-16.35-15.58c-0.03-8.84-0.22-18.14-0.22-18.14s-11.38-1.89-13.74-16.74
										c-1.17-7.38-0.8-19.49-0.18-29.39c0.56-8.91,8.42-15.56,17.3-14.62L329.72,245.89z"/>
								</g>
							</g>
							<g>
								<g>
									<g>
										<path class="st8" d="M284.93,265.71c-0.04,1.01,0.79,1.87,1.84,1.92c1.05,0.06,1.93-0.71,1.96-1.72
											c0.04-1.01-0.79-1.87-1.83-1.92C285.85,263.94,284.97,264.71,284.93,265.71z"/>
									</g>
								</g>
								<g>
									<g>
										<g>
											<path class="st8" d="M284.52,263.58c0.24,0.25,1.68-0.82,3.73-0.81c2.05-0.02,3.55,1.03,3.77,0.78
												c0.11-0.11-0.13-0.56-0.79-1.04c-0.64-0.47-1.74-0.94-3.02-0.93c-1.28,0.01-2.35,0.48-2.97,0.96
												C284.62,263.02,284.4,263.47,284.52,263.58z"/>
										</g>
									</g>
								</g>
							</g>
							<g>
								<g>
									<g>
										<path class="st8" d="M305.45,265.71c-0.04,1.01,0.79,1.87,1.84,1.92c1.05,0.06,1.93-0.71,1.96-1.72
											c0.04-1.01-0.79-1.87-1.83-1.92C306.36,263.94,305.48,264.71,305.45,265.71z"/>
									</g>
								</g>
								<g>
									<g>
										<g>
											<path class="st8" d="M304.66,263.96c0.24,0.25,1.68-0.82,3.73-0.81c2.05-0.02,3.55,1.03,3.77,0.78
												c0.11-0.11-0.13-0.56-0.79-1.04c-0.64-0.47-1.74-0.94-3.02-0.93c-1.28,0.01-2.35,0.48-2.97,0.96
												C304.76,263.4,304.55,263.85,304.66,263.96z"/>
										</g>
									</g>
								</g>
							</g>
							<g>
								<g>
									<g>
										<path class="st8" d="M297.23,279.16c0.01-0.12-1.26-0.34-3.33-0.6c-0.52-0.05-1.02-0.16-1.11-0.52
											c-0.12-0.38,0.1-0.94,0.35-1.55c0.49-1.27,1.01-2.59,1.55-3.98c2.15-5.67,3.7-10.34,3.48-10.42
											c-0.23-0.08-2.16,4.45-4.31,10.12c-0.52,1.4-1.01,2.73-1.48,4.01c-0.2,0.59-0.54,1.27-0.27,2.05
											c0.14,0.39,0.53,0.67,0.86,0.77c0.34,0.1,0.63,0.11,0.89,0.12C295.93,279.27,297.22,279.28,297.23,279.16z"/>
									</g>
								</g>
							</g>
							<g>
								<g>
									<path class="st9" d="M295.81,303.41c0,0,9.99,0.64,19.89-5.31c0,0-4.82,10.2-19.69,8.81L295.81,303.41z"/>
								</g>
							</g>
							<g>
								<g>
									<path class="st9" d="M298.09,284.1c0.74-0.97,2.03-1.51,3.31-1.37c0.89,0.1,1.79,0.52,2.33,1.25
										c0.54,0.72,0.65,1.75,0.16,2.44c-0.55,0.78-1.71,0.96-2.69,0.68c-0.98-0.28-1.82-0.92-2.62-1.56
										c-0.22-0.18-0.45-0.36-0.59-0.61c-0.14-0.24-0.17-0.56,0-0.76"/>
								</g>
							</g>
							<g>
								<g>
									<g>
										<path class="st8" d="M303.26,280.58c-0.33-0.02-0.34,2.21-2.24,3.78c-1.9,1.58-4.27,1.33-4.29,1.65
											c-0.03,0.14,0.53,0.43,1.53,0.46c0.98,0.03,2.42-0.28,3.58-1.25c1.16-0.97,1.66-2.26,1.74-3.17
											C303.66,281.12,303.41,280.57,303.26,280.58z"/>
									</g>
								</g>
							</g>
						</g>
					</g>
				</g>
				<g>
					<g>
						<path class="st8" d="M304.13,255.93c0.2,0.56,2.25,0.29,4.65,0.58c2.41,0.24,4.35,0.95,4.67,0.45c0.14-0.24-0.2-0.76-0.98-1.3
							c-0.78-0.54-2.02-1.05-3.46-1.21c-1.44-0.16-2.76,0.07-3.64,0.43C304.49,255.23,304.05,255.67,304.13,255.93z"/>
					</g>
				</g>
				<g>
					<g>
						<path class="st8" d="M285.27,257.65c0.36,0.47,1.77-0.02,3.47-0.04c1.7-0.08,3.14,0.31,3.47-0.17
							c0.14-0.24-0.08-0.7-0.71-1.14c-0.62-0.44-1.65-0.8-2.82-0.76c-1.17,0.04-2.18,0.46-2.77,0.94
							C285.31,256.94,285.11,257.42,285.27,257.65z"/>
					</g>
				</g>
				<g>
					<path class="st8" d="M335.19,241.33c3.09-8.39,15.95-21.04,25.84-15.4c10.83,6.17,6.98,10.44,10.91,13.28
						c0.94,0.68,5.33-0.78,5.94,0.2c1.61,2.59,0.25,5.93-1.13,8.66c0.31-0.04,0.64-0.14,0.98-0.26c1.22-0.45,2.54,0.46,2.47,1.75
						c-0.19,3.28-1.42,6.77-3.35,9.19c0.68,0.16,1.38,0.18,2.07,0.07c0.95-0.16,1.72,0.77,1.41,1.69c-1.09,3.16-4.11,5.65-7.46,6.34
						c-4.13,0.86-8.49-0.64-11.86-3.18c-3.37-2.54-5.9-6.02-8.19-9.56c-1.33-2.06-2.64-4.21-4.62-5.66s-4.83-2-6.86-0.63"/>
				</g>
				<g>
					<g>
						<path class="st10" d="M341.35,247.48c-0.04-0.02,0-0.15-0.02-0.38c-0.02-0.23-0.1-0.57-0.25-0.98
							c-0.29-0.82-0.88-1.91-1.61-3.04c-0.74-1.13-1.5-2.09-2.11-2.73c-0.6-0.64-1.05-0.97-1.01-1.04c0.03-0.05,0.57,0.17,1.26,0.77
							c0.7,0.6,1.53,1.55,2.29,2.72c0.75,1.17,1.3,2.32,1.52,3.22c0.12,0.45,0.15,0.83,0.1,1.1
							C341.49,247.37,341.37,247.5,341.35,247.48z"/>
					</g>
				</g>
				<g>
					<g>
						<path class="st8" d="M366.46,270.5c0.01,0.02-0.11,0.11-0.36,0.27c-0.24,0.18-0.62,0.38-1.14,0.61
							c-1.02,0.45-2.67,0.83-4.68,0.62c-1.98-0.23-4.4-1.13-6.2-3.18c-0.89-1.02-1.55-2.3-1.97-3.69c-0.42-1.39-0.63-2.89-0.73-4.41
							c-0.19-3.04-0.07-5.93-0.61-8.47c-0.26-1.27-0.67-2.43-1.23-3.43c-0.57-0.98-1.3-1.78-2.08-2.36
							c-1.55-1.19-3.19-1.51-4.26-1.44c-1.09,0.09-1.64,0.41-1.66,0.36c-0.01-0.02,0.13-0.09,0.39-0.22
							c0.27-0.12,0.69-0.26,1.25-0.34c1.11-0.14,2.85,0.13,4.5,1.35c0.83,0.59,1.61,1.41,2.23,2.44c0.6,1.03,1.04,2.24,1.33,3.54
							c0.58,2.61,0.48,5.54,0.66,8.54c0.1,1.5,0.3,2.95,0.7,4.3c0.4,1.34,1.02,2.57,1.85,3.53c1.68,1.95,3.98,2.86,5.89,3.13
							c1.94,0.26,3.54-0.06,4.56-0.44C365.92,270.81,366.43,270.45,366.46,270.5z"/>
					</g>
				</g>
				<g>
					<g>
						<path class="st8" d="M376.44,230.13c0.01-0.01,0.13,0.18,0.29,0.56c0.15,0.39,0.34,0.98,0.38,1.78
							c0.04,0.79-0.05,1.79-0.48,2.84c-0.42,1.05-1.2,2.17-2.44,2.93c-1.23,0.75-2.89,1.06-4.56,0.73
							c-1.65-0.32-3.37-1.38-4.27-3.09c-0.98-1.65-1.33-3.64-1.72-5.59c-0.39-1.95-0.77-4.06-2.1-5.65
							c-0.65-0.78-1.54-1.34-2.5-1.58c-0.96-0.27-1.97-0.22-2.93-0.05c-1.93,0.37-3.67,1.27-5.22,2.23
							c-3.14,1.92-5.73,4.02-7.75,5.93c-2.03,1.91-3.5,3.63-4.49,4.83c-0.46,0.58-0.83,1.04-1.12,1.41
							c-0.25,0.32-0.4,0.49-0.41,0.48c-0.01-0.01,0.1-0.2,0.32-0.54c0.22-0.35,0.58-0.84,1.04-1.47c0.94-1.25,2.39-3.01,4.4-4.97
							c2.01-1.96,4.6-4.11,7.76-6.07c1.57-0.98,3.35-1.92,5.38-2.32c1.01-0.19,2.1-0.24,3.16,0.05c1.06,0.27,2.04,0.89,2.76,1.75
							c1.45,1.75,1.81,3.94,2.2,5.89c0.39,1.96,0.72,3.89,1.63,5.45c0.84,1.61,2.39,2.58,3.94,2.9c1.56,0.33,3.12,0.06,4.28-0.63
							c1.18-0.68,1.94-1.73,2.36-2.72c0.44-1,0.56-1.95,0.54-2.72C376.87,230.93,376.37,230.15,376.44,230.13z"/>
					</g>
				</g>
				<g>
					<g>
						<path class="st8" d="M338.88,226.6c0.04-0.04,0.59,0.52,1.09,1.66c0.51,1.12,0.91,2.87,0.59,4.77
							c-0.33,1.9-1.29,3.41-2.14,4.3c-0.86,0.9-1.56,1.25-1.59,1.2c-0.05-0.07,0.56-0.52,1.31-1.44c0.75-0.91,1.6-2.37,1.91-4.14
							c0.3-1.78-0.01-3.43-0.41-4.54C339.23,227.27,338.8,226.64,338.88,226.6z"/>
					</g>
				</g>
				<g>
					<g>
						<path class="st8" d="M340.36,245.06c-2.25-5.72-7.45-10.24-13.48-11.43c-3.66-0.72-7.55-0.16-10.9,1.47
							c-1.28-0.72-2.32-1.82-3.38-2.85c-3.56-3.48-7.89-6.25-12.7-7.55c-4.81-1.3-10.1-1.05-14.57,1.13
							c-4.48,2.18-8.03,6.37-9.01,11.25c-0.97,4.88,0.85,10.33,4.84,13.3c3.99,2.98,10.02,3.07,13.85-0.1
							c-0.27,2.19,1.65,4.22,3.82,4.63c2.17,0.41,4.4-0.48,6.17-1.8c1.77-1.31,3.19-3.03,4.77-4.57c0.58-0.58,1.19-1.13,1.82-1.66
							c2.32,5.02,7.05,8.94,12.49,10.01c-1.72,1.87-1.57,4.79-0.86,7.24c0.71,2.44,1.87,4.83,1.81,7.37
							c-0.05,2.13-0.95,4.15-1.35,6.24c-0.56,2.91-0.13,6.01,1.2,8.66c0.52,1.03,1.14,2.46,1.71,3.46c1.01,1.78,1.01,1.78,2.48,2.23
							c3.06,0.94,8.34-10.16,9.71-14.57c1.13-3.68,1.58-10.28,2.9-13.89C344.05,257.14,342.6,250.78,340.36,245.06z"/>
					</g>
					<g>
						<g>
							<path class="st6" d="M342.42,258.96c0.01,0.01-0.05,0.12-0.2,0.33c-0.16,0.2-0.42,0.48-0.85,0.73
								c-0.42,0.26-0.99,0.48-1.69,0.56c-0.69,0.08-1.52,0-2.33-0.4c-0.4-0.21-0.79-0.49-1.11-0.86c-0.32-0.37-0.57-0.82-0.79-1.28
								c-0.44-0.92-0.72-1.98-1.36-2.84c-0.63-0.87-1.7-1.37-2.88-1.54c-1.18-0.19-2.45-0.13-3.76-0.16
								c-1.32-0.03-2.61-0.21-3.82-0.53c-1.2-0.33-2.32-0.8-3.34-1.32c-2.02-1.08-3.62-2.43-4.75-3.73
								c-1.13-1.3-1.86-2.51-2.26-3.39c-0.23-0.42-0.33-0.79-0.43-1.02c-0.09-0.24-0.12-0.36-0.11-0.37
								c0.12-0.07,0.76,2.03,3.07,4.53c1.14,1.25,2.72,2.52,4.7,3.55c1,0.49,2.08,0.93,3.25,1.25c1.17,0.3,2.41,0.47,3.7,0.51
								c1.29,0.02,2.58-0.03,3.83,0.17c1.24,0.18,2.48,0.76,3.18,1.76c0.71,0.98,0.96,2.06,1.37,2.95c0.2,0.45,0.42,0.86,0.7,1.2
								c0.28,0.34,0.62,0.6,0.97,0.79c1.48,0.76,2.96,0.41,3.75,0C342.1,259.41,342.37,258.91,342.42,258.96z"/>
						</g>
					</g>
					<g>
						<g>
							<path class="st6" d="M340.11,265.01c0.02,0.02-0.18,0.26-0.62,0.61c-0.44,0.34-1.15,0.77-2.12,1.06
								c-0.96,0.29-2.21,0.43-3.53,0.12c-1.31-0.29-2.69-1.01-3.75-2.17c-1.05-1.17-1.64-2.52-2.26-3.65
								c-0.6-1.15-1.26-2.09-1.98-2.73c-0.71-0.65-1.43-0.98-1.95-1.11c-0.52-0.13-0.83-0.12-0.83-0.17c0-0.02,0.31-0.11,0.87-0.03
								c0.56,0.07,1.36,0.38,2.15,1.03c0.79,0.63,1.54,1.63,2.16,2.78c0.65,1.14,1.25,2.45,2.22,3.53c0.98,1.07,2.25,1.76,3.47,2.05
								c1.23,0.31,2.4,0.22,3.32-0.01C339.14,265.84,340.05,264.92,340.11,265.01z"/>
						</g>
					</g>
				</g>
				<g>
					<g>
						<path class="st6" d="M379.52,247.58c0.01,0-0.02,0.2-0.14,0.57c-0.13,0.36-0.4,0.88-0.9,1.43c-0.5,0.54-1.26,1.08-2.26,1.43
							c-0.99,0.35-2.24,0.48-3.54,0.14c-2.62-0.64-5.09-3.01-6.6-6.12c-1.6-3.06-2.47-6.83-4.78-9.99
							c-1.14-1.57-2.68-2.75-4.38-3.42c-1.7-0.66-3.49-0.88-5.16-0.75c-3.39,0.23-6.15,1.86-8.04,3.56
							c-1.91,1.71-3.07,3.49-3.79,4.73c-0.72,1.25-1.04,1.99-1.08,1.97c-0.02-0.01,0.05-0.2,0.19-0.55
							c0.14-0.35,0.37-0.87,0.71-1.52c0.68-1.28,1.8-3.11,3.72-4.9c1.89-1.77,4.73-3.5,8.25-3.77c1.74-0.15,3.61,0.07,5.39,0.76
							c1.78,0.69,3.42,1.95,4.6,3.58c2.39,3.29,3.24,7.08,4.79,10.08c1.45,3.04,3.8,5.33,6.27,5.98c1.22,0.35,2.4,0.25,3.35-0.06
							c0.96-0.31,1.71-0.79,2.21-1.29C379.35,248.41,379.46,247.54,379.52,247.58z"/>
					</g>
				</g>
				<g>
					<g>
						<path class="st6" d="M379.14,254.6c0.01,0.01-0.11,0.16-0.37,0.43c-0.26,0.26-0.66,0.64-1.22,1.06
							c-0.57,0.41-1.3,0.89-2.24,1.25c-0.93,0.37-2.09,0.63-3.37,0.51c-2.55-0.29-5.37-1.91-7.37-4.62
							c-1.01-1.35-1.75-2.97-2.34-4.67c-0.6-1.71-1.07-3.51-1.71-5.28c-0.64-1.77-1.45-3.44-2.59-4.78
							c-1.11-1.36-2.6-2.27-4.15-2.69c-3.14-0.85-6.18-0.05-8.34,1.06c-2.2,1.13-3.74,2.46-4.78,3.38c-0.48,0.44-0.87,0.8-1.18,1.08
							c-0.27,0.25-0.42,0.38-0.43,0.36c-0.01-0.01,0.11-0.16,0.35-0.44c0.25-0.27,0.62-0.67,1.12-1.16
							c1.01-0.96,2.52-2.36,4.75-3.55c2.19-1.18,5.32-2.07,8.63-1.2c1.63,0.43,3.24,1.4,4.41,2.83c1.2,1.4,2.03,3.13,2.69,4.93
							c0.65,1.81,1.12,3.61,1.7,5.29c0.58,1.68,1.28,3.25,2.25,4.56c1.9,2.62,4.62,4.22,7.02,4.54c1.21,0.14,2.32-0.09,3.23-0.41
							c0.92-0.33,1.65-0.77,2.23-1.15C378.58,255.14,379.11,254.57,379.14,254.6z"/>
					</g>
				</g>
			</g>
			<g>
				<g>
					<g>
						<path class="st11" d="M271.21,403.43l1.68,4.23l-3.32,38.48h84.95l-3.79-11.5l10.56,0.53c16.29,0.82,29.6-13.73,26.43-29.73
							c-0.1-0.48-0.2-0.96-0.33-1.44c-5.27-20.59-12.44-48.27-14.94-56.44c-4.13-13.51-13.32-19.93-13.32-19.93
							c-0.05-0.01-0.1-0.01-0.15-0.01c-12.71-10.37-30.02-11.29-30.02-11.29l-6.37,4.27c-6.48,4.34-14.63,4.91-21.53,1.78
							c-2.54-1.15-4.46-3.37-5.25-6.05l0,0c-7.69,0.93-15.25,2.7-21.67,5.63c-7.95,3.62-13.97,10.48-16.8,18.75l-22.18,65.03
							l-37.78-5.11l-8.08,22.06l38.28,9.12c14.15,4.21,29.32-2.06,36.37-15.03L271.21,403.43 M341.87,408.63L341.87,408.63
							c0,0,3.63-13.91,5.84-21.4l5.36,21.05L341.87,408.63z"/>
					</g>
					<g>
						<g>
							<path class="st8" d="M370.76,435.39c0,0-0.15,0.01-0.43,0.02c-0.3,0-0.73,0.01-1.28,0.02c-1.15,0.01-2.82,0.02-4.98,0.04
								c-4.37,0.02-10.71,0.04-18.71,0.07c-16.03,0.02-38.65,0.06-65.11,0.09l-0.25,0l0.01-0.25c0.34-7.93,0.69-16.26,1.05-24.87
								l0.01-0.24l0.24-0.01c7.79-0.24,15.9-0.5,24.19-0.76c16.79-0.52,32.88-1.02,47.58-1.47l-0.23,0.31
								c-1.78-6.49-3.23-12.81-4.63-18.84c-1.36-6.04-2.65-11.8-3.87-17.24c-0.6-2.72-1.18-5.36-1.74-7.92
								c-0.55-2.55-1.17-5.02-1.36-7.47c-0.22-2.44-0.18-4.8,0.03-7.03c0.22-2.24,0.56-4.37,1.16-6.33
								c1.17-3.93,3.24-7.14,5.67-9.24c2.42-2.14,5.13-3.07,7.31-3.4c2.21-0.33,3.94-0.03,5.05,0.28c0.55,0.17,0.96,0.32,1.23,0.45
								c0.27,0.12,0.4,0.19,0.4,0.19c-0.01,0.03-0.55-0.25-1.65-0.56c-1.1-0.29-2.82-0.55-5-0.2c-2.15,0.35-4.81,1.3-7.18,3.42
								c-2.38,2.09-4.4,5.26-5.53,9.15c-0.58,1.94-0.91,4.05-1.11,6.28c-0.2,2.22-0.23,4.56,0,6.97c0.19,2.42,0.82,4.86,1.38,7.42
								c0.57,2.55,1.16,5.19,1.76,7.91c1.23,5.44,2.54,11.19,3.91,17.23c1.41,6.03,2.87,12.34,4.66,18.81l0.08,0.3l-0.31,0.01
								c-14.69,0.46-30.79,0.97-47.58,1.5c-8.29,0.26-16.4,0.51-24.19,0.75l0.25-0.25c-0.37,8.6-0.73,16.93-1.08,24.87l-0.24-0.25
								c26.46,0.04,49.08,0.07,65.11,0.09c7.99,0.03,14.34,0.05,18.71,0.07c2.16,0.02,3.83,0.03,4.98,0.04
								c0.55,0.01,0.98,0.02,1.28,0.02C370.61,435.37,370.76,435.39,370.76,435.39z"/>
						</g>
					</g>
					<g>
						<g>
							<path class="st8" d="M275.92,346.85c0.02,0,0.03,0.21,0.04,0.62c0,0.41,0.05,1.01-0.01,1.79c-0.07,1.55-0.4,3.79-1.16,6.47
								c-0.75,2.68-1.95,5.76-3.32,9.15c-1.34,3.39-2.87,7.13-3.65,11.25c-0.83,4.12-0.6,8.17-0.06,11.76
								c0.58,3.6,1.47,6.77,2.3,9.4c0.84,2.63,1.59,4.74,2.1,6.2c0.24,0.69,0.43,1.25,0.58,1.68c0.13,0.39,0.19,0.59,0.17,0.6
								c-0.02,0.01-0.11-0.19-0.27-0.56c-0.18-0.43-0.4-0.98-0.67-1.65c-0.57-1.44-1.38-3.53-2.26-6.16
								c-0.88-2.63-1.81-5.81-2.42-9.44c-0.57-3.62-0.82-7.74,0.03-11.93c0.8-4.19,2.35-7.95,3.72-11.34
								c1.39-3.38,2.63-6.43,3.41-9.08c0.79-2.64,1.18-4.84,1.31-6.38C275.88,347.71,275.87,346.85,275.92,346.85z"/>
						</g>
					</g>
					<g>
						<g>
							<path class="st8" d="M353.07,408.27c-0.01-0.06,0.66-0.25,1.77-0.24c1.11,0.01,2.66,0.25,4.22,0.97
								c1.56,0.71,2.75,1.79,3.35,2.75c0.61,0.95,0.7,1.67,0.65,1.67c-0.09,0.03-0.3-0.62-0.95-1.46c-0.63-0.85-1.78-1.81-3.27-2.49
								c-1.48-0.68-2.95-0.97-4.02-1.08C353.76,408.3,353.08,408.36,353.07,408.27z"/>
						</g>
					</g>
					<g>
						<g>
							<path class="st8" d="M345.59,320.1c0.01-0.03,0.58,0.18,1.59,0.6c0.5,0.21,1.13,0.46,1.83,0.78
								c0.71,0.35,1.51,0.73,2.38,1.15c0.88,0.43,1.8,0.98,2.82,1.53c1,0.57,2.03,1.25,3.13,1.95c2.14,1.47,4.4,3.22,6.55,5.32
								c4.29,4.22,7.04,9.07,8.26,12.8c0.31,0.93,0.6,1.77,0.76,2.54c0.18,0.76,0.35,1.41,0.42,1.95c0.17,1.08,0.25,1.68,0.21,1.69
								c-0.04,0.01-0.18-0.58-0.41-1.65c-0.1-0.54-0.3-1.17-0.5-1.92c-0.19-0.75-0.49-1.58-0.82-2.49
								c-1.3-3.65-4.05-8.39-8.28-12.56c-2.12-2.07-4.35-3.81-6.46-5.29c-1.08-0.7-2.09-1.38-3.07-1.97c-1-0.56-1.9-1.13-2.77-1.58
								c-0.85-0.45-1.63-0.85-2.33-1.22c-0.68-0.33-1.27-0.61-1.79-0.86C346.12,320.41,345.58,320.13,345.59,320.1z"/>
						</g>
					</g>
					<g class="st12">
						<path d="M342.28,361.99c0,0-8.44,37.27-8.31,40.91c0.13,3.65,0.86,5.66,0.86,5.66l7.04,0.06l0.06-0.69l5.91-21.09
							L342.28,361.99z"/>
					</g>
				</g>
				<g>
					<g>
						<g>
							<path d="M295.9,360.12c0.03,0.05-0.9,0.41-2.32,1.46c-1.37,1.06-3.27,2.93-4.32,5.89c-0.52,1.47-0.83,3.18-0.69,5.01
								c0.12,1.82,0.61,3.77,1.68,5.53c1.03,1.77,2.56,3.38,4.5,4.5c0.96,0.57,2.01,1.02,3.13,1.29c1.11,0.31,2.29,0.42,3.47,0.4
								c1.19-0.01,2.34-0.25,3.45-0.56c1.09-0.37,2.13-0.84,3.07-1.46c1.86-1.23,3.34-2.89,4.28-4.72c0.94-1.83,1.39-3.78,1.41-5.61
								c0.02-1.83-0.35-3.54-0.95-4.97c-1.21-2.91-3.18-4.69-4.61-5.67c-1.46-0.98-2.41-1.29-2.38-1.34
								c0.01-0.02,0.24,0.06,0.68,0.23c0.43,0.17,1.06,0.47,1.82,0.94c1.48,0.95,3.55,2.73,4.84,5.7c0.64,1.47,1.04,3.23,1.04,5.12
								c-0.01,1.89-0.45,3.92-1.42,5.83c-0.96,1.9-2.49,3.64-4.42,4.93c-0.97,0.64-2.05,1.14-3.19,1.52
								c-1.15,0.33-2.36,0.58-3.59,0.59c-1.23,0.02-2.46-0.1-3.61-0.42c-1.17-0.29-2.26-0.76-3.26-1.36
								c-2.01-1.17-3.6-2.85-4.66-4.7c-1.09-1.84-1.59-3.87-1.69-5.75c-0.12-1.89,0.22-3.66,0.78-5.16
								c1.13-3.04,3.12-4.91,4.55-5.93c0.74-0.5,1.35-0.84,1.77-1.03C295.67,360.2,295.9,360.11,295.9,360.12z"/>
						</g>
					</g>
					<g>
						<g>
							<path d="M301.05,357.84c0.14,0,0.26,4.11,0.26,9.18c0,5.07-0.12,9.18-0.26,9.18c-0.14,0-0.26-4.11-0.26-9.18
								C300.79,361.95,300.9,357.84,301.05,357.84z"/>
						</g>
					</g>
				</g>
			</g>
			<g>
				<g>
					<g>
						<g>
							<path class="st7" d="M268.81,409.97l-5.5-2.24c0,0-6.39-10.84-7.7-10.32c-1.31,0.52-1.5,3.83,1.1,8.82l-7.23-1.64
								c0,0-15.03,7.99-14.29,8.91c0.74,0.92,2.13,3.13,5.39,1.22c3.26-1.91,7.55-4.17,7.55-4.17l8.45,1.91l-10.64,1.96l-9.57,9.74
								c0,0,3.45,2.29,6.16-0.5l26.5,4.17l11.22,0.01l0.6-14.83L268.81,409.97z"/>
						</g>
					</g>
					<g>
						<g>
							<g>
								<path class="st9" d="M242.52,423.68c0.12,0.07,0.56-0.73,1.45-1.82c0.45-0.53,1.06-1.09,1.82-1.58
									c0.74-0.47,1.72-0.71,2.79-0.9c4.33-0.76,7.82-1.56,7.78-1.78c-0.04-0.22-3.59,0.21-7.93,0.97
									c-1.09,0.19-2.19,0.47-3.06,1.07c-0.82,0.57-1.45,1.24-1.87,1.86C242.68,422.76,242.44,423.64,242.52,423.68z"/>
							</g>
						</g>
					</g>
					<g>
						<g>
							<g>
								<path class="st9" d="M246.68,424.5c0.1,0,0.15-0.55,0.88-0.75c0.74-0.18,1.93-0.39,3.16-0.58c2.5-0.39,4.57-0.49,4.58-0.72
									c0.01-0.22-2.11-0.49-4.7-0.09c-1.3,0.21-2.41,0.49-3.26,0.86c-0.44,0.21-0.71,0.59-0.75,0.87
									C246.53,424.37,246.63,424.51,246.68,424.5z"/>
							</g>
						</g>
					</g>
				</g>
				<g>
					<g>
						<path class="st9" d="M268.08,409.68c-0.03,0.07-1.03-0.26-2.65-0.75c-1.62-0.49-3.87-1.12-6.38-1.76
							c-2.42-0.61-4.61-1.16-6.43-1.62c-1.64-0.43-2.65-0.74-2.63-0.81c0.02-0.07,1.05,0.11,2.72,0.45
							c1.66,0.34,3.96,0.83,6.47,1.47c2.52,0.64,4.77,1.33,6.37,1.91C267.15,409.16,268.1,409.62,268.08,409.68z"/>
					</g>
				</g>
			</g>
		</g>
	</g>
</g>
<g id="Screens">
	<g>
		<g>
			<g>
				<path class="st8" d="M360.31,130.74c-0.02-0.02-0.03-0.4-0.05-1.09c-0.01-0.75-0.03-1.74-0.06-2.96
					c-0.03-2.58-0.07-6.15-0.11-10.41l0.23,0.23c-4.22,0.01-9.17,0.02-14.46,0.04c-0.06,0.06,0.49-0.49,0.26-0.26v0v0.01v0.02v0.03
					v0.06v0.12v0.25l0,0.49l0,0.98c0,0.65,0,1.3,0,1.93c0,1.28,0,2.52-0.01,3.74c-0.01,2.42-0.02,4.71-0.03,6.82l-0.23-0.23
					c4.26,0.05,7.83,0.09,10.41,0.11c1.22,0.02,2.21,0.04,2.96,0.06C359.91,130.71,360.29,130.73,360.31,130.74
					c0.02,0.02-0.33,0.03-0.99,0.05c-0.74,0.01-1.71,0.03-2.91,0.06c-2.62,0.03-6.24,0.07-10.56,0.11l-0.22,0l0-0.23
					c-0.01-2.11-0.02-4.4-0.03-6.82c0-1.21,0-2.46-0.01-3.74c0-0.64,0-1.28,0-1.93l0-0.98l0-0.49v-0.25v-0.12v-0.06v-0.03v-0.02
					v-0.01v0c-0.23,0.23,0.32-0.32,0.26-0.26c5.29,0.01,10.24,0.02,14.46,0.04l0.23,0l0,0.22c-0.05,4.32-0.09,7.94-0.11,10.56
					c-0.02,1.2-0.04,2.18-0.06,2.91C360.34,130.42,360.32,130.76,360.31,130.74z"/>
			</g>
		</g>
		<g>
			<g>
				<path class="st8" d="M360.31,116.43c0.1,0.1-3.05,3.4-7.03,7.38c-3.98,3.97-7.3,7.11-7.4,7.01c-0.1-0.1,3.05-3.4,7.03-7.38
					C356.89,119.46,360.2,116.33,360.31,116.43z"/>
			</g>
		</g>
		<g>
			<g>
				<path class="st8" d="M360.08,130.65c-0.1,0.1-3.34-3-7.24-6.93c-3.9-3.93-6.97-7.2-6.87-7.3c0.1-0.1,3.34,3,7.24,6.93
					C357.1,127.29,360.18,130.55,360.08,130.65z"/>
			</g>
		</g>
	</g>
	<g>
		<g>
			<g>
				<path class="st8" d="M445.93,214.89c-0.02-0.03,0.25-0.34,0.77-0.88c0.61-0.61,1.36-1.36,2.24-2.25
					c1.91-1.88,4.57-4.45,7.54-7.27l0.07-0.06l0,0.38c-2.99-2.76-5.67-5.28-7.59-7.13c-0.89-0.87-1.65-1.6-2.26-2.2
					c-0.52-0.53-0.8-0.83-0.78-0.86c0.02-0.03,0.35,0.23,0.92,0.71c0.64,0.56,1.43,1.26,2.37,2.08c1.99,1.77,4.71,4.25,7.69,7.01
					l0.2,0.19l-0.2,0.19l-0.07,0.06c-2.96,2.82-5.67,5.34-7.64,7.16c-0.93,0.84-1.72,1.55-2.36,2.13
					C446.28,214.65,445.95,214.92,445.93,214.89z"/>
			</g>
		</g>
		<g>
			<g>
				<path class="st8" d="M422.87,194.63c0.02,0.03-0.25,0.34-0.77,0.88c-0.61,0.61-1.36,1.36-2.24,2.25
					c-1.91,1.88-4.57,4.45-7.54,7.27l-0.07,0.06l0-0.38c2.99,2.76,5.67,5.28,7.59,7.13c0.89,0.87,1.65,1.6,2.26,2.2
					c0.52,0.53,0.8,0.83,0.78,0.86c-0.02,0.03-0.35-0.23-0.92-0.71c-0.64-0.56-1.43-1.26-2.37-2.08c-1.99-1.77-4.71-4.25-7.69-7.01
					l-0.2-0.19l0.2-0.19l0.07-0.06c2.96-2.82,5.67-5.34,7.64-7.16c0.93-0.84,1.72-1.55,2.36-2.13
					C422.52,194.87,422.85,194.61,422.87,194.63z"/>
			</g>
		</g>
		<g>
			<g>
				<path class="st8" d="M428.79,219.66c-0.13-0.05,2.29-6.83,5.4-15.13c3.12-8.31,5.76-15,5.89-14.95
					c0.13,0.05-2.28,6.82-5.4,15.13C431.56,213.02,428.92,219.71,428.79,219.66z"/>
			</g>
		</g>
		<g>
			<g>
				<path class="st8" d="M472.12,234.16c0,0-0.02-0.39-0.02-1.13c-0.01-0.75-0.01-1.84-0.02-3.26c-0.01-2.86-0.03-7.03-0.06-12.34
					c-0.03-10.63-0.07-25.81-0.11-44.12l0.22,0.22c-21.45,0.01-47.25,0.03-74.98,0.04h-0.01l0.26-0.26
					c-0.01,22-0.02,42.78-0.03,60.86l-0.23-0.23c22.26,0.05,40.98,0.09,54.15,0.12c6.59,0.03,11.78,0.05,15.35,0.06
					c1.77,0.01,3.13,0.02,4.07,0.03c0.45,0.01,0.8,0.01,1.05,0.01C472,234.15,472.12,234.16,472.12,234.16s-0.11,0.01-0.34,0.01
					c-0.25,0-0.59,0.01-1.03,0.01c-0.93,0.01-2.28,0.02-4.03,0.03c-3.56,0.01-8.73,0.04-15.3,0.06c-13.2,0.03-31.97,0.07-54.3,0.12
					l-0.23,0l0-0.23c-0.01-18.08-0.02-38.86-0.03-60.86l0-0.26h0.26h0.01c27.74,0.02,53.53,0.03,74.98,0.04l0.22,0l0,0.22
					c-0.05,18.37-0.09,33.6-0.11,44.26c-0.02,5.29-0.04,9.44-0.06,12.29c-0.01,1.4-0.02,2.47-0.02,3.22
					C472.14,233.8,472.12,234.16,472.12,234.16z"/>
			</g>
		</g>
		<g>
			<g>
				<path class="st8" d="M472.71,182.33c0,0.14-16.93,0.26-37.8,0.26c-20.88,0-37.81-0.12-37.81-0.26s16.92-0.26,37.81-0.26
					C455.78,182.07,472.71,182.18,472.71,182.33z"/>
			</g>
		</g>
		<g>
			<g>
				<path class="st8" d="M403.25,177.88c0,0.56-0.45,1.01-1.01,1.01c-0.56,0-1.01-0.45-1.01-1.01s0.45-1.01,1.01-1.01
					C402.8,176.88,403.25,177.33,403.25,177.88z"/>
			</g>
			<g>
				<path class="st8" d="M406.93,177.88c0,0.56-0.45,1.01-1.01,1.01c-0.56,0-1.01-0.45-1.01-1.01s0.45-1.01,1.01-1.01
					C406.48,176.88,406.93,177.33,406.93,177.88z"/>
			</g>
			<g>
				<path class="st8" d="M410.61,177.88c0,0.56-0.45,1.01-1.01,1.01c-0.56,0-1.01-0.45-1.01-1.01s0.45-1.01,1.01-1.01
					C410.16,176.88,410.61,177.33,410.61,177.88z"/>
			</g>
		</g>
	</g>
	<g>
		<g>
			<g>
				<rect x="260.34" y="81.31" class="st6" width="59.25" height="42.24"/>
			</g>
			<g>
				<g>
					<path class="st13" d="M320.06,87.58c0,0.14-13.38,0.26-29.87,0.26c-16.5,0-29.87-0.12-29.87-0.26s13.37-0.26,29.87-0.26
						C306.68,87.32,320.06,87.43,320.06,87.58z"/>
				</g>
			</g>
			<g>
				<g>
					<path class="st13" d="M265.18,84.49c0,0.39-0.36,0.7-0.8,0.7c-0.44,0-0.8-0.31-0.8-0.7c0-0.39,0.36-0.7,0.8-0.7
						C264.82,83.79,265.18,84.11,265.18,84.49z"/>
				</g>
				<g>
					<path class="st13" d="M268.09,84.49c0,0.39-0.36,0.7-0.8,0.7c-0.44,0-0.8-0.31-0.8-0.7c0-0.39,0.36-0.7,0.8-0.7
						C267.73,83.79,268.09,84.11,268.09,84.49z"/>
				</g>
				<g>
					<ellipse class="st13" cx="270.2" cy="84.49" rx="0.8" ry="0.7"/>
				</g>
			</g>
		</g>
		<text transform="matrix(1 0 0 1 266.0879 106.7183)" class="st13 st14 st15">ExpressJs</text>
	</g>
	<g>
		<g>
			<path class="st10" d="M200.04,171.97l0.78-0.86c0.96,1.44,2.32,2.22,3.91,2.22c2.35,0,3.51-1.34,3.51-4.17v-11.31h-6.52v-1.16
				h7.8v12.48c0,3.56-1.64,5.33-4.8,5.33C202.82,174.5,201.05,173.56,200.04,171.97z"/>
			<path class="st10" d="M213.2,172.78l0.58-1.01c1.01,0.86,2.8,1.59,4.75,1.59c2.78,0,3.89-0.98,3.89-2.47
				c0-3.84-8.74-1.01-8.74-6.19c0-2,1.67-3.61,5-3.61c1.67,0,3.48,0.5,4.52,1.29l-0.58,1.01c-1.11-0.81-2.55-1.19-3.96-1.19
				c-2.58,0-3.71,1.06-3.71,2.47c0,3.96,8.74,1.16,8.74,6.19c0,2.15-1.84,3.61-5.2,3.61C216.3,174.47,214.23,173.74,213.2,172.78z"
				/>
		</g>
		<g>
			<g>
				<g>
					<path class="st10" d="M235.2,183.76c0,0-0.02-0.28-0.02-0.8c-0.01-0.54-0.01-1.31-0.03-2.29c-0.01-2.02-0.03-4.95-0.06-8.66
						c-0.03-7.45-0.07-18.06-0.11-30.8l0.22,0.22c-13.25,0.01-29.01,0.02-45.87,0.04c-0.06,0.06,0.49-0.49,0.26-0.25v0.01v0.02v0.05
						v0.09v0.18v0.36l0,0.73l0,1.45c0,0.96,0,1.92,0,2.87c0,1.91,0,3.8,0,5.67c0,3.74,0,7.41-0.01,10.98
						c-0.01,7.14-0.02,13.9-0.02,20.13l-0.23-0.23c13.67,0.05,25.11,0.09,33.15,0.12c4.01,0.03,7.17,0.05,9.36,0.06
						c1.07,0.01,1.9,0.02,2.48,0.03c0.27,0.01,0.48,0.01,0.64,0.01C235.12,183.75,235.2,183.75,235.2,183.76c0,0-0.06,0.01-0.2,0.01
						c-0.16,0-0.36,0.01-0.62,0.01c-0.58,0.01-1.39,0.02-2.44,0.03c-2.18,0.01-5.32,0.03-9.31,0.06c-8.08,0.03-19.57,0.07-33.3,0.12
						l-0.23,0l0-0.23c-0.01-6.23-0.02-12.99-0.02-20.13c0-3.57,0-7.24-0.01-10.98c0-1.87,0-3.76,0-5.67c0-0.95,0-1.91,0-2.87l0-1.45
						v-0.73v-0.36v-0.18v-0.09v-0.05v-0.02v-0.01c-0.23,0.23,0.32-0.33,0.26-0.27c16.86,0.01,32.61,0.03,45.87,0.04l0.22,0l0,0.22
						c-0.05,12.8-0.09,23.46-0.11,30.94c-0.02,3.69-0.04,6.6-0.06,8.61c-0.01,0.97-0.02,1.72-0.03,2.25
						C235.22,183.51,235.2,183.76,235.2,183.76z"/>
				</g>
			</g>
			<g>
				<g>
					<path class="st10" d="M235.1,147.52c0,0.14-10.25,0.26-22.9,0.26c-12.65,0-22.9-0.12-22.9-0.26c0-0.14,10.25-0.26,22.9-0.26
						C224.85,147.25,235.1,147.37,235.1,147.52z"/>
				</g>
			</g>
			<g>
				<g>
					<ellipse class="st10" cx="193.4" cy="144.41" rx="0.8" ry="0.71"/>
				</g>
				<g>
					<path class="st10" d="M197.13,144.41c0,0.39-0.36,0.71-0.8,0.71s-0.8-0.32-0.8-0.71c0-0.39,0.36-0.71,0.8-0.71
						S197.13,144.02,197.13,144.41z"/>
				</g>
				<g>
					<path class="st10" d="M200.06,144.41c0,0.39-0.36,0.71-0.8,0.71c-0.44,0-0.8-0.32-0.8-0.71c0-0.39,0.36-0.71,0.8-0.71
						C199.7,143.7,200.06,144.02,200.06,144.41z"/>
				</g>
			</g>
		</g>
	</g>
	<g>
		<g>
			<path class="st10" d="M402.47,101.57c0-4.31,3.28-7.5,7.67-7.5c2.09,0,3.97,0.68,5.26,2.05l-0.68,0.7
				c-1.27-1.25-2.81-1.75-4.54-1.75c-3.78,0-6.64,2.79-6.64,6.51c0,3.72,2.85,6.51,6.64,6.51c1.73,0,3.28-0.53,4.54-1.77l0.68,0.7
				c-1.29,1.37-3.17,2.07-5.26,2.07C405.75,109.08,402.47,105.89,402.47,101.57z"/>
			<path class="st10" d="M417.43,107.07l0.49-0.8c1.01,1.06,2.9,1.86,4.88,1.86c2.96,0,4.27-1.29,4.27-2.9
				c0-4.44-9.24-1.77-9.24-7.23c0-2.09,1.61-3.93,5.24-3.93c1.63,0,3.32,0.51,4.46,1.33l-0.4,0.87c-1.23-0.85-2.73-1.25-4.06-1.25
				c-2.87,0-4.16,1.33-4.16,2.96c0,4.44,9.23,1.82,9.23,7.19c0,2.09-1.67,3.91-5.33,3.91C420.62,109.08,418.51,108.25,417.43,107.07
				z"/>
			<path class="st10" d="M430.3,107.07l0.49-0.8c1.01,1.06,2.9,1.86,4.88,1.86c2.96,0,4.27-1.29,4.27-2.9
				c0-4.44-9.24-1.77-9.24-7.23c0-2.09,1.61-3.93,5.24-3.93c1.63,0,3.32,0.51,4.46,1.33l-0.4,0.87c-1.23-0.85-2.73-1.25-4.06-1.25
				c-2.87,0-4.16,1.33-4.16,2.96c0,4.44,9.23,1.82,9.23,7.19c0,2.09-1.67,3.91-5.33,3.91C433.49,109.08,431.38,108.25,430.3,107.07z
				"/>
		</g>
		<g>
			<g>
				<g>
					<path class="st10" d="M453.61,120.81c0,0-0.01-0.27-0.02-0.78c-0.01-0.53-0.01-1.28-0.02-2.25c-0.01-1.99-0.03-4.87-0.05-8.56
						c-0.03-7.39-0.06-18.01-0.11-30.96l0.21,0.21c-18.04,0.01-40.98,0.03-65.89,0.05h-0.01l0.26-0.26
						c-0.01,15.11-0.01,29.5-0.02,42.56l-0.24-0.24c19.33,0.05,35.77,0.09,47.4,0.12c5.81,0.03,10.42,0.05,13.59,0.06
						c1.57,0.01,2.78,0.02,3.63,0.03c0.4,0.01,0.71,0.01,0.94,0.01C453.5,120.8,453.61,120.8,453.61,120.81c0,0-0.1,0.01-0.3,0.01
						c-0.22,0-0.52,0.01-0.91,0.01c-0.83,0.01-2.03,0.02-3.58,0.03c-3.16,0.02-7.75,0.04-13.54,0.06
						c-11.67,0.03-28.16,0.07-47.56,0.12l-0.24,0l0-0.24c-0.01-13.05-0.01-27.44-0.02-42.56l0-0.26h0.26h0.01
						c24.9,0.02,47.85,0.04,65.89,0.05l0.21,0l0,0.21c-0.05,13.01-0.08,23.66-0.11,31.09c-0.02,3.67-0.04,6.54-0.05,8.51
						c-0.01,0.96-0.02,1.69-0.02,2.21C453.63,120.56,453.61,120.81,453.61,120.81z"/>
				</g>
			</g>
			<g>
				<g>
					<path class="st10" d="M453.61,84.57c0,0.14-14.76,0.26-32.96,0.26c-18.21,0-32.96-0.12-32.96-0.26
						c0-0.14,14.75-0.26,32.96-0.26C438.85,84.31,453.61,84.42,453.61,84.57z"/>
				</g>
			</g>
			<g>
				<g>
					<path class="st10" d="M392.59,81.46c0,0.39-0.36,0.71-0.8,0.71s-0.8-0.32-0.8-0.71s0.36-0.71,0.8-0.71
						S392.59,81.07,392.59,81.46z"/>
				</g>
				<g>
					<path class="st10" d="M395.52,81.46c0,0.39-0.36,0.71-0.8,0.71c-0.44,0-0.8-0.32-0.8-0.71s0.36-0.71,0.8-0.71
						C395.16,80.75,395.52,81.07,395.52,81.46z"/>
				</g>
				<g>
					<path class="st10" d="M398.45,81.46c0,0.39-0.36,0.71-0.8,0.71c-0.44,0-0.8-0.32-0.8-0.71s0.36-0.71,0.8-0.71
						C398.09,80.75,398.45,81.07,398.45,81.46z"/>
				</g>
			</g>
		</g>
	</g>
	<g>
		<g>
			<rect x="285.9" y="142.86" class="st6" width="82.74" height="58.98"/>
		</g>
		<g>
			<path class="st13" d="M313.81,170.24v11.71h-2.71v-4.8h-5.32v4.8h-2.71v-11.71h2.71v4.62h5.32v-4.62H313.81z"/>
			<path class="st13" d="M319.01,172.45h-3.75v-2.21h10.2v2.21h-3.75v9.5h-2.71V172.45z"/>
			<path class="st13" d="M326.92,170.24h2.71v9.5h5.87v2.21h-8.58V170.24z"/>
			<path class="st13" d="M347.68,181.95l-0.02-7.02l-3.45,5.79h-1.22l-3.43-5.64v6.87h-2.54v-11.71h2.24l4.38,7.27l4.31-7.27h2.22
				l0.03,11.71H347.68z"/>
		</g>
		<g>
			<g>
				<g>
					<path class="st13" d="M369.3,151.61c0,0.14-18.68,0.26-41.71,0.26c-23.04,0-41.72-0.12-41.72-0.26
						c0-0.14,18.67-0.26,41.72-0.26C350.62,151.35,369.3,151.46,369.3,151.61z"/>
				</g>
			</g>
			<g>
				<g>
					<path class="st13" d="M292.66,147.3c0,0.54-0.5,0.98-1.11,0.98c-0.62,0-1.11-0.44-1.11-0.98s0.5-0.98,1.11-0.98
						C292.16,146.32,292.66,146.76,292.66,147.3z"/>
				</g>
				<g>
					<path class="st13" d="M296.72,147.3c0,0.54-0.5,0.98-1.11,0.98c-0.62,0-1.11-0.44-1.11-0.98s0.5-0.98,1.11-0.98
						C296.22,146.32,296.72,146.76,296.72,147.3z"/>
				</g>
				<g>
					<path class="st13" d="M300.78,147.3c0,0.54-0.5,0.98-1.11,0.98c-0.62,0-1.11-0.44-1.11-0.98s0.5-0.98,1.11-0.98
						C300.28,146.32,300.78,146.76,300.78,147.3z"/>
				</g>
			</g>
		</g>
	</g>
	<g>
		<g>
			<g>
				<g>
					<path class="st8" d="M115.37,258.99c0,0-0.01-0.07-0.01-0.2c0-0.15-0.01-0.33-0.01-0.56c-0.01-0.51-0.01-1.22-0.03-2.14
						c-0.01-1.89-0.03-4.61-0.06-8.06c-0.03-6.93-0.07-16.79-0.11-28.6l0.23,0.23c-11.5,0.01-25.07,0.02-39.55,0.04
						c-0.06,0.06,0.49-0.49,0.26-0.25v0.01v0.02v0.04v0.08v0.17v0.34v0.68l0,1.35c0,0.9,0,1.79,0,2.68c0,1.78,0,3.54,0,5.29
						c0,3.49,0,6.9-0.01,10.22c-0.01,6.64-0.02,12.91-0.03,18.66l-0.23-0.23c11.81,0.05,21.67,0.09,28.6,0.11
						c3.45,0.03,6.17,0.04,8.06,0.06c0.92,0.01,1.63,0.02,2.14,0.03c0.23,0.01,0.41,0.01,0.56,0.01
						C115.3,258.98,115.36,258.99,115.37,258.99c0,0-0.05,0.01-0.17,0.01c-0.14,0-0.31,0.01-0.53,0.01c-0.5,0.01-1.2,0.01-2.1,0.03
						c-1.88,0.01-4.58,0.03-8.01,0.06c-6.97,0.03-16.87,0.07-28.74,0.11l-0.22,0l0-0.23c-0.01-5.75-0.02-12.02-0.03-18.66
						c0-3.32,0-6.73-0.01-10.22c0-1.74,0-3.51,0-5.29c0-0.89,0-1.78,0-2.68l0-1.35v-0.68v-0.34v-0.17v-0.08v-0.04v-0.02v-0.01
						c-0.23,0.23,0.32-0.33,0.26-0.27c14.48,0.01,28.05,0.02,39.55,0.04l0.23,0l0,0.23c-0.05,11.87-0.09,21.78-0.11,28.74
						c-0.03,3.43-0.05,6.13-0.06,8.01c-0.01,0.9-0.02,1.6-0.03,2.1c-0.01,0.22-0.01,0.39-0.01,0.53
						C115.38,258.94,115.37,258.99,115.37,258.99z"/>
				</g>
			</g>
			<g>
				<g>
					<path class="st8" d="M115.37,219.84c0.1,0.1-8.65,8.99-19.54,19.85c-10.9,10.87-19.81,19.59-19.91,19.49
						c-0.1-0.1,8.65-8.99,19.54-19.85C106.35,228.46,115.27,219.74,115.37,219.84z"/>
				</g>
			</g>
			<g>
				<g>
					<path class="st8" d="M114.74,258.75c-0.1,0.1-8.82-8.53-19.48-19.27c-10.66-10.75-19.21-19.54-19.11-19.64
						c0.1-0.1,8.82,8.52,19.48,19.27C106.29,249.85,114.84,258.64,114.74,258.75z"/>
				</g>
			</g>
		</g>
		<g>
			<g>
				<path class="st8" d="M197.82,230.05c0,0.14-15.71,0.26-35.09,0.26c-19.38,0-35.09-0.12-35.09-0.26c0-0.14,15.71-0.26,35.09-0.26
					C182.1,229.79,197.82,229.91,197.82,230.05z"/>
			</g>
		</g>
		<g>
			<g>
				<path class="st8" d="M197.82,236.36c0,0.14-15.71,0.26-35.09,0.26c-19.38,0-35.09-0.12-35.09-0.26c0-0.14,15.71-0.26,35.09-0.26
					C182.1,236.1,197.82,236.21,197.82,236.36z"/>
			</g>
		</g>
		<g>
			<g>
				<path class="st8" d="M197.82,242.66c0,0.14-15.71,0.26-35.09,0.26c-19.38,0-35.09-0.12-35.09-0.26c0-0.14,15.71-0.26,35.09-0.26
					C182.1,242.4,197.82,242.52,197.82,242.66z"/>
			</g>
		</g>
		<g>
			<g>
				<path class="st8" d="M197.82,248.97c0,0.14-15.71,0.26-35.09,0.26c-19.38,0-35.09-0.12-35.09-0.26c0-0.14,15.71-0.26,35.09-0.26
					C182.1,248.71,197.82,248.82,197.82,248.97z"/>
			</g>
		</g>
		<g>
			<g>
				<path class="st8" d="M159.38,223.74c0,0.14-7.22,0.26-16.13,0.26c-8.91,0-16.13-0.12-16.13-0.26s7.22-0.26,16.13-0.26
					C152.15,223.48,159.38,223.6,159.38,223.74z"/>
			</g>
		</g>
		<g>
			<g>
				<path class="st8" d="M63.36,207.51c0,0,0.25-0.01,0.75-0.01c0.52,0,1.27-0.01,2.25-0.01c2,0,4.95,0,8.76-0.01
					c7.68,0.01,18.86,0.01,32.93,0.02c28.21,0.05,67.98,0.12,114.3,0.2l0.25,0v0.25c0,19.5,0.01,40.64,0.01,62.57l0,0.26h-0.26
					c-2.97,0-6.17,0-9.38,0c-1.64,0-3.27,0-4.9,0l0.26-0.26c0,4.36,0,8.68,0,12.97v0.63l-0.44-0.44
					c-4.39-4.39-8.72-8.72-12.97-12.97l0.18,0.08c-51.84-0.03-97.8-0.06-131.74-0.08l-0.18,0l0-0.18
					c0.04-19.64,0.07-35.41,0.1-46.28c0.02-5.41,0.03-9.6,0.04-12.44c0.01-1.41,0.01-2.48,0.02-3.21
					C63.35,207.87,63.36,207.51,63.36,207.51s0.01,0.38,0.02,1.12c0,0.74,0.01,1.82,0.02,3.25c0.01,2.86,0.02,7.06,0.04,12.48
					c0.02,10.85,0.06,26.58,0.1,46.17l-0.18-0.18c33.94-0.02,79.9-0.05,131.74-0.08l0.11,0l0.08,0.08
					c4.25,4.25,8.58,8.58,12.97,12.97l-0.44,0.18c0-4.29,0-8.61,0-12.97v-0.26h0.26c1.63,0,3.26,0,4.9,0c3.21,0,6.41,0,9.38,0
					l-0.26,0.26c0-21.93,0.01-43.08,0.01-62.57l0.25,0.25c-46.25-0.18-85.97-0.33-114.13-0.44c-14.09-0.07-25.29-0.12-32.98-0.16
					c-3.84-0.02-6.8-0.04-8.82-0.06c-1-0.01-1.76-0.02-2.28-0.02C63.63,207.52,63.36,207.51,63.36,207.51z"/>
			</g>
		</g>
	</g>
</g>
<g id="Desk">
	<g>
		<g>
			<rect x="381.77" y="410.84" class="st6" width="86.8" height="21.78"/>
		</g>
		<g>
			<rect x="403.22" y="417.95" class="st8" width="52.9" height="7.56"/>
		</g>
		<g>
			<path class="st8" d="M396.55,422.17c0,2.33-1.89,4.22-4.22,4.22c-2.33,0-4.22-1.89-4.22-4.22c0-2.33,1.89-4.22,4.22-4.22
				C394.66,417.95,396.55,419.84,396.55,422.17z"/>
		</g>
		<g>
			<rect x="390.92" y="398.97" class="st8" width="69.33" height="11.78"/>
		</g>
		<g>
			<g>
				<rect x="390.92" y="377.2" class="st16" width="86.8" height="21.78"/>
			</g>
			<g>
				<g>
					<path class="st3" d="M403.82,398.37c-0.14,0-0.26-4.74-0.26-10.59c0-5.85,0.12-10.59,0.26-10.59c0.14,0,0.26,4.74,0.26,10.59
						C404.08,393.63,403.96,398.37,403.82,398.37z"/>
				</g>
			</g>
			<g>
				<g>
					<path class="st3" d="M400.04,398.37c-0.14,0-0.26-4.74-0.26-10.59c0-5.85,0.12-10.59,0.26-10.59c0.14,0,0.26,4.74,0.26,10.59
						C400.3,393.63,400.19,398.37,400.04,398.37z"/>
				</g>
			</g>
			<g>
				<g>
					<path class="st3" d="M463.9,398.37c-0.14,0-0.26-4.74-0.26-10.59c0-5.85,0.12-10.59,0.26-10.59c0.14,0,0.26,4.74,0.26,10.59
						C464.16,393.63,464.04,398.37,463.9,398.37z"/>
				</g>
			</g>
			<g>
				<g>
					<path class="st3" d="M460.12,398.37c-0.14,0-0.26-4.74-0.26-10.59c0-5.85,0.12-10.59,0.26-10.59c0.14,0,0.26,4.74,0.26,10.59
						C460.38,393.63,460.26,398.37,460.12,398.37z"/>
				</g>
			</g>
			<text transform="matrix(1.019 0 0 1 404.0797 391.1829)" class="st13 st14 st17">PostgreSQL</text>
		</g>
		<g>
			<path class="st2" d="M419.6,404.72c0-1.38,1-2.35,2.38-2.35c0.78,0,1.44,0.31,1.81,0.91l-0.47,0.32
				c-0.32-0.47-0.81-0.69-1.34-0.69c-1.01,0-1.75,0.72-1.75,1.8c0,1.09,0.74,1.8,1.75,1.8c0.54,0,1.03-0.21,1.34-0.68l0.47,0.32
				c-0.37,0.6-1.03,0.91-1.81,0.91C420.6,407.08,419.6,406.1,419.6,404.72z"/>
			<path class="st2" d="M424.37,406.51l0.28-0.49c0.37,0.29,0.99,0.52,1.64,0.52c0.88,0,1.24-0.3,1.24-0.76c0-1.2-3-0.25-3-2.08
				c0-0.76,0.65-1.32,1.83-1.32c0.6,0,1.25,0.17,1.63,0.43l-0.27,0.5c-0.4-0.28-0.89-0.4-1.36-0.4c-0.83,0-1.2,0.33-1.2,0.76
				c0,1.25,3,0.31,3,2.08c0,0.8-0.7,1.32-1.91,1.32C425.49,407.08,424.75,406.83,424.37,406.51z"/>
			<path class="st2" d="M428.67,406.51l0.28-0.49c0.37,0.29,0.99,0.52,1.64,0.52c0.88,0,1.24-0.3,1.24-0.76c0-1.2-3-0.25-3-2.08
				c0-0.76,0.65-1.32,1.83-1.32c0.6,0,1.25,0.17,1.63,0.43l-0.27,0.5c-0.4-0.28-0.89-0.4-1.36-0.4c-0.83,0-1.2,0.33-1.2,0.76
				c0,1.25,3,0.31,3,2.08c0,0.8-0.7,1.32-1.91,1.32C429.79,407.08,429.05,406.83,428.67,406.51z"/>
		</g>
		<g>
			<circle class="st2" cx="401.12" cy="404.86" r="2.1"/>
		</g>
		<g>
			<circle class="st2" cx="453.75" cy="404.86" r="2.1"/>
		</g>
	</g>
	<g>
		<g>
			<g>
				<g>
					<path class="st8" d="M189.48,409.71H43.65c-6.63,0-12-5.37-12-12V306c0-6.63,5.37-12,12-12h145.83c6.63,0,12,5.37,12,12v91.72
						C201.47,404.34,196.1,409.71,189.48,409.71z"/>
				</g>
				<g>
					<polygon class="st6" points="88.18,382.21 78.78,435.44 122.9,435.44 130.89,381.12 					"/>
				</g>
				<g>
					<path class="st6" d="M182.74,409.71H36.91c-6.63,0-12-5.37-12-12V306c0-6.63,5.37-12,12-12h145.83c6.63,0,12,5.37,12,12v91.72
						C194.73,404.34,189.36,409.71,182.74,409.71z"/>
				</g>
				<g>
					<polygon class="st8" points="126.69,409.71 130.89,381.12 132.06,409.71 					"/>
				</g>
				<g>
					<g>
						<path class="st8" d="M88.42,379.25c0.14,0.02-0.93,7.11-2.38,15.82c-1.46,8.72-2.76,15.76-2.9,15.74
							c-0.14-0.02,0.93-7.11,2.39-15.82C86.98,386.27,88.28,379.23,88.42,379.25z"/>
					</g>
				</g>
				<g>
					<path class="st3" d="M115.39,347.85c0,3.07-2.49,5.57-5.56,5.57c-3.07,0-5.57-2.49-5.57-5.57c0-3.07,2.49-5.57,5.57-5.57
						C112.9,342.28,115.39,344.78,115.39,347.85z"/>
					<path class="st8" d="M109.82,353.44c-3.08,0-5.59-2.51-5.59-5.59c0-3.08,2.51-5.59,5.59-5.59c3.08,0,5.59,2.51,5.59,5.59
						C115.41,350.93,112.9,353.44,109.82,353.44z M109.82,342.31c-3.05,0-5.54,2.49-5.54,5.54c0,3.05,2.49,5.54,5.54,5.54
						c3.05,0,5.54-2.48,5.54-5.54C115.36,344.8,112.88,342.31,109.82,342.31z"/>
				</g>
			</g>
			<g>
				<g>
					<path class="st8" d="M67.41,328.44c0,0,2.62-3.7,1.73-7.8c0.01,0,0.02,0.01,0.03,0.01c0,0-0.01-1.33-2-3.94
						c-0.66-0.87-1.46-1.64-2.22-2.28c-0.69-0.6-1.45-1.16-2.27-1.65c-0.27-0.17-0.44-0.26-0.44-0.26c0,0,0,0,0,0.01
						c-2.69-1.49-5.98-2.25-9.68-1.45c-2.5,0.54-4.81,1.79-6.55,3.66c-0.57,0.61-1.11,1.31-1.51,2.07
						c-1.19,2.29-3.13,6.45-1.46,11.6c0.08,0.26,0.17,0.52,0.27,0.77c0.01,0.03,0.03,0.06,0.04,0.1c0.04,0.09,0.07,0.17,0.11,0.26
						c0.03,0.07,0.06,0.12,0.09,0.18c0.09,0.2,0.17,0.4,0.27,0.61c0.26,0.54,0.54,1.01,0.82,1.45c0.68,1.11,1.11,1.51,1.11,1.51
						c0,0,0-0.01,0-0.01c2.43,2.73,5.19,2.86,6.84,2.69c0.58,0.86,1.38,1.77,2.33,1.99c1.92,0.43,5.07-0.53,7.34-1.76
						c2.28-1.23,5.55-3.54,5.5-5.54C67.74,329.9,67.6,329.13,67.41,328.44L67.41,328.44z"/>
				</g>
				<g>
					<g>
						<g>
							<path class="st10" d="M50.45,311.06c-2.5,0.54-4.81,1.79-6.55,3.66c-0.57,0.61-1.11,1.31-1.51,2.07
								c-1.33,2.56-3.63,7.49-0.69,13.51c2.93,6.02,7.26,5.86,9.23,5.59c1.96-0.27,14.38-7.46,14.38-7.46s3.8-5.35,0.71-10.32
								C63.36,313.85,57.68,309.51,50.45,311.06z"/>
						</g>
						<g>
							<path class="st0" d="M49.54,334.23c0,0,1.34,3.28,3.27,3.71c1.92,0.43,5.07-0.53,7.34-1.76c2.28-1.23,5.55-3.54,5.5-5.54
								c-0.05-1.99-1-4.2-1.33-4.38c-0.34-0.18-4.58-1.33-9.18,1.45C50.54,330.49,49.54,334.23,49.54,334.23z"/>
						</g>
						<g class="st18">
							<path class="st13" d="M56.26,315.25c1.73,3.21,0.53,7.22-2.68,8.95c-3.21,1.73-7.22,0.53-8.95-2.68
								c-1.73-3.21-0.53-7.22,2.68-8.95C50.52,310.83,54.53,312.03,56.26,315.25z"/>
						</g>
						<g class="st18">
							<g>
								<path class="st13" d="M43.62,333.27c0.8-1.81,1.06-4.01,0.44-5.89c-0.62-1.89-1.95-3.53-3.67-4.52c0,0-0.3,3.93,0.94,6.66
									C42.66,332.42,43.62,333.27,43.62,333.27z"/>
							</g>
						</g>
						<g class="st18">
							<g>
								<path class="st13" d="M67.06,320.64c-1.96-0.33-3.93-1.32-5.16-2.87c-1.24-1.55-1.88-3.28-1.77-5.26c0,0,3.05,1.7,4.93,4.19
									C67.05,319.32,67.06,320.64,67.06,320.64z"/>
							</g>
						</g>
						<g>
							<path class="st1" d="M49.56,334.19c0.04,0.27,0.09,0.54,0.24,0.76s0.42,0.39,0.68,0.33c0.28-0.07,0.44-0.35,0.58-0.61
								c1.37-2.6,3.51-4.79,6.07-6.23c1.04-0.58,2.18-1.05,3.37-1.09c1.08-0.04,2.14,0.27,3.21,0.33c0.27,0.01,0.56,0.01,0.81-0.12
								s0.23-0.4,0.17-0.67c-0.07-0.32-0.27-0.58-0.38-0.63c-2.84-1.17-6.36-0.31-9.01,1.22C52.65,329.03,50.92,331.44,49.56,334.19
								"/>
						</g>
					</g>
				</g>
			</g>
		</g>
		<g>
			<rect x="162.27" y="425.81" class="st6" width="96.61" height="6.81"/>
		</g>
		<g>
			<g>
				<path class="st6" d="M151.71,432.62h-20.3v-1.67c0-4.28,3.47-7.76,7.76-7.76h4.79c4.28,0,7.76,3.47,7.76,7.76V432.62z"/>
			</g>
			<g>
				<g>
					<path class="st8" d="M151.41,430.5c0,0.14-4.38,0.26-9.79,0.26c-5.41,0-9.79-0.12-9.79-0.26s4.38-0.26,9.79-0.26
						C147.03,430.24,151.41,430.35,151.41,430.5z"/>
				</g>
			</g>
			<g>
				<g>
					<path class="st8" d="M141.78,423.11c0.14,0,0.22,1.6,0.16,3.59c-0.05,1.98-0.21,3.58-0.36,3.57c-0.14-0.01-0.22-1.62-0.16-3.59
						C141.48,424.72,141.64,423.12,141.78,423.11z"/>
				</g>
			</g>
		</g>
	</g>
	<g>
		<rect x="17.71" y="432.62" class="st8" width="464.59" height="13.52"/>
	</g>
</g>
</svg>
