<svg width="405" height="300" viewBox="0 0 405 300" fill="none" xmlns="http://www.w3.org/2000/svg">
<mask id="mask0" mask-type="alpha" maskUnits="userSpaceOnUse" x="0" y="0" width="405" height="300">
<rect width="405" height="300" fill="#EEEEEE"/>
</mask>
<g mask="url(#mask0)">
<g clip-path="url(#clip0)">
<path d="M409.508 228.224C408.963 229.384 408.42 230.528 407.878 231.656C407.033 233.409 406.199 235.128 405.375 236.813C405.009 237.56 404.643 238.293 404.286 239.025C400.247 247.174 396.477 254.38 393.274 260.307C390.368 265.677 386.053 270.177 380.781 273.335C375.509 276.492 369.474 278.191 363.309 278.255L292.095 279.02H291.343L285.239 279.085L280.017 279.14L264.003 279.312H263.355L255.203 279.4H254.954L204.708 279.938L159.856 280.402L154.639 280.457L122.237 280.805H122.199L101.185 281.028H100.96L34.5118 281.737L14.6338 281.951C12.9412 281.97 11.249 281.886 9.56681 281.7C8.9939 281.635 8.421 281.561 7.85279 281.473C-1.41799 280.06 -9.91855 275.552 -16.2328 268.701C-24.7842 259.412 -31.0063 248.574 -35.1857 236.813C-35.7899 235.116 -36.3534 233.397 -36.8763 231.656C-51.3445 183.356 -33.7065 121.041 -1.96177 79.34C-0.631252 77.5963 0.721188 75.8958 2.09554 74.2387L2.12841 74.2016C11.8913 62.3665 22.8376 52.4792 34.4977 45.4487C55.1599 32.969 78.0527 29.4537 100.57 39.93C119.621 48.797 137.41 52.9662 154.653 54.0977C156.395 54.209 158.138 54.2925 159.87 54.3435C199.425 55.5725 236.495 41.4975 280.026 32.4125C281.759 32.0507 283.496 31.6936 285.248 31.3551C316.302 25.2521 350.752 22.0336 391.72 28.7998C395.976 29.4865 400.176 30.4784 404.286 31.7678C406.092 32.3429 407.833 32.9612 409.508 33.6229C429.062 41.4789 439.726 55.9945 444.258 74.183C444.687 75.8711 445.058 77.5885 445.371 79.3354C453.406 123.086 429.874 185.146 409.508 228.224Z" fill="#EEEEEE"/>
<path opacity="0.1" d="M191.399 231.655C191.209 233.389 190.916 235.111 190.521 236.812H234.522V231.655H191.399ZM154.653 260.783L159.87 260.741V248.002C158.081 247.923 156.339 247.844 154.653 247.761V260.783ZM45.2745 231.655V236.812H138.489V231.655H45.2745ZM444.281 74.2H409.531V33.6259C407.856 32.955 406.115 32.3367 404.309 31.7709V74.2H285.248V31.3396C283.496 31.6781 281.758 32.0352 280.026 32.397V74.2H159.87V54.328C158.137 54.277 156.395 54.1935 154.653 54.0822V74.2H34.4972V45.4471C22.8372 52.4776 11.8909 62.3649 2.12796 74.2H2.09509V74.2371C0.717606 75.9066 -0.63483 77.607 -1.96222 79.3384H2.09509V231.655H-36.8814C-36.3617 233.395 -35.7982 235.114 -35.1909 236.812H2.09039V280.229C3.96615 280.795 5.88079 281.227 7.81946 281.522C8.38767 281.61 8.96058 281.685 9.53349 281.75C11.2157 281.935 12.9079 282.019 14.6004 282L34.4784 281.787V236.802H154.653V280.493L159.87 280.437V236.812H280.026V279.18L285.248 279.125V236.812H404.286V239.024C404.642 238.291 405.009 237.558 405.375 236.812C406.198 235.127 407.033 233.408 407.878 231.655C408.42 230.529 408.963 229.385 409.507 228.223V79.357H445.394C445.078 77.5978 444.707 75.8788 444.281 74.2ZM34.4972 231.655V79.3384H154.653V231.655H34.4972ZM159.879 231.655V79.3384H280.026V231.655H159.879ZM404.295 231.655H285.248V79.3384H404.286L404.295 231.655Z" fill="black"/>
<path d="M363.304 272.484V278.512L291.963 279.162L291.202 279.176L264.088 279.421L263.439 279.431L255.198 279.5H254.954L204.716 279.959L122.251 280.715H122.18L101.213 280.91L100.987 280.915L7.81946 281.759V274.802L29.7261 261.817L73.6803 261.456L74.6195 261.451L74.9295 261.446L75.8687 261.432L96.9723 261.261L97.9162 261.256L98.2167 261.251L99.1559 261.247L105.923 261.191L106.101 261.187L122.795 261.047H122.932L253.198 259.962L256.386 259.939H256.705L259.138 259.916L276.818 259.772L277.757 259.758L278.626 259.749H279.077L284.576 259.707L285.665 259.693L287.126 259.684L291.704 259.642L298.969 259.582L299.908 259.573L301.543 259.563H301.848L336.931 259.267L363.304 272.484Z" fill="#65617D"/>
<path opacity="0.2" d="M363.304 272.484V278.512L291.963 279.162L291.202 279.176L264.088 279.421L263.439 279.431L255.198 279.5H254.954L204.716 279.959L122.251 280.715H122.18L101.213 280.91L100.987 280.915L7.81946 281.759V274.802L29.7261 261.817L73.6803 261.456L74.6195 261.451L74.9295 261.446L75.8687 261.432L96.9723 261.261L97.9162 261.256L98.2167 261.251L99.1559 261.247L105.923 261.191L106.101 261.187L122.795 261.047H122.932L253.198 259.962L256.386 259.939H256.705L259.138 259.916L276.818 259.772L277.757 259.758L278.626 259.749H279.077L284.576 259.707L285.665 259.693L287.126 259.684L291.704 259.642L298.969 259.582L299.908 259.573L301.543 259.563H301.848L336.931 259.267L363.304 272.484Z" fill="black"/>
<path d="M97.0475 249.301V260.658C97.0477 261.196 96.8934 261.723 96.6025 262.178C96.3116 262.632 95.8959 262.996 95.4039 263.227C95.0375 263.403 94.637 263.498 94.2299 263.505L77.841 263.849C77.4033 263.859 76.9692 263.768 76.5731 263.584C76.0724 263.358 75.6482 262.994 75.3509 262.536C75.0537 262.078 74.896 261.545 74.8966 261.001V249.301H97.0475Z" fill="#3F3D56"/>
<path opacity="0.1" d="M97.0475 249.301V260.658C97.0477 261.196 96.8934 261.723 96.6025 262.178C96.3116 262.632 95.8959 262.996 95.4039 263.227C95.0375 263.403 94.637 263.498 94.2299 263.505L77.841 263.849C77.4033 263.859 76.9692 263.768 76.5731 263.584C76.0724 263.358 75.6482 262.994 75.3509 262.536C75.0537 262.078 74.896 261.545 74.8966 261.001V249.301H97.0475Z" fill="black"/>
<path d="M97.9867 249.301V260.658C97.9869 261.196 97.8326 261.723 97.5417 262.178C97.2507 262.632 96.8351 262.996 96.3431 263.227C95.9767 263.403 95.5762 263.498 95.1691 263.505L78.7802 263.849C78.3425 263.859 77.9083 263.768 77.5122 263.584C77.0115 263.358 76.5873 262.994 76.2901 262.536C75.9929 262.078 75.8352 261.545 75.8358 261.001V249.301H97.9867Z" fill="#3F3D56"/>
<path d="M299.908 249.296H277.758V263.904H299.908V249.296Z" fill="#3F3D56"/>
<path opacity="0.1" d="M299.908 249.296H277.758V263.904H299.908V249.296Z" fill="black"/>
<path d="M298.969 249.296H276.818V263.904H298.969V249.296Z" fill="#3F3D56"/>
<path opacity="0.1" d="M97.982 249.296V251.601L75.8311 252.185V249.296H97.982Z" fill="black"/>
<path d="M137.081 169.859V247.863C137.075 248.339 136.884 248.795 136.547 249.136C136.211 249.477 135.754 249.677 135.273 249.695L45.2745 252.06H45.251C44.7609 252.054 44.2927 251.859 43.9461 251.517C43.5996 251.174 43.4022 250.712 43.3961 250.228V169.859C43.4022 169.375 43.5996 168.913 43.9461 168.57C44.2927 168.228 44.7609 168.033 45.251 168.027H135.226C135.716 168.033 136.184 168.228 136.531 168.57C136.877 168.913 137.074 169.375 137.081 169.859Z" fill="#65617D"/>
<path opacity="0.1" d="M45.2745 168.027V252.06H45.251C44.7609 252.054 44.2927 251.859 43.9461 251.517C43.5996 251.174 43.4022 250.712 43.3961 250.228V169.859C43.4022 169.375 43.5996 168.913 43.9461 168.57C44.2927 168.228 44.7609 168.033 45.251 168.027H45.2745Z" fill="black"/>
<path d="M49.3788 173.008H132.732V241.76L49.3788 243.615V173.008Z" fill="#6C63FF"/>
<path opacity="0.1" d="M298.969 249.296V252.269L276.818 251.684V249.296H298.969Z" fill="black"/>
<path d="M328.206 169.859V250.228C328.2 250.716 327.999 251.182 327.648 251.525C327.296 251.868 326.822 252.06 326.328 252.06L236.311 249.695C235.829 249.677 235.373 249.477 235.036 249.136C234.7 248.795 234.509 248.339 234.503 247.863V169.859C234.509 169.375 234.706 168.913 235.053 168.57C235.4 168.228 235.868 168.033 236.358 168.027H326.333C326.826 168.028 327.299 168.221 327.65 168.564C328 168.907 328.2 169.372 328.206 169.859Z" fill="#65617D"/>
<path opacity="0.1" d="M328.206 169.859V250.228C328.2 250.716 327.999 251.182 327.648 251.525C327.296 251.868 326.822 252.06 326.328 252.06V168.027C326.822 168.027 327.296 168.219 327.648 168.562C327.999 168.905 328.2 169.371 328.206 169.859Z" fill="black"/>
<path d="M322.214 173.008H238.861V241.76L322.214 243.615V173.008Z" fill="#6C63FF"/>
<path d="M232.174 169.859V247.863C232.168 248.339 231.977 248.795 231.641 249.136C231.304 249.477 230.848 249.677 230.366 249.695L140.368 252.06C139.874 252.06 139.399 251.868 139.048 251.525C138.696 251.182 138.496 250.716 138.489 250.228V169.859C138.495 169.375 138.693 168.913 139.039 168.57C139.386 168.228 139.854 168.033 140.344 168.027H230.319C230.809 168.033 231.277 168.228 231.624 168.57C231.97 168.913 232.168 169.375 232.174 169.859Z" fill="#65617D"/>
<path d="M144.472 173.008H227.825V241.76L144.472 243.615V173.008Z" fill="#6C63FF"/>
<path opacity="0.1" d="M363.304 272.484V278.513L291.963 279.162L291.202 279.176L264.088 279.422L263.439 279.431L255.198 279.501H254.954L204.716 279.96L122.251 280.716H122.18L101.213 280.91L100.987 280.915L7.81946 281.759V274.803L102.917 274.186H103.143L122.392 274.056H122.481L255.414 273.189H255.55L255.63 273.184H255.851L258.1 273.17H258.786L293.766 272.938L295.832 272.929L296.292 272.924L363.304 272.484Z" fill="black"/>
<path d="M186.815 187.074C200.128 187.074 210.92 176.416 210.92 163.269C210.92 150.122 200.128 139.465 186.815 139.465C173.503 139.465 162.711 150.122 162.711 163.269C162.711 176.416 173.503 187.074 186.815 187.074Z" fill="#FBBEBE"/>
<path d="M210.925 199.911C210.925 199.911 164.2 205.476 168.661 199.911C170.276 197.898 170.722 191.934 170.633 185.14C170.605 183.076 170.53 180.938 170.422 178.81C169.905 168.607 168.661 158.636 168.661 158.636C168.661 158.636 209.516 139.622 204.82 154.694C202.941 160.783 203.557 169.335 204.984 177.363C205.402 179.705 205.886 182 206.393 184.18C207.631 189.496 209.143 194.747 210.925 199.911Z" fill="#FBBEBE"/>
<path d="M195.677 198.023C201.082 197.035 206.806 195.24 211.892 197.309C213.23 197.851 214.461 198.644 215.832 199.099C217.203 199.553 218.706 199.665 220.133 199.985C225.149 201.107 229.215 204.877 231.826 209.26C234.437 213.642 235.79 218.6 237.114 223.506L240.354 235.485C243.172 245.896 245.989 256.396 246.642 267.16C207.415 269.377 168.099 269.598 128.849 267.823C131.403 263.028 134.014 257.94 133.798 252.519C133.582 247.098 130.422 241.75 131.563 236.408C132.291 233.004 134.648 230.198 136.09 227.031C140.199 217.978 137.001 205.795 144.223 198.904C147.473 195.806 152.206 194.633 156.728 194.781C162.495 194.971 168.398 196.748 174.104 197.615C181.41 198.709 188.313 199.358 195.677 198.023Z" fill="#FF6584"/>
<path opacity="0.1" d="M257.147 249.579L257.1 250.242V250.288L257.02 251.355L256.396 259.939L255.64 270.281L255.424 273.193L254.954 279.426V279.505L204.707 279.969L122.251 280.85V281.239H122.185V280.85V280.72L122.396 274.06L122.8 261.047L123.148 250.015L123.181 248.915C123.201 248.252 123.358 247.6 123.643 246.998C123.927 246.397 124.333 245.859 124.834 245.418C125.336 244.976 125.924 244.641 126.562 244.431C127.199 244.222 127.874 244.143 128.543 244.199C130.76 244.385 133.638 244.612 137.081 244.853L138.489 244.955C158.367 246.318 195.104 248.081 232.174 245.883C232.953 245.841 233.738 245.794 234.522 245.739C240.27 245.382 246.013 244.923 251.7 244.347C252.419 244.273 253.145 244.355 253.828 244.588C254.512 244.821 255.135 245.199 255.654 245.696C256.174 246.192 256.576 246.795 256.834 247.462C257.092 248.129 257.199 248.843 257.147 249.555V249.579Z" fill="black"/>
<path d="M122.237 281.239V280.85L204.707 279.964L254.954 279.5H255.095V279.422L255.564 273.189L255.766 270.406L256.536 259.921L257.142 251.619V251.415C257.17 251.033 257.153 250.648 257.091 250.27C257.093 250.254 257.093 250.239 257.091 250.223C256.962 249.441 256.639 248.702 256.151 248.072C255.634 247.417 254.957 246.903 254.183 246.578C253.409 246.254 252.564 246.129 251.728 246.217C246.041 246.792 240.298 247.251 234.55 247.608C233.766 247.663 232.981 247.71 232.202 247.752C195.132 249.927 158.396 248.164 138.518 246.824L137.109 246.722C133.667 246.481 130.788 246.258 128.571 246.068C127.352 245.966 126.138 246.315 125.163 247.045C124.188 247.776 123.522 248.837 123.293 250.024C123.246 250.275 123.218 250.529 123.209 250.785L122.889 261.061L122.453 274.079L122.246 280.739V280.868V281.258L122.237 281.239Z" fill="#3F3D56"/>
<path opacity="0.1" d="M257.288 252.83L256.71 259.939L255.851 270.536L255.635 273.189L255.165 279.129L255.137 279.426V279.505L255.067 280.191L255.118 279.505H254.982L204.735 279.969L122.251 280.85V280.72L122.481 274.06L122.95 261.047L123.251 252.398C123.266 251.906 123.405 251.426 123.656 251.001C123.907 250.575 124.262 250.219 124.688 249.964C125.22 249.642 125.841 249.496 126.463 249.546C127.449 249.625 128.661 249.718 130.074 249.82C132.37 249.987 135.202 250.182 138.499 250.386C144.603 250.766 152.263 251.174 161.039 251.508C185.458 252.435 218.424 252.746 249.737 250.038C251.146 249.917 252.601 249.783 254.024 249.648C254.587 249.593 255.155 249.699 255.658 249.954C255.801 250.024 255.936 250.108 256.062 250.205C256.471 250.497 256.795 250.891 257.001 251.346C257.049 251.436 257.089 251.531 257.119 251.628C257.26 252.013 257.317 252.422 257.288 252.83Z" fill="black"/>
<path opacity="0.1" d="M97.9867 259.178V260.658C97.9869 261.196 97.8326 261.723 97.5417 262.178C97.2507 262.632 96.8351 262.996 96.3431 263.227L77.5122 263.584C77.0115 263.357 76.5873 262.994 76.2901 262.536C75.9929 262.078 75.8352 261.545 75.8358 261.001V259.61L97.9867 259.178Z" fill="black"/>
<path d="M98.2168 264.099L73.6804 264.563V260.542L98.2168 260.078V264.099Z" fill="#3F3D56"/>
<path opacity="0.1" d="M98.2168 264.099L73.6804 264.563V260.542L98.2168 260.078V264.099Z" fill="black"/>
<path d="M99.156 264.099L74.6196 264.563V260.542L99.156 260.078V264.099Z" fill="#3F3D56"/>
<path opacity="0.1" d="M276.959 260.106V261.585C276.959 262.123 277.113 262.65 277.404 263.105C277.695 263.56 278.111 263.924 278.603 264.155L297.434 264.512C297.934 264.285 298.359 263.921 298.656 263.463C298.953 263.005 299.111 262.472 299.11 261.929V260.537L276.959 260.106Z" fill="black"/>
<path opacity="0.1" d="M276.724 265.027L301.261 265.49V261.47L276.724 261.006V265.027Z" fill="black"/>
<path d="M275.785 265.027L300.322 265.49V261.47L275.785 261.006V265.027Z" fill="#3F3D56"/>
<path d="M171.568 170.564C171.605 173.81 170.084 176.871 168.792 179.871C164.091 190.801 162.054 202.669 162.847 214.519C163.19 219.62 164.059 224.721 163.19 229.776C162.321 234.831 159.231 239.872 154.268 241.324C162.5 246.17 173.643 245.66 181.392 240.09C185.519 237.122 188.595 232.981 191.605 228.909C191.248 236.223 189.103 243.344 185.355 249.662C192.13 249.07 198.704 247.079 204.651 243.817C210.597 240.556 215.784 236.098 219.875 230.732C221.899 228.037 223.66 225.078 224.44 221.814C225.891 215.785 223.867 209.519 222.322 203.495C221.031 198.459 220.063 193.348 219.424 188.191C219.222 186.54 219.058 184.843 219.471 183.229C219.941 181.342 221.195 179.746 222.12 178.026C224.75 173.138 224.811 167.22 223.463 161.85C222.115 156.48 219.476 151.527 216.86 146.634C214.766 142.711 212.493 138.606 208.661 136.302C206.266 134.864 203.496 134.266 200.734 133.686L188.821 131.168C186.214 130.616 183.533 130.064 180.899 130.467C176.452 131.154 173.319 134.326 170.567 137.582C168.412 140.114 163.143 144.867 162.772 148.183C162.434 151.239 165.167 156.359 165.632 159.582C166.242 163.756 166.675 162.365 169.06 164.925C170.567 166.511 171.54 168.342 171.568 170.564Z" fill="#3F3D56"/>
<path d="M99.001 179.705H52.2292C52.1669 179.705 52.1072 179.68 52.0632 179.637C52.0191 179.593 51.9944 179.534 51.9944 179.473C51.9944 179.411 52.0191 179.352 52.0632 179.309C52.1072 179.265 52.1669 179.241 52.2292 179.241H99.001C99.0633 179.241 99.123 179.265 99.167 179.309C99.211 179.352 99.2358 179.411 99.2358 179.473C99.2358 179.534 99.211 179.593 99.167 179.637C99.123 179.68 99.0633 179.705 99.001 179.705Z" fill="#F2F2F2"/>
<path d="M99.001 183.879H52.2292C52.1669 183.879 52.1072 183.854 52.0632 183.811C52.0191 183.767 51.9944 183.708 51.9944 183.647C51.9944 183.585 52.0191 183.526 52.0632 183.483C52.1072 183.439 52.1669 183.415 52.2292 183.415H99.001C99.0633 183.415 99.123 183.439 99.167 183.483C99.211 183.526 99.2358 183.585 99.2358 183.647C99.2358 183.708 99.211 183.767 99.167 183.811C99.123 183.854 99.0633 183.879 99.001 183.879Z" fill="#F2F2F2"/>
<path d="M99.001 188.052H52.2292C52.1669 188.052 52.1072 188.028 52.0632 187.984C52.0191 187.941 51.9944 187.882 51.9944 187.82C51.9944 187.759 52.0191 187.7 52.0632 187.656C52.1072 187.613 52.1669 187.588 52.2292 187.588H99.001C99.0633 187.588 99.123 187.613 99.167 187.656C99.211 187.7 99.2358 187.759 99.2358 187.82C99.2358 187.882 99.211 187.941 99.167 187.984C99.123 188.028 99.0633 188.052 99.001 188.052Z" fill="#F2F2F2"/>
</g>
</g>
<defs>
<clipPath id="clip0">
<rect width="489" height="257" fill="white" transform="translate(-42 25)"/>
</clipPath>
</defs>
</svg>
